<?xml version="1.0" encoding="UTF-8" standalone="no"?>
<!DOCTYPE svg  PUBLIC '-//W3C//DTD SVG 1.1//EN'  'http://www.w3.org/Graphics/SVG/1.1/DTD/svg11.dtd'>
<svg xmlns="http://www.w3.org/2000/svg">
<defs>
<font id="Panton-BlackItalic" horiz-adv-x="556">
<font-face underline-position="-50" font-weight="900" descent="-200" panose-1="0 0 10 0 0 0 0 0 0 0" units-per-em="1000" unicode-range="U+0020-20AC" bbox="-155 -260 994 993" x-height="520" underline-thickness="50" font-family="Panton" ascent="800" font-style="italic" cap-height="710"/>
<missing-glyph horiz-adv-x="1000"/>
<glyph glyph-name=".notdef" horiz-adv-x="1000"/>
<glyph glyph-name=".null" horiz-adv-x="1000"/>
<glyph glyph-name="nonmarkingreturn" horiz-adv-x="333"/>
<glyph glyph-name="space" horiz-adv-x="182" unicode=" "/>
<glyph glyph-name="exclam" horiz-adv-x="284" unicode="!" d="M146 183q36 0 52 -11.5t16 -38.5q0 -11 -3 -28l-6 -35q-8 -44 -28 -61t-65 -17h-50q-36 0 -52 11.5t-16 38.5q0 12 3 28l6 35q8 44 28 61t65 17h50zM277 739q34 0 34 -23q0 -4 -2 -14l-94 -431q-5 -22 -14 -30t-30 -8h-81q-33 0 -33 25q0 8 1 13l60 431q3 21 13 29t32 8 h114z"/>
<glyph glyph-name="quotedbl" horiz-adv-x="410" unicode='&quot;' d="M388 478q-7 -21 -15 -26.5t-31 -5.5h-61q-18 0 -24.5 3t-6.5 14q0 3 2 15l35 198q4 22 11.5 28t28.5 6h88q32 0 32 -17q0 -7 -3 -17zM207 478q-7 -21 -15 -26.5t-31 -5.5h-61q-18 0 -24.5 3t-6.5 13q0 2 2 16l35 198q3 22 10.5 28t29.5 6h88q32 0 32 -17q0 -7 -3 -17z "/>
<glyph glyph-name="numbersign" horiz-adv-x="770" unicode="#" d="M370 384l-47 -97h88l47 97h-88zM758 539q28 0 28 -15q0 -4 -7 -22l-39 -83q-16 -35 -57 -35h-57l-47 -97h60q29 0 29 -16q0 -8 -7 -21l-41 -83q-10 -20 -22.5 -28t-34.5 -8h-58l-43 -93q-18 -38 -56 -38h-91q-28 0 -28 16q0 6 7 22l43 93h-88l-43 -93q-11 -21 -23 -29.5 t-33 -8.5h-92q-27 0 -27 16q0 9 7 22l44 93h-59q-28 0 -28 16q0 6 7 22l40 83q10 20 22 27.5t35 7.5h57l46 97h-59q-29 0 -29 16q0 8 7 21l40 83q9 20 22 27.5t35 7.5h58l45 96q18 38 55 38h92q28 0 28 -16q0 -6 -7 -22l-46 -96h88l46 96q18 38 56 38h91q27 0 27 -16 q0 -9 -7 -22l-45 -96h59z"/>
<glyph glyph-name="dollar" horiz-adv-x="622" unicode="$" d="M446 761q33 0 33 -23q0 -3 -2 -15l-6 -34q110 -20 142 -126q3 -10 3 -17q0 -22 -35 -37l-97 -40q-15 -6 -24 -6q-15 0 -25 27q-9 26 -26.5 37.5t-54.5 11.5q-44 0 -65 -10.5t-26 -34.5q0 -1 -0.5 -3t-0.5 -3q0 -20 24 -29.5t72 -15.5q36 -5 61.5 -10t59.5 -18.5t55 -31.5 t36.5 -49t15.5 -72q0 -19 -5 -49q-14 -83 -70.5 -127t-156.5 -62l-6 -35q-4 -22 -13.5 -30.5t-31.5 -8.5h-103q-34 0 -34 24q0 3 2 15l5 33q-146 23 -167 138q-1 4 -1 12q0 29 37 41l98 33q16 6 26 6q18 0 28 -27q14 -49 90 -49q95 0 104 48q0 1 0.5 3t0.5 3q0 20 -22.5 29 t-67.5 15q-37 6 -62 11t-61 19t-57.5 32t-37.5 49.5t-16 72.5q0 23 4 46q27 152 222 185l6 34q4 22 13.5 30t31.5 8h104z"/>
<glyph glyph-name="percent" horiz-adv-x="904" unicode="%" d="M727 206v7q0 29 -36 29q-45 0 -49 -36l-10 -56q-1 -3 -1 -9q0 -27 37 -27q41 0 49 36zM507 215q12 74 66 115.5t140 41.5q75 0 114 -32t39 -90q0 -17 -3 -35l-13 -75q-13 -73 -66 -114t-139 -41q-76 0 -115.5 32t-39.5 90q0 15 3 33zM291 560q0 2 0.5 4t0.5 4 q0 28 -37 28q-43 0 -49 -36l-10 -56q-1 -4 -1 -10q0 -27 37 -27q41 0 49 37zM834 710q25 0 25 -17q0 -12 -11 -23l-576 -633q-23 -24 -37.5 -30.5t-51.5 -6.5h-91q-26 0 -26 17q0 11 12 25l577 633q21 23 35 29t48 6h96zM71 569q14 73 67.5 114.5t139.5 41.5q75 0 114 -32 t39 -90q0 -16 -3 -34l-13 -76q-13 -72 -66.5 -113t-139.5 -41q-75 0 -114.5 31.5t-39.5 88.5q0 16 3 34z"/>
<glyph glyph-name="ampersand" horiz-adv-x="697" unicode="&amp;" d="M246 280q-55 -26 -63 -74q-1 -4 -1 -12q0 -24 15.5 -38.5t42.5 -14.5q39 0 84 36zM390 540q0 2 0.5 4t0.5 4q0 15 -10 24.5t-26 9.5q-21 0 -35 -13t-17 -33q-2 -12 -2 -16q0 -22 19 -48l22 11q42 22 48 57zM137 537q14 82 77.5 135t166.5 53q76 0 124 -44t48 -113 q0 -14 -3 -31q-20 -111 -135 -174l-11 -5l52 -70l57 48q15 12 27 12q14 0 24 -12l59 -71q7 -10 7 -17q0 -12 -18 -27l-64 -54l97 -130q8 -11 8 -18q0 -19 -32 -19h-129q-21 0 -31.5 4.5t-20.5 17.5l-27 35q-58 -41 -106 -56.5t-104 -15.5q-93 0 -147 47t-54 129q0 25 4 46 q23 124 153 191q-25 42 -25 101q0 20 3 38z"/>
<glyph glyph-name="quotesingle" horiz-adv-x="228" unicode="&apos;" d="M207 478q-7 -21 -15 -26.5t-31 -5.5h-61q-18 0 -24.5 3t-6.5 13q0 2 2 16l35 198q3 22 10.5 28t29.5 6h88q32 0 32 -17q0 -7 -3 -17z"/>
<glyph glyph-name="parenleft" horiz-adv-x="319" unicode="(" d="M93 595q18 104 67.5 167.5t131.5 98.5q13 5 20 5q18 0 27 -30l31 -102q3 -9 3 -17q0 -19 -33 -35q-29 -14 -44.5 -36t-22.5 -60l-82 -469q-3 -18 -3 -32q0 -42 35 -64q23 -14 23 -27q0 -9 -11 -25l-65 -95q-20 -29 -37 -29q-10 0 -19 5q-113 56 -113 188q0 32 8 78z"/>
<glyph glyph-name="parenright" horiz-adv-x="318" unicode=")" d="M167 836q22 30 39 30q6 0 18 -5q112 -56 112 -187q0 -33 -8 -79l-84 -479q-18 -104 -67 -167.5t-131 -98.5q-10 -5 -21 -5q-18 0 -27 29l-31 103q-2 12 -2 15q0 20 33 37q30 14 45 36t22 60l82 469q3 18 3 33q0 43 -35 63q-23 14 -23 28q0 10 10 24z"/>
<glyph glyph-name="asterisk" horiz-adv-x="349" unicode="*" d="M259 680q24 0 24 -14q0 -3 -4 -15l-23 -69l68 32q11 6 17 6q11 0 16 -21l6 -37q0 -2 0.5 -4.5t0.5 -3.5q0 -20 -28 -24l-70 -11l40 -49q7 -7 7 -16q0 -13 -16 -22l-36 -22q-13 -8 -20 -8q-12 0 -16 16l-20 60l-42 -60q-11 -18 -23 -18q-6 0 -15 7l-29 25q-11 9 -11 17 q0 9 15 21l58 49l-67 11q-20 3 -20 16q0 6 6 17l18 36q11 20 24 20q6 0 16 -5l56 -32v69q0 29 29 29h39z"/>
<glyph glyph-name="plus" horiz-adv-x="551" unicode="+" d="M503 410q36 0 36 -28q0 -9 -1 -15l-14 -79q-4 -24 -15.5 -33.5t-34.5 -9.5h-127l-22 -126q-4 -24 -15 -33t-35 -9h-79q-37 0 -37 26q0 4 2 16l22 126h-125q-37 0 -37 27q0 4 2 16l14 79q4 24 15 33.5t35 9.5h125l22 125q4 24 15 33t35 9h79q37 0 37 -26q0 -4 -2 -16 l-22 -125h127z"/>
<glyph glyph-name="comma" horiz-adv-x="258" unicode="," d="M101 -90q-9 -21 -21.5 -29.5t-35.5 -8.5h-60q-27 0 -27 17q0 2 2 12l54 228q7 28 19.5 39.5t38.5 11.5h92q41 0 41 -26q0 -8 -7 -25z"/>
<glyph glyph-name="hyphen" horiz-adv-x="401" unicode="-" d="M325 349q37 0 37 -26q0 -4 -2 -16l-15 -85q-4 -24 -14.5 -33t-34.5 -9h-232q-20 0 -28 6t-8 22q0 9 1 14l15 85q4 24 15 33t35 9h231z"/>
<glyph glyph-name="period" horiz-adv-x="262" unicode="." d="M131 190q36 0 52 -11t16 -38q0 -13 -3 -30l-7 -41q-8 -44 -28 -61t-64 -17h-38q-37 0 -53 11.5t-16 38.5q0 12 3 28l8 41q8 44 28 61.5t64 17.5h38z"/>
<glyph glyph-name="slash" horiz-adv-x="497" unicode="/" d="M155 -25q-11 -20 -23 -27.5t-34 -7.5h-112q-27 0 -27 15q0 6 7 20l385 700q11 21 23 28t34 7h112q26 0 26 -14q0 -8 -7 -21z"/>
<glyph glyph-name="zero" horiz-adv-x="648" unicode="0" d="M442 473q1 6 1 16q0 61 -74 61q-41 0 -67.5 -20t-33.5 -57l-41 -235q-2 -12 -2 -18q0 -60 75 -60q41 0 67 20.5t33 57.5zM71 476q20 119 105.5 184t221.5 65q116 0 179.5 -58t63.5 -156q0 -24 -5 -57l-39 -219q-21 -120 -105 -185t-219 -65q-117 0 -181.5 58t-64.5 157 q0 24 5 57z"/>
<glyph glyph-name="one" horiz-adv-x="446" unicode="1" d="M415 710q37 0 37 -26q0 -4 -2 -16l-110 -626q-5 -23 -15.5 -32.5t-34.5 -9.5h-113q-37 0 -37 26q0 4 2 16l74 417l-75 -38q-19 -10 -32 -10q-20 0 -29 27l-33 85q-3 11 -3 18q0 21 33 40l216 112q30 17 62 17h60z"/>
<glyph glyph-name="two" horiz-adv-x="613" unicode="2" d="M83 550q101 175 306 175q109 0 169.5 -53.5t60.5 -140.5q0 -23 -4 -43q-18 -107 -80 -162.5t-191 -98.5q-13 -4 -34.5 -9.5t-35 -9.5t-27.5 -9t-22 -11.5t-9 -13.5l-1 -5h288q37 0 37 -27q0 -4 -2 -16l-15 -84q-5 -23 -15.5 -32.5t-34.5 -9.5h-451q-20 0 -28 6t-8 21 q0 9 1 15l16 89q9 48 30.5 84.5t59.5 62.5t64.5 39t77.5 33q6 2 28 10.5t28.5 11.5t24.5 11t25 12t20.5 12.5t19.5 15.5t14 17t12.5 21t6.5 23q1 5 1 15q0 51 -58 51q-31 0 -53.5 -15t-45.5 -51q-20 -31 -38 -31q-10 0 -21 4l-99 39q-26 11 -26 28q0 10 9 26z"/>
<glyph glyph-name="three" horiz-adv-x="626" unicode="3" d="M610 512q-17 -90 -102 -140q73 -44 73 -130q0 -23 -4 -42q-37 -215 -305 -215q-233 0 -267 175q-1 5 -1 13q0 30 37 41l105 35q15 5 23 5q20 0 26 -32q12 -65 89 -65q79 0 89 59q2 12 2 17q0 42 -57 42h-61q-37 0 -37 26q0 4 2 16l14 83q5 24 15.5 33.5t34.5 9.5h44 q68 0 78 55q1 5 1 14q0 41 -59 41q-42 0 -64 -13t-42 -47q-17 -31 -37 -31q-11 0 -22 4l-92 35q-25 10 -25 27q0 12 8 27q48 87 124 128.5t197 41.5q104 0 160.5 -47.5t56.5 -125.5q0 -21 -4 -40z"/>
<glyph glyph-name="four" horiz-adv-x="657" unicode="4" d="M389 464l-170 -169h141zM598 295q36 0 36 -26q0 -4 -2 -16l-12 -70q-4 -23 -15 -32.5t-35 -9.5h-50l-18 -99q-4 -23 -15 -32.5t-35 -9.5h-102q-37 0 -37 26q0 4 2 16l17 99h-302q-20 0 -28 6t-8 21q0 9 1 15l11 66q5 26 11 38.5t23 29.5l369 363q19 18 32.5 24t36.5 6h99 q37 0 37 -28q0 -9 -1 -14l-66 -373h51z"/>
<glyph glyph-name="five" horiz-adv-x="614" unicode="5" d="M585 711q37 0 37 -27q0 -4 -2 -16l-16 -90q-4 -24 -15 -33t-35 -9h-253l-19 -70h69q115 0 171 -51.5t56 -137.5q0 -23 -5 -53q-19 -107 -99 -173t-210 -66q-120 0 -184.5 40.5t-81.5 124.5q-2 10 -2 14q0 27 37 40l114 40q15 5 23 5q18 0 25 -30q7 -29 26.5 -42.5 t61.5 -13.5q73 0 86 74q2 12 2 16q0 52 -69 52h-209q-38 0 -38 27q0 10 3 22l83 297q10 34 26.5 47t51.5 13h366z"/>
<glyph glyph-name="six" horiz-adv-x="651" unicode="6" d="M224 232q-2 -14 -2 -19q0 -59 81 -59q50 0 74.5 16.5t30.5 48.5q1 5 1 15q0 25 -19 36.5t-64 11.5q-59 0 -95 -12zM261 443q40 8 106 8q242 0 242 -176q0 -33 -5 -59q-20 -114 -106 -172.5t-224 -58.5q-121 0 -184 56t-63 158q0 33 6 67l35 201q45 258 335 258 q218 0 252 -159q2 -10 2 -15q0 -26 -38 -39l-99 -36q-11 -4 -19 -4q-11 0 -17 7t-14 25q-19 46 -90 46q-99 0 -116 -93z"/>
<glyph glyph-name="seven" horiz-adv-x="568" unicode="7" d="M583 710q37 0 37 -28q0 -9 -1 -14l-12 -68q-7 -33 -23 -59l-326 -504q-15 -23 -30.5 -30t-54.5 -7h-111q-24 0 -24 14q0 11 11 28l317 493h-266q-37 0 -37 27q0 4 2 16l16 90q4 23 14.5 32.5t34.5 9.5h453z"/>
<glyph glyph-name="eight" horiz-adv-x="647" unicode="8" d="M395 206q0 2 0.5 5t0.5 4q0 6 -1.5 11.5t-5 10.5t-7 8.5t-11.5 7t-13.5 6t-16.5 6.5t-19 6t-22.5 6.5t-24.5 7.5q-55 -33 -63 -77q-1 -4 -1 -12q0 -48 84 -48q90 0 100 58zM435 507q1 4 1 10q0 43 -66 43q-69 0 -80 -53q-1 -4 -1 -10q0 -20 15 -31.5t47 -21.5l28 -8 q48 28 56 71zM93 520q18 100 98 152.5t207 52.5q116 0 176 -44t60 -123q0 -22 -4 -42q-15 -84 -95 -143q67 -45 67 -127q0 -23 -4 -46q-36 -215 -330 -215q-133 0 -196.5 44.5t-63.5 123.5q0 22 4 42q19 105 128 166q-51 41 -51 117q0 22 4 42z"/>
<glyph glyph-name="nine" horiz-adv-x="651" unicode="9" d="M445 478q2 14 2 20q0 58 -81 58q-93 0 -104 -65q-2 -12 -2 -16q0 -47 83 -47q59 0 95 12zM408 267q-40 -8 -105 -8q-243 0 -243 176q0 33 5 59q21 114 106.5 172.5t223.5 58.5q121 0 184 -56t63 -158q0 -33 -6 -67l-35 -201q-45 -258 -334 -258q-220 0 -252 159 q-2 10 -2 15q0 26 38 39l99 36q11 4 19 4q11 0 17 -7t14 -25q9 -24 29.5 -35t59.5 -11q100 0 116 93z"/>
<glyph glyph-name="colon" horiz-adv-x="286" unicode=":" d="M145 190q36 0 52 -11.5t16 -39.5q0 -12 -3 -28l-7 -41q-8 -44 -28 -61t-65 -17h-38q-36 0 -52 11t-16 38q0 13 3 29l7 41q8 45 28 62t65 17h38zM197 521q37 0 53 -11t16 -39q0 -13 -3 -29l-8 -40q-8 -44 -28 -61.5t-64 -17.5h-38q-36 0 -52 11t-16 38q0 14 3 30l7 40 q7 45 27.5 62t64.5 17h38z"/>
<glyph glyph-name="semicolon" horiz-adv-x="286" unicode=";" d="M196 264q-2 -9 -8 -22l-17 -37q-8 -18 -16 -28l-15 -33q8 -10 8 -18q0 -12 -23 -35l-50 -4q-17 -20 -29 -20q-10 0 -20 9l41 151q-9 14 -9 25q0 9 6 18q-1 2 -1 7q0 11 11 33l28 36q21 38 45 38q9 0 24 -5l-3 -74l2 -1q8 4 15 4q12 0 23 -18z"/>
<glyph glyph-name="less" horiz-adv-x="494" unicode="&lt;" d="M456 605q18 8 26 8q15 0 15 -21q0 -5 -2 -19l-17 -95q-6 -33 -15.5 -45t-35.5 -24l-174 -78l-1 -4l146 -78q18 -9 24.5 -16.5t6.5 -23.5q0 -11 -3 -29l-18 -101q-8 -40 -28 -40q-8 0 -22 8l-313 189q-26 14 -26 36q0 4 2 16l13 76q4 21 13 32t30 21z"/>
<glyph glyph-name="equal" horiz-adv-x="597" unicode="=" d="M506 300q20 0 28 -6t8 -21q0 -9 -1 -15l-15 -85q-4 -24 -15.5 -33.5t-34.5 -9.5h-416q-37 0 -37 27q0 4 2 16l15 85q4 23 15 32.5t35 9.5h416zM545 523q36 0 36 -28q0 -9 -1 -15l-15 -85q-5 -23 -15.5 -32.5t-34.5 -9.5h-416q-20 0 -28 6t-8 21q0 9 1 15l15 85 q5 24 15.5 33.5t34.5 9.5h416z"/>
<glyph glyph-name="greater" horiz-adv-x="495" unicode="&gt;" d="M95 574q8 39 27 39q9 0 23 -8l312 -188q27 -14 27 -36q0 -4 -2 -16l-13 -77q-4 -21 -13 -31.5t-30 -20.5l-379 -189q-18 -8 -26 -8q-15 0 -15 21q0 3 2 19l19 109q6 33 15.5 45t34.5 23l175 78l1 4l-147 78q-17 9 -23.5 17t-6.5 24q0 10 3 28z"/>
<glyph glyph-name="question" horiz-adv-x="593" unicode="?" d="M275 183q36 0 52 -11.5t16 -38.5q0 -11 -3 -28l-6 -35q-8 -44 -28 -61t-65 -17h-50q-36 0 -52 11t-16 38q0 13 3 29l6 35q7 44 27.5 61t65.5 17h50zM75 577q47 82 115.5 122t179.5 40q112 0 176 -48.5t64 -129.5q0 -17 -3 -35q-7 -41 -24.5 -73.5t-43.5 -54t-47.5 -35 t-53 -28.5t-44.5 -23q-42 -25 -47 -55q-4 -23 -14.5 -31.5t-33.5 -8.5h-90q-19 0 -27 5t-8 19q0 4 2 16q11 65 40 101.5t72 59.5q11 6 32.5 16.5t33 17.5t26 18t22.5 25.5t11 33.5q1 4 1 11q0 21 -15.5 33.5t-45.5 12.5q-41 0 -66.5 -15t-52.5 -58q-19 -32 -38 -32 q-11 0 -21 5l-84 36q-26 12 -26 28q0 11 10 27z"/>
<glyph glyph-name="at" horiz-adv-x="906" unicode="@" d="M529 407q-24 6 -70 6q-37 0 -55.5 -13t-23.5 -43l-23 -130q-2 -12 -2 -15q0 -40 61 -40q62 0 80 6l39 220q0 8 -6 9zM37 330q31 183 157 289t329 106q177 0 269 -81.5t92 -224.5q0 -39 -8 -89l-13 -75q-18 -102 -80 -160.5t-140 -58.5q-32 0 -49 8.5t-36 28.5 q-81 -25 -180 -25q-163 0 -163 131q0 24 4 45l24 136q32 177 221 177q114 0 194 -33q26 -11 26 -29q0 -8 -3 -20l-47 -271q0 -2 -0.5 -4t-0.5 -3q0 -23 29 -23q54 0 72 99l14 79q7 45 7 73q0 206 -250 206q-141 0 -228 -73.5t-111 -205.5l-14 -79q-6 -35 -6 -66 q0 -100 63 -152t186 -52q87 0 222 21q14 2 17 2q12 0 12 -12q0 -7 -1 -11l-10 -55q-3 -19 -10 -26t-26 -11q-101 -23 -221 -23q-178 0 -270.5 79t-92.5 221q0 37 8 87z"/>
<glyph glyph-name="A" horiz-adv-x="688" unicode="A" d="M386 388q-3 27 -3 54l6 86h-9q-13 -72 -45 -139l-57 -118h124zM638 41q1 -4 1 -11q0 -30 -38 -30h-104q-37 0 -51 9t-16 33l-10 72h-217l-35 -72q-12 -24 -28 -33t-52 -9h-110q-28 0 -28 16q0 10 9 25l342 634q11 21 23 28t35 7h113q22 0 32.5 -7t14.5 -26z"/>
<glyph glyph-name="B" horiz-adv-x="658" unicode="B" d="M414 221q2 12 2 16q0 42 -56 42h-115l-21 -117h116q64 0 74 59zM440 494q1 5 1 15q0 41 -53 41h-96l-19 -110h96q61 0 71 54zM458 711q91 0 141.5 -42t50.5 -115q0 -12 -4 -40q-10 -50 -32.5 -81.5t-65.5 -58.5l-1 -4q73 -35 73 -133q0 -24 -4 -47q-17 -94 -91.5 -142 t-184.5 -48h-300q-37 0 -37 26q0 4 2 16l110 626q5 24 15.5 33.5t34.5 9.5h293z"/>
<glyph glyph-name="C" horiz-adv-x="647" unicode="C" d="M62 459q22 129 113.5 197.5t239.5 68.5q216 0 249 -178q2 -12 2 -16q0 -27 -36 -38l-103 -35q-12 -4 -23 -4q-20 0 -27 31q-7 34 -28 49.5t-63 15.5q-58 0 -88.5 -25.5t-39.5 -78.5l-33 -182q-3 -16 -3 -30q0 -38 22.5 -56t72.5 -18q79 0 115 65q19 32 38 32q8 0 21 -5 l104 -40q26 -9 26 -27q0 -11 -9 -27q-94 -173 -323 -173q-128 0 -196.5 61.5t-68.5 167.5q0 34 5 60z"/>
<glyph glyph-name="D" horiz-adv-x="677" unicode="D" d="M468 427q3 17 3 30q0 78 -100 78h-81l-64 -360h82q115 0 135 108zM408 710q126 0 194 -62t68 -168q0 -32 -6 -65l-26 -150q-23 -130 -113 -197.5t-239 -67.5h-246q-37 0 -37 26q0 4 2 16l110 626q5 23 15.5 32.5t34.5 9.5h243z"/>
<glyph glyph-name="E" horiz-adv-x="588" unicode="E" d="M584 710q37 0 37 -28q0 -9 -1 -14l-16 -90q-4 -24 -15.5 -33.5t-34.5 -9.5h-264l-16 -89h211q20 0 28 -6t8 -21q0 -9 -1 -15l-16 -90q-5 -24 -15.5 -33.5t-34.5 -9.5h-211l-17 -96h273q36 0 36 -26q0 -4 -2 -16l-16 -91q-4 -23 -15 -32.5t-35 -9.5h-427q-37 0 -37 26 q0 4 2 16l110 626q5 23 15.5 32.5t34.5 9.5h419z"/>
<glyph glyph-name="F" horiz-adv-x="579" unicode="F" d="M584 710q37 0 37 -28q0 -9 -1 -14l-16 -90q-4 -24 -15.5 -33.5t-34.5 -9.5h-264l-21 -116h211q20 0 28 -6t8 -21q0 -9 -1 -15l-16 -90q-4 -24 -15 -33.5t-35 -9.5h-210l-36 -202q-5 -23 -15.5 -32.5t-34.5 -9.5h-113q-37 0 -37 26q0 4 2 16l110 626q5 23 15.5 32.5 t34.5 9.5h419z"/>
<glyph glyph-name="G" horiz-adv-x="675" unicode="G" d="M625 408q36 0 36 -27q0 -4 -2 -16l-25 -145q-19 -109 -109.5 -172t-236.5 -63q-127 0 -195.5 62.5t-68.5 169.5q0 31 6 62l32 181q22 130 112.5 197.5t239.5 67.5q218 0 252 -178q2 -12 2 -15q0 -28 -37 -39l-102 -31q-13 -4 -24 -4q-20 0 -26 31q-15 61 -94 61 q-58 0 -88 -25.5t-40 -78.5l-32 -182q-3 -16 -3 -30q0 -74 94 -74q51 0 83 18t38 50l3 20h-96q-20 0 -28 6t-8 21q0 9 1 15l13 75q5 24 15.5 33.5t34.5 9.5h253z"/>
<glyph glyph-name="H" horiz-adv-x="692" unicode="H" d="M671 711q36 0 36 -27q0 -4 -2 -16l-110 -626q-5 -23 -15.5 -32.5t-34.5 -9.5h-113q-37 0 -37 26q0 4 2 16l40 230h-193l-41 -230q-4 -23 -15 -32.5t-35 -9.5h-113q-20 0 -28 6t-8 21q0 9 1 15l111 626q5 24 15.5 33.5t34.5 9.5h113q37 0 37 -27q0 -4 -2 -16l-39 -221h193 l39 221q4 24 15.5 33.5t34.5 9.5h114z"/>
<glyph glyph-name="I" horiz-adv-x="300" unicode="I" d="M116 670q5 23 15 31.5t32 8.5h118q35 0 35 -25q0 -3 -2 -15l-111 -630q-4 -22 -14 -31t-33 -9h-118q-19 0 -26.5 6t-7.5 20q0 9 1 14z"/>
<glyph glyph-name="J" horiz-adv-x="582" unicode="J" d="M567 711q35 0 35 -27q0 -9 -1 -15l-78 -439q-22 -124 -97.5 -184.5t-210.5 -60.5q-203 0 -235 170q-2 12 -2 15q0 26 37 39l99 33q15 6 25 6q20 0 27 -30q14 -58 74 -58q73 0 88 86l75 423q5 24 15 33t34 9h115z"/>
<glyph glyph-name="K" horiz-adv-x="654" unicode="K" d="M600 49q3 -9 3 -17q0 -32 -38 -32h-108q-40 0 -56 8t-25 34l-56 179q-8 26 -20.5 38t-39.5 12h-17l-40 -229q-5 -23 -15.5 -32.5t-34.5 -9.5h-113q-37 0 -37 26q0 4 2 16l110 626q5 23 15.5 32.5t34.5 9.5h113q37 0 37 -26q0 -4 -2 -16l-39 -222h13h9l183 227 q19 24 34 30.5t52 6.5h116q28 0 28 -18q0 -12 -11 -26l-237 -294q33 -23 51 -73z"/>
<glyph glyph-name="L" horiz-adv-x="542" unicode="L" d="M278 710q37 0 37 -28q0 -9 -1 -14l-87 -493h240q37 0 37 -26q0 -4 -2 -16l-16 -91q-5 -23 -15.5 -32.5t-34.5 -9.5h-396q-20 0 -28 6t-8 21q0 9 1 15l111 626q4 23 14.5 32.5t34.5 9.5h113z"/>
<glyph glyph-name="M" horiz-adv-x="827" unicode="M" d="M805 711q37 0 37 -26q0 -4 -2 -16l-110 -628q-5 -23 -15.5 -32t-34.5 -9h-109q-37 0 -37 26q0 3 2 15l25 143q18 107 89 262h-10q-41 -84 -96 -165l-76 -113q-20 -29 -53 -29h-65q-20 0 -28.5 6t-14.5 23l-38 113q-22 60 -34 165h-9q6 -85 6 -134q0 -66 -12 -129 l-24 -142q-4 -23 -15.5 -32t-34.5 -9h-106q-20 0 -28 5.5t-8 20.5q0 9 1 15l111 628q4 24 15 33t35 9h93q26 0 37 -6t17 -25l107 -328l222 327q13 20 25 26t37 6h101z"/>
<glyph glyph-name="N" horiz-adv-x="702" unicode="N" d="M679 710q37 0 37 -28q0 -9 -1 -14l-111 -626q-4 -23 -15 -32.5t-35 -9.5h-110q-27 0 -37 20l-111 237q-22 48 -32.5 91.5t-19.5 114.5h-8q3 -55 3 -97q0 -76 -15 -161l-29 -163q-5 -23 -15.5 -32.5t-34.5 -9.5h-105q-37 0 -37 26q0 4 2 16l110 626q5 23 15.5 32.5 t34.5 9.5h114q29 0 39 -20l118 -256q25 -53 52 -183h8q-12 96 -12 136q0 47 12 117l29 164q4 23 14.5 32.5t34.5 9.5h105z"/>
<glyph glyph-name="O" horiz-adv-x="682" unicode="O" d="M478 454q2 16 2 22q0 74 -94 74q-110 0 -127 -96l-35 -198q-2 -16 -2 -22q0 -74 95 -74q109 0 126 96zM61 455q23 130 113.5 200t238.5 70q127 0 196 -62t69 -168q0 -31 -6 -62l-31 -181q-23 -129 -113.5 -198t-238.5 -69q-128 0 -196.5 61.5t-68.5 167.5q0 34 5 60z"/>
<glyph glyph-name="P" horiz-adv-x="648" unicode="P" d="M362 388q35 0 58.5 20t29.5 53q2 12 2 17q0 27 -16.5 42t-47.5 15h-98l-26 -147h98zM441 710q101 0 158.5 -56t57.5 -151q0 -25 -5 -58q-20 -116 -98.5 -174t-198.5 -58h-122l-30 -171q-5 -23 -15.5 -32.5t-34.5 -9.5h-113q-37 0 -37 26q0 4 2 16l110 626q5 23 15.5 32.5 t34.5 9.5h276z"/>
<glyph glyph-name="Q" horiz-adv-x="696" unicode="Q" d="M386 550q-110 0 -127 -96l-35 -198q-2 -16 -2 -22q0 -74 95 -74q109 0 126 96l35 198q2 16 2 22q0 74 -94 74zM61 455q23 130 113.5 200t238.5 70q127 0 196 -62t69 -168q0 -31 -6 -62l-31 -181q-17 -95 -71 -157l40 -60q10 -13 10 -25q0 -16 -25 -35l-84 -58 q-19 -14 -31 -14q-15 0 -27 19l-50 76q-49 -13 -114 -13q-128 0 -196.5 61.5t-68.5 167.5q0 34 5 60z"/>
<glyph glyph-name="R" horiz-adv-x="661" unicode="R" d="M451 470q2 12 2 17q0 48 -56 48h-107l-24 -132h108q31 0 51.5 18t25.5 49zM450 710q99 0 155 -51t56 -141q0 -32 -5 -57q-24 -137 -143 -198q9 -18 19 -43l60 -171q3 -9 3 -17q0 -32 -38 -32h-108q-39 0 -57.5 11t-26.5 37l-40 137q-9 29 -20.5 40t-41.5 11h-26l-34 -194 q-5 -23 -15.5 -32.5t-34.5 -9.5h-113q-37 0 -37 26q0 4 2 16l110 626q5 23 15.5 32.5t34.5 9.5h285z"/>
<glyph glyph-name="S" horiz-adv-x="642" unicode="S" d="M66 518q18 100 101.5 153.5t225.5 53.5q107 0 165 -37.5t82 -110.5q4 -11 4 -20q0 -11 -7.5 -17.5t-26.5 -14.5l-99 -39q-15 -6 -24 -6q-16 0 -26 27q-18 52 -92 52q-95 0 -104 -52q0 -1 -0.5 -3.5t-0.5 -3.5q0 -25 30 -36t92 -18q227 -31 227 -200q0 -21 -5 -51 q-39 -210 -337 -210q-114 0 -187 40t-88 115q-1 5 -1 13q0 29 38 42l100 34q18 5 26 5q19 0 29 -27q18 -53 103 -53q107 0 118 57q0 1 0.5 3.5t0.5 3.5q0 23 -27.5 34t-80.5 18q-37 5 -65 11.5t-63.5 21t-58 34.5t-38.5 54t-16 77q0 20 5 50z"/>
<glyph glyph-name="T" horiz-adv-x="602" unicode="T" d="M620 710q37 0 37 -26q0 -4 -2 -16l-16 -90q-4 -24 -15 -33.5t-35 -9.5h-148l-87 -493q-5 -23 -15.5 -32.5t-34.5 -9.5h-113q-37 0 -37 26q0 4 2 16l87 493h-149q-36 0 -36 28q0 9 1 15l16 90q5 23 15.5 32.5t34.5 9.5h495z"/>
<glyph glyph-name="U" horiz-adv-x="692" unicode="U" d="M233 252q-2 -16 -2 -21q0 -71 90 -71q103 0 119 92l74 416q4 23 15 32.5t34 9.5h114q37 0 37 -27q0 -3 -2 -15l-75 -423q-23 -127 -109.5 -193.5t-233.5 -66.5q-126 0 -193 63t-67 167q0 30 6 63l69 390q5 23 15.5 32.5t34.5 9.5h113q37 0 37 -26q0 -4 -2 -16z"/>
<glyph glyph-name="V" horiz-adv-x="680" unicode="V" d="M720 710q28 0 28 -17q0 -8 -8 -24l-332 -634q-11 -21 -23 -28t-35 -7h-126q-22 0 -32 7t-14 26l-109 636q-1 4 -1 12q0 29 37 29h112q36 0 50 -9t16 -33l35 -342q3 -30 3 -60l-3 -69h9q15 69 42 128l157 343q11 24 26.5 33t51.5 9h116z"/>
<glyph glyph-name="W" horiz-adv-x="935" unicode="W" d="M967 710q27 0 27 -16q0 -8 -7 -25l-264 -634q-9 -21 -22 -28t-36 -7h-124q-22 0 -33.5 7t-12.5 26l-12 233v27q0 82 13 153h-9q-20 -93 -53 -180l-94 -231q-9 -21 -22.5 -28t-36.5 -7h-120q-44 0 -46 33l-40 636v10q0 17 7.5 24t26.5 7h121q28 0 39 -7t12 -30l-1 -262 q-2 -85 -18 -177h7q20 100 50 177l108 262q9 23 23 30t39 7h107q26 0 37.5 -7.5t12.5 -29.5l14 -262q0 -3 0.5 -11t0.5 -12q0 -50 -12 -154h8q13 74 45 177l89 262q8 22 21.5 29.5t41.5 7.5h113z"/>
<glyph glyph-name="X" horiz-adv-x="662" unicode="X" d="M697 710q24 0 24 -16q0 -10 -11 -24l-253 -308l153 -320q4 -8 4 -17q0 -25 -33 -25h-127q-40 0 -53.5 6t-23.5 31l-66 164l-120 -164q-18 -24 -34 -30.5t-56 -6.5h-124q-27 0 -27 16q0 10 13 26l262 320l-142 308q-4 8 -4 16q0 24 31 24h119q39 0 53 -6t24 -29l63 -154 l116 154q18 24 32.5 29.5t50.5 5.5h129z"/>
<glyph glyph-name="Y" horiz-adv-x="673" unicode="Y" d="M717 710q26 0 26 -16q0 -11 -12 -26l-300 -393l-40 -233q-5 -23 -16 -32.5t-34 -9.5h-114q-36 0 -36 26q0 4 2 16l40 233l-160 393q-4 8 -4 18q0 24 32 24h116q40 0 54 -6t23 -31l71 -204l147 204q17 25 33 31t55 6h117z"/>
<glyph glyph-name="Z" horiz-adv-x="609" unicode="Z" d="M608 710q37 0 37 -26q0 -4 -2 -16l-10 -60q-5 -24 -22 -44l-349 -389h257q37 0 37 -26q0 -4 -2 -16l-16 -91q-5 -23 -15.5 -32.5t-34.5 -9.5h-474q-36 0 -36 26q0 4 2 16l10 61q4 24 21 42l349 390h-246q-37 0 -37 27q0 4 2 16l16 90q4 23 15 32.5t34 9.5h464z"/>
<glyph glyph-name="bracketleft" horiz-adv-x="354" unicode="[" d="M398 856q19 0 26 -3.5t7 -15.5q0 -4 -2 -18l-12 -69q-4 -24 -12.5 -30.5t-31.5 -6.5h-72l-126 -715h71q20 0 27 -4t7 -16q0 -3 -2 -17l-13 -71q-4 -24 -12 -30.5t-32 -6.5h-212q-19 0 -26 4t-7 16q0 4 2 18l163 927q5 24 13 31t32 7h212z"/>
<glyph glyph-name="backslash" horiz-adv-x="487" unicode="\" d="M88 675q-1 4 -1 11q0 24 32 24h105q22 0 31.5 -7t13.5 -28l138 -700q1 -5 1 -12q0 -23 -32 -23h-104q-22 0 -32 7.5t-14 27.5z"/>
<glyph glyph-name="bracketright" horiz-adv-x="354" unicode="]" d="M363 856q19 0 26.5 -4.5t7.5 -16.5q0 -3 -2 -17l-163 -927q-4 -24 -13 -31t-33 -7h-211q-19 0 -26 3.5t-7 15.5q0 4 2 18l13 71q4 24 11.5 30.5t31.5 6.5h72l126 715h-71q-19 0 -26 3.5t-7 15.5q0 4 2 18l12 69q4 24 12 30.5t32 6.5h211z"/>
<glyph glyph-name="asciicircum" horiz-adv-x="636" unicode="^" d="M441 810q24 0 34 -6.5t24 -27.5l145 -211q9 -13 9 -24q0 -21 -37 -21h-106q-35 0 -48 6t-27 28l-55 94h-3l-91 -94q-21 -22 -37.5 -28t-51.5 -6h-97q-32 0 -32 16q0 11 18 29l220 211q21 20 34.5 27t36.5 7h64z"/>
<glyph glyph-name="underscore" horiz-adv-x="506" unicode="_" d="M397 0q20 0 28 -6t8 -21q0 -9 -1 -15l-15 -85q-4 -24 -15 -33t-35 -9h-394q-37 0 -37 26q0 4 2 16l14 85q5 23 15.5 32.5t34.5 9.5h395z"/>
<glyph glyph-name="grave" horiz-adv-x="257" unicode="`" d="M144 732q16 15 33 15q13 0 33 -13l125 -84q10 -6 10 -14t-15 -24l-35 -33q-8 -9 -20 -9q-9 0 -26 6l-170 60q-15 6 -15 15q0 8 17 25z"/>
<glyph glyph-name="a" horiz-adv-x="545" unicode="a" d="M327 369q-15 4 -39 4q-33 0 -50 -12.5t-22 -42.5l-22 -122q-1 -4 -1 -11q0 -39 49 -39q32 0 52 5l37 211q2 6 -4 7zM31 324q19 109 87.5 160t192.5 51t192 -34q18 -9 24.5 -16.5t6.5 -19.5q0 -9 -3 -22l-68 -387q-4 -21 -13.5 -31t-32.5 -16q-99 -24 -217 -24 q-96 0 -144.5 46.5t-48.5 128.5q0 23 5 56z"/>
<glyph glyph-name="b" horiz-adv-x="548" unicode="b" d="M339 326q1 4 1 11q0 38 -49 38q-29 0 -52 -7l-37 -211q0 -4 2 -5q14 -5 41 -5q62 0 72 55zM266 739q18 0 25.5 -5.5t7.5 -18.5q0 -9 -1 -14l-30 -172q42 6 68 6q96 0 143.5 -45t47.5 -125q0 -32 -5 -57l-19 -108q-19 -110 -88.5 -162.5t-192.5 -52.5q-120 0 -192 34 q-31 16 -31 37q0 8 3 22l109 623q4 22 14 30t32 8h109z"/>
<glyph glyph-name="c" horiz-adv-x="517" unicode="c" d="M31 324q38 211 279 211q89 0 138.5 -38.5t60.5 -101.5q1 -5 1 -14q0 -28 -36 -39l-89 -30q-15 -5 -23 -5q-21 0 -27 32q-9 40 -55 40q-53 0 -64 -55l-22 -129q-1 -5 -1 -14q0 -40 44 -40q42 0 67 41q16 30 36 30q8 0 23 -5l91 -29q26 -9 26 -27q0 -12 -10 -29 q-81 -137 -259 -137q-103 0 -153.5 45.5t-50.5 127.5q0 23 5 56z"/>
<glyph glyph-name="d" horiz-adv-x="547" unicode="d" d="M332 369q-23 5 -43 5q-63 0 -73 -55l-21 -123q-1 -4 -1 -12q0 -37 49 -37q28 0 48 4q2 1 4 5zM32 328q19 108 84 157.5t178 49.5q7 0 67 -3l30 170q4 21 14 29.5t31 8.5h110q32 0 32 -24q0 -9 -1 -14l-110 -625q-4 -25 -14 -35.5t-37 -21.5q-95 -35 -212 -35 q-98 0 -147 47.5t-49 129.5q0 32 5 57z"/>
<glyph glyph-name="e" horiz-adv-x="542" unicode="e" d="M351 362q0 1 0.5 3.5t0.5 3.5q0 34 -56 34q-63 0 -76 -62l-3 -11q37 -5 69 -5q59 0 65 37zM31 324q18 101 92 156t193 55q103 0 161 -40.5t58 -116.5q0 -8 -2 -28q-11 -69 -69 -107t-154 -38q-52 0 -113 6l-4 -21q-2 -12 -2 -17q0 -47 56 -47q53 0 87 36q16 19 31 19 q11 0 27 -9l65 -33q22 -11 22 -27q0 -14 -13 -31q-71 -96 -243 -96q-110 0 -163 48.5t-53 131.5q0 23 5 55z"/>
<glyph glyph-name="f" horiz-adv-x="387" unicode="f" d="M417 740q34 0 34 -24q0 -3 -2 -15l-13 -71q-4 -23 -14 -31.5t-32 -8.5q-37 0 -55.5 -16t-23.5 -50l-1 -4h69q18 0 25.5 -5.5t7.5 -18.5q0 -9 -1 -14l-14 -75q-4 -22 -13.5 -30.5t-31.5 -8.5h-69l-58 -330q-4 -21 -14 -29.5t-32 -8.5h-108q-33 0 -33 24q0 9 1 14l58 330 h-32q-33 0 -33 25q0 9 1 14l13 75q4 21 14 29.5t31 8.5h33v2q21 114 87 165.5t181 52.5h25z"/>
<glyph glyph-name="g" horiz-adv-x="548" unicode="g" d="M329 369q-13 4 -40 4q-63 0 -73 -55l-16 -93q-1 -5 -1 -13q0 -37 49 -37q1 0 51 5l32 184q2 3 -2 5zM31 326q19 108 88 158.5t193 50.5q125 0 191 -34q18 -8 24.5 -16t6.5 -21q0 -5 -2 -21l-80 -452q-38 -224 -274 -224q-158 0 -205 104q-5 10 -5 20q0 24 34 38l85 39 q15 7 27 7q16 0 25 -17q21 -36 59 -36q55 0 66 58l7 40q-42 -6 -67 -6q-96 0 -144.5 46t-48.5 126q0 28 6 58z"/>
<glyph glyph-name="h" horiz-adv-x="558" unicode="h" d="M267 740q18 0 25.5 -5.5t7.5 -18.5q0 -9 -1 -14l-31 -171q36 4 69 4q192 0 192 -163q0 -31 -5 -56l-49 -278q-4 -21 -14 -29.5t-31 -8.5h-110q-32 0 -32 24q0 9 1 14l48 274q2 12 2 15q0 40 -52 40q-32 0 -48 -4l-57 -325q-4 -21 -14 -29.5t-32 -8.5h-109 q-18 0 -25.5 5.5t-7.5 18.5q0 9 1 14l117 664q4 21 14 29.5t32 8.5h109z"/>
<glyph glyph-name="i" horiz-adv-x="269" unicode="i" d="M228 520q18 0 25.5 -5.5t7.5 -18.5q0 -9 -1 -14l-78 -444q-4 -21 -14 -29.5t-32 -8.5h-109q-18 0 -25.5 5.5t-7.5 18.5q0 9 1 14l78 444q4 21 14 29.5t32 8.5h109zM234 722q35 0 49.5 -10.5t14.5 -35.5q0 -12 -3 -28l-2 -11q-8 -42 -26 -58t-61 -16h-50q-35 0 -49.5 10.5 t-14.5 35.5q0 11 3 28l1 11q8 42 27 58t61 16h50z"/>
<glyph glyph-name="j" horiz-adv-x="270" unicode="j" d="M227 520q33 0 33 -24q0 -9 -1 -14l-86 -492q-21 -113 -93.5 -166.5t-199.5 -53.5q-35 0 -35 24q0 3 2 15l15 85q4 22 14 31t32 9q69 0 80 68l85 480q4 21 14 29.5t32 8.5h108zM234 722q34 0 48.5 -10t14.5 -35q0 -13 -3 -29l-1 -11q-8 -42 -26.5 -58t-61.5 -16h-50 q-34 0 -49 10.5t-15 35.5q0 11 3 28l2 11q8 42 26.5 58t61.5 16h50z"/>
<glyph glyph-name="k" horiz-adv-x="553" unicode="k" d="M489 51q5 -15 5 -23q0 -28 -46 -28h-91q-35 0 -48 7t-18 31l-24 123q-7 30 -40 30h-19l-27 -152q-4 -22 -13.5 -30.5t-31.5 -8.5h-109q-18 0 -25.5 5.5t-7.5 18.5q0 9 1 15l117 662q4 22 14 30.5t32 8.5h109q32 0 32 -24q0 -9 -1 -15l-63 -361h15h6l109 144q16 22 31 29 t47 7h89q37 0 37 -19q0 -11 -14 -30l-147 -194q16 -17 24 -45z"/>
<glyph glyph-name="l" horiz-adv-x="272" unicode="l" d="M183 38q-4 -21 -14 -29.5t-32 -8.5h-109q-18 0 -25.5 5.5t-7.5 18.5q0 9 1 14l117 664q4 21 14 29.5t32 8.5h109q18 0 25.5 -5.5t7.5 -18.5q0 -9 -1 -14z"/>
<glyph glyph-name="m" horiz-adv-x="814" unicode="m" d="M444 508q79 27 158 27q93 0 138.5 -41.5t45.5 -119.5q0 -28 -6 -59l-49 -277q-4 -21 -14 -29.5t-31 -8.5h-110q-32 0 -32 24q0 9 1 14l48 276q2 12 2 18q0 35 -43 35q-20 0 -43 -5q0 -19 -5 -46l-49 -278q-4 -21 -13.5 -29.5t-31.5 -8.5h-110q-32 0 -32 24q0 9 1 14 l49 276q1 6 1 17q0 36 -43 36q-17 0 -35 -3q-3 -1 -5 -6l-56 -320q-4 -21 -14 -29.5t-32 -8.5h-109q-18 0 -25.5 5.5t-7.5 18.5q0 9 1 14l71 400q5 25 15 37.5t37 22.5q100 37 210 37q74 0 118 -27z"/>
<glyph glyph-name="n" d="M116 498q100 37 219 37q192 0 192 -164q0 -31 -5 -56l-49 -277q-4 -21 -14 -29.5t-31 -8.5h-110q-32 0 -32 24q0 9 1 14l48 274q2 12 2 16q0 39 -52 39q-26 0 -45 -4q-2 -1 -4 -4l-56 -321q-4 -21 -14 -29.5t-32 -8.5h-109q-18 0 -25.5 5.5t-7.5 18.5q0 9 1 14l71 400 q5 25 15 37.5t37 22.5z" unicode="n"/>
<glyph glyph-name="o" horiz-adv-x="550" unicode="o" d="M341 321q1 5 1 14q0 40 -54 40q-61 0 -72 -54l-21 -122q-1 -5 -1 -14q0 -39 53 -39q62 0 73 53zM30 323q19 103 91.5 157.5t193.5 54.5q106 0 160.5 -47t54.5 -130q0 -21 -5 -49l-19 -112q-19 -103 -91.5 -157.5t-194.5 -54.5q-104 0 -158.5 47t-54.5 131q0 25 4 48z"/>
<glyph glyph-name="p" horiz-adv-x="547" unicode="p" d="M337 324q1 4 1 11q0 38 -49 38q-30 0 -47 -5q-3 -1 -5 -6l-37 -211q20 -5 43 -5q62 0 72 55zM116 501q92 34 214 34q98 0 147 -44.5t49 -124.5q0 -27 -6 -57l-19 -109q-38 -215 -270 -215q-13 0 -60 5l-30 -171q-4 -22 -13.5 -30t-31.5 -8h-110q-33 0 -33 23q0 3 2 15 l110 624q5 25 14.5 36.5t36.5 21.5z"/>
<glyph glyph-name="q" horiz-adv-x="548" unicode="q" d="M195 196q-1 -4 -1 -11q0 -39 49 -39q9 0 19.5 1t20 2.5t12.5 1.5l37 211q2 5 -4 7q-15 4 -39 4q-62 0 -72 -55zM312 535q124 0 192 -34q18 -9 24.5 -16.5t6.5 -19.5q0 -9 -3 -22l-109 -624q-4 -22 -14 -30t-32 -8h-109q-18 0 -25.5 5.5t-7.5 18.5q0 9 1 14l30 172 q-42 -6 -68 -6q-96 0 -143.5 44.5t-47.5 124.5q0 32 5 57l19 109q38 215 281 215z"/>
<glyph glyph-name="r" horiz-adv-x="362" unicode="r" d="M326 535h31q18 0 25.5 -5.5t7.5 -18.5q0 -9 -1 -14l-15 -85q-4 -22 -13.5 -30.5t-31.5 -8.5h-38q-27 0 -47 -4q-4 0 -6 -6l-57 -325q-4 -21 -14 -29.5t-32 -8.5h-109q-18 0 -25.5 5.5t-7.5 18.5q0 9 1 14l72 405q5 26 15 38.5t37 21.5q78 28 208 32z"/>
<glyph glyph-name="s" horiz-adv-x="516" unicode="s" d="M39 375q28 160 250 160q91 0 139 -27.5t69 -79.5q4 -9 4 -19q0 -21 -34 -36l-76 -32q-15 -7 -25 -7q-3 0 -5 0.5t-4 1.5t-3.5 2t-3.5 3.5t-3 4t-3 5t-3 4.5q-21 27 -69 27q-36 0 -50.5 -6t-16.5 -21q0 -1 -0.5 -3t-0.5 -3q0 -12 16 -17.5t61 -9.5q101 -8 148 -39.5 t47 -92.5q0 -11 -4 -37q-14 -81 -82 -124.5t-182 -43.5q-192 0 -218 119q-2 10 -2 13q0 27 35 39l85 28q17 5 24 5q14 0 26 -20q14 -32 69 -32q72 0 78 31q0 1 0.5 3.5t0.5 3.5q0 15 -18 20.5t-72 9.5q-181 12 -181 133q0 11 4 37z"/>
<glyph glyph-name="t" horiz-adv-x="399" unicode="t" d="M295 640q33 0 33 -25q0 -8 -1 -13l-15 -82h70q32 0 32 -24q0 -9 -1 -14l-13 -75q-4 -22 -14 -30.5t-31 -8.5h-69l-27 -147q-2 -10 -2 -25q0 -25 13.5 -35t44.5 -10q19 0 26.5 -5.5t7.5 -19.5q0 -9 -1 -14l-16 -86q-4 -22 -13.5 -30.5t-32.5 -8.5h-13q-107 0 -158 35.5 t-51 118.5q0 23 7 67l28 160h-43q-33 0 -33 25q0 9 1 14l14 75q4 21 13.5 29.5t30.5 8.5h44l14 82q4 21 14 29.5t31 8.5h110z"/>
<glyph glyph-name="u" d="M516 520q18 0 25.5 -5.5t7.5 -18.5q0 -9 -1 -14l-71 -400q-5 -25 -15 -37.5t-37 -22.5q-100 -37 -219 -37q-96 0 -143 44t-47 124q0 33 5 58l47 271q4 21 14 29.5t32 8.5h109q18 0 25.5 -5.5t7.5 -18.5q0 -9 -1 -14l-48 -274q-2 -12 -2 -17q0 -38 51 -38q21 0 41 4 q7 1 9 9l55 316q4 21 14 29.5t32 8.5h109z" unicode="u"/>
<glyph glyph-name="v" horiz-adv-x="547" unicode="v" d="M546 520q34 0 34 -15q0 -10 -10 -29l-238 -442q-11 -19 -24 -26.5t-34 -7.5h-110q-22 0 -32.5 7.5t-14.5 26.5l-75 442q-2 14 -2 17q0 15 9.5 21t31.5 6h94q32 0 43 -7.5t12 -30.5l22 -174q1 -10 1 -33l-6 -94h8q17 75 40 127l80 173q12 25 23.5 32t43.5 7h104z"/>
<glyph glyph-name="w" horiz-adv-x="772" unicode="w" d="M766 520q33 0 33 -16q0 -8 -9 -28l-191 -442q-16 -34 -58 -34h-103q-46 0 -47 34l-9 134v19l7 123h-7q-21 -82 -46 -142l-57 -134q-14 -34 -58 -34h-92q-44 0 -47 34l-40 442q-1 5 -1 15q0 16 9 22.5t32 6.5h92q35 0 46 -7t11 -31l1 -133q0 -23 -4 -62t-8 -67l-4 -27h8 q23 103 43 156l54 132q9 24 22.5 31.5t48.5 7.5h64q35 0 45.5 -7t10.5 -31l8 -133v-12q0 -25 -3 -61t-6 -60l-3 -23h8q20 98 40 156l47 132q8 24 22 31.5t49 7.5h92z"/>
<glyph glyph-name="x" horiz-adv-x="552" unicode="x" d="M541 520q34 0 34 -16q0 -10 -16 -29l-172 -207l105 -223q7 -14 7 -24q0 -21 -43 -21h-96q-33 0 -44 5.5t-20 27.5l-44 114l-81 -114q-15 -22 -29 -27.5t-47 -5.5h-104q-38 0 -38 15q0 10 17 30l185 222l-102 208q-6 12 -6 21q0 24 44 24h93q32 0 44.5 -6t20.5 -27l39 -97 l73 97q15 22 28 27.5t44 5.5h108z"/>
<glyph glyph-name="y" horiz-adv-x="558" unicode="y" d="M516 520q32 0 32 -24q0 -9 -1 -14l-85 -487q-41 -225 -280 -225q-82 0 -129 25t-70 76q-5 10 -5 21q0 23 33 37l85 39q18 8 27 8q14 0 26 -21q19 -33 58 -33q55 0 66 58l6 39q-27 -4 -68 -4q-95 0 -142.5 45.5t-47.5 126.5q0 33 5 58l42 237q4 21 13.5 29.5t31.5 8.5h110 q32 0 32 -24q0 -9 -1 -14l-43 -244q-2 -12 -2 -16q0 -39 53 -39q27 0 47 4l52 295q4 21 14 29.5t31 8.5h110z"/>
<glyph glyph-name="z" horiz-adv-x="492" unicode="z" d="M404 158q32 0 32 -23q0 -9 -1 -14l-14 -83q-4 -21 -13.5 -29.5t-31.5 -8.5h-366q-18 0 -25.5 5.5t-7.5 18.5q0 9 1 14l14 78q4 24 22 40l221 206h-156q-32 0 -32 23q0 9 1 14l14 83q4 21 13.5 29.5t31.5 8.5h356q32 0 32 -24q0 -9 -1 -14l-14 -78q-4 -24 -28 -46 l-225 -200h177z"/>
<glyph glyph-name="braceleft" horiz-adv-x="411" unicode="{" d="M453 856q32 0 32 -24q0 -9 -1 -14l-15 -84q-4 -22 -13.5 -30t-31.5 -8h-48q-23 0 -27 -23l-33 -185q-16 -90 -100 -136q56 -26 56 -95q0 -22 -4 -42l-32 -179q-1 -10 4.5 -16.5t14.5 -6.5h50q18 0 25 -5.5t7 -19.5q0 -8 -1 -13l-15 -84q-4 -21 -14 -29.5t-31 -8.5h-96 q-71 0 -102 23t-31 74q0 23 4 46l33 183q3 15 3 28q0 56 -51 56h-6q-27 0 -27 24q0 4 2 14l18 101q6 38 38 38h6q63 0 77 84l34 188q13 76 53 110t123 34h99z"/>
<glyph glyph-name="bar" horiz-adv-x="280" unicode="|" d="M290 856q32 0 32 -24q0 -9 -1 -14l-163 -927q-4 -21 -13.5 -29.5t-31.5 -8.5h-104q-32 0 -32 24q0 9 1 14l163 927q4 21 13.5 29.5t31.5 8.5h104z"/>
<glyph glyph-name="braceright" horiz-adv-x="410" unicode="}" d="M252 856q69 0 100 -23.5t31 -74.5q0 -18 -5 -46l-34 -188q-3 -14 -3 -28q0 -56 51 -56h7q26 0 26 -24q0 -9 -1 -14l-18 -101q-7 -38 -39 -38h-6q-61 0 -77 -84l-33 -183q-13 -76 -53.5 -109.5t-125.5 -33.5h-96q-32 0 -32 24q0 9 1 14l15 84q4 21 14 29.5t31 8.5h49 q23 0 27 23l31 179q19 105 101 137q-55 38 -55 105q0 14 3 31l32 185q0 1 0.5 2.5t0.5 2.5q0 18 -21 18h-48q-18 0 -25 5t-7 18q0 9 1 15l15 84q4 21 13.5 29.5t30.5 8.5h99z"/>
<glyph glyph-name="asciitilde" horiz-adv-x="570" unicode="~" d="M61 369q64 51 141 51q44 0 90 -17t69 -17q31 0 59 20q18 14 30 14q10 0 25 -16l53 -59q12 -14 12 -26q0 -17 -23 -34q-67 -51 -141 -51q-45 0 -90.5 17t-68.5 17q-31 0 -59 -19q-20 -15 -30 -15q-11 0 -25 17l-53 59q-12 14 -12 26q0 16 23 33z"/>
<glyph glyph-name="exclamdown" horiz-adv-x="276" unicode="¡" d="M-11 -220q-34 0 -34 24q0 4 2 14l93 430q5 22 14 30t30 8h82q18 0 25 -5.5t7 -19.5q0 -8 -1 -13l-60 -430q-3 -21 -13 -29.5t-32 -8.5h-113zM119 336q-37 0 -52.5 11t-15.5 39q0 12 3 29l6 34q8 45 28 61.5t65 16.5h50q37 0 52.5 -11t15.5 -38q0 -12 -3 -29l-6 -34 q-7 -45 -27.5 -62t-65.5 -17h-50z"/>
<glyph glyph-name="cent" horiz-adv-x="544" unicode="¢" d="M467 178q26 -9 26 -26q0 -12 -10 -29q-60 -100 -169 -127l-7 -41q-4 -22 -13.5 -30t-31.5 -8h-92q-33 0 -33 23q0 3 2 15l6 37q-126 27 -126 166q0 34 5 59l19 109q15 84 62.5 132.5t133.5 67.5l8 45q4 22 14 30t32 8h91q33 0 33 -23q0 -3 -2 -15l-8 -46q93 -25 111 -134 q1 -6 1 -15q0 -14 -7.5 -22t-26.5 -14l-91 -29q-15 -5 -23 -5q-21 0 -27 32q-5 22 -17 31.5t-35 9.5q-53 0 -63 -54l-23 -130q-1 -5 -1 -14q0 -40 45 -40q43 0 66 41q17 30 37 30q7 0 22 -5z"/>
<glyph glyph-name="sterling" horiz-adv-x="671" unicode="£" d="M144 509q17 97 96 156.5t201 59.5q201 0 240 -171q2 -10 2 -15q0 -26 -37 -39l-104 -36q-15 -5 -22 -5q-17 0 -27 32t-27.5 45.5t-47.5 13.5t-50.5 -17t-25.5 -45l-15 -89h168q36 0 36 -28q0 -9 -1 -15l-11 -61q-5 -24 -15.5 -33.5t-34.5 -9.5h-173l-3 -18 q-12 -50 -57 -78l1 -6q70 19 156 19h180q37 0 37 -27q0 -4 -2 -16l-15 -84q-5 -23 -15.5 -32.5t-34.5 -9.5h-520q-36 0 -36 26q0 4 2 16l15 85q5 34 27 38l5 1q43 12 56 65l4 21h-28q-36 0 -36 26q0 5 2 17l10 61q5 24 15.5 33.5t34.5 9.5h31z"/>
<glyph glyph-name="currency" horiz-adv-x="646" unicode="¤" d="M412 337q1 4 1 13q0 29 -19 48.5t-49 19.5q-34 0 -62 -23.5t-35 -57.5q-1 -4 -1 -13q0 -30 19 -49.5t50 -19.5q34 0 61.5 23.5t34.5 58.5zM272 558q49 20 100 20q48 0 90 -20l63 54q18 15 30 15t24 -15l60 -72q11 -13 11 -23q0 -13 -21 -31l-62 -53q8 -30 8 -59 q0 -19 -3 -37q-9 -49 -37 -96l44 -53q11 -13 11 -23q0 -13 -20 -31l-84 -72q-18 -15 -30 -15t-24 15l-45 54q-48 -20 -98 -20q-51 0 -91 20l-64 -54q-18 -15 -30 -15t-24 15l-60 72q-11 14 -11 24q0 14 20 30l65 55q-7 25 -7 55q0 20 3 39q7 46 35 94l-46 55q-10 11 -10 23 q0 14 20 31l84 72q18 15 30 15t24 -15z"/>
<glyph glyph-name="yen" horiz-adv-x="709" unicode="¥" d="M729 710q26 0 26 -16q0 -11 -12 -26l-225 -274h52q32 0 32 -24q0 -9 -1 -14l-9 -48q-4 -21 -13.5 -29.5t-30.5 -8.5h-106l-6 -35h106q32 0 32 -24q0 -9 -1 -14l-9 -48q-3 -21 -13 -29.5t-31 -8.5h-102l-12 -69q-4 -23 -15 -32.5t-35 -9.5h-113q-20 0 -28 6t-8 21 q0 9 1 15l12 69h-102q-32 0 -32 24q0 9 1 14l9 48q3 21 13 29.5t31 8.5h106l7 35h-107q-32 0 -32 24q0 9 1 14l8 48q4 21 14 29.5t30 8.5h53l-128 274q-5 10 -5 18q0 24 33 24h113q40 0 54 -6t23 -31l71 -204l146 204q17 25 33 31t55 6h114z"/>
<glyph glyph-name="brokenbar" horiz-adv-x="285" unicode="¦" d="M193 296q18 0 25.5 -5.5t7.5 -18.5q0 -8 -1 -13l-65 -367q-4 -21 -13.5 -29.5t-31.5 -8.5h-104q-32 0 -32 24q0 9 1 14l65 367q4 21 13.5 29t30.5 8h104zM292 856q32 0 32 -24q0 -9 -1 -14l-65 -367q-3 -21 -12.5 -29t-31.5 -8h-104q-32 0 -32 23q0 9 1 14l64 367 q4 21 14 29.5t31 8.5h104z"/>
<glyph glyph-name="section" horiz-adv-x="624" unicode="§" d="M304 313q-13 1 -30 6q-40 -30 -45 -67q0 -2 -0.5 -5t-0.5 -4q0 -26 21 -38t61 -17l28 -3q36 29 40 65v7q0 40 -74 56zM93 528q17 93 93.5 145t208.5 52q95 0 145.5 -37t72.5 -109q4 -11 4 -20q0 -23 -36 -37l-77 -30q-15 -7 -26 -7q-18 0 -28 29q-18 51 -84 51 q-72 0 -79 -48v-6q0 -18 19 -27.5t57 -17.5q5 -1 26.5 -5.5t30 -6.5t28.5 -7.5t29.5 -9.5t26.5 -12t26 -15.5t20.5 -19t17.5 -24t10 -29t4 -35.5q0 -17 -3 -38q-15 -82 -82 -131q42 -35 42 -106q0 -20 -5 -48q-18 -95 -94 -146.5t-210 -51.5q-107 0 -175.5 38.5t-83.5 113.5 q-1 4 -1 12q0 32 41 45l84 31q13 5 25 5q19 0 28 -33q13 -53 95 -53q84 0 93 51q0 1 0.5 3t0.5 3q0 16 -17.5 24.5t-52.5 14.5q-9 2 -41 7t-48 8.5t-44.5 11.5t-44.5 18.5t-34 26t-26 38.5t-8 51q0 10 4 38q16 92 105 141q-42 34 -42 103q0 19 5 49z"/>
<glyph glyph-name="dieresis" horiz-adv-x="439" unicode="¨" d="M411 733q34 0 48.5 -10t14.5 -34q0 -12 -3 -27l-2 -13q-8 -40 -26 -56t-59 -16h-7q-34 0 -49 10.5t-15 35.5q0 11 3 26l2 13q7 40 26 55.5t60 15.5h7zM196 733q34 0 49 -10t15 -34q0 -12 -3 -27l-2 -13q-8 -40 -26.5 -56t-59.5 -16h-7q-34 0 -48.5 10t-14.5 35q0 12 3 27 l2 13q8 41 25.5 56t59.5 15h7z"/>
<glyph glyph-name="copyright" horiz-adv-x="778" unicode="©" d="M250 401q12 67 59.5 105t122.5 38q57 0 90.5 -25.5t41.5 -71.5q2 -12 2 -15q0 -12 -6.5 -18t-21.5 -11l-47 -16q-11 -3 -17 -3q-14 0 -18 24q-6 28 -43 28q-46 0 -52 -36l-18 -101q0 -2 -0.5 -4.5t-0.5 -3.5q0 -30 40 -30q36 0 52 29q15 25 28 25q4 0 16 -4l44 -17 q19 -7 19 -18q0 -7 -8 -25q-52 -97 -169 -97q-65 0 -99.5 30.5t-34.5 84.5q0 15 3 33zM664 350q5 28 5 50q0 95 -62 156t-161 61q-114 0 -204.5 -76.5t-109.5 -190.5q-5 -28 -5 -49q0 -95 62.5 -156.5t162.5 -61.5q112 0 202 77.5t110 189.5zM38 350q26 151 149 255.5 t274 104.5q133 0 217.5 -84t84.5 -213q0 -37 -5 -63q-27 -151 -149 -255t-272 -104q-134 0 -219 84.5t-85 212.5q0 36 5 62z"/>
<glyph glyph-name="ordfeminine" horiz-adv-x="352" unicode="ª" d="M217 469h-17q-18 0 -21 -16q-2 -10 1.5 -13.5t13.5 -3.5h7.5h6.5l2 1q2 0 2 2zM97 619q51 54 142 54q122 0 122 -94q0 -15 -3 -33l-22 -129q-4 -21 -13.5 -31.5t-32.5 -18.5q-47 -15 -109 -15q-127 0 -127 78q0 7 2 23q9 47 44 69t117 22q9 0 14 -1l2 16q1 3 1 7 q0 13 -17 13q-11 0 -29 -14q-18 -15 -29 -15q-8 0 -20 6l-34 19q-20 9 -20 21q0 10 12 23z"/>
<glyph glyph-name="guillemotleft" horiz-adv-x="638" unicode="«" d="M300 150q9 -11 9 -20q0 -12 -17 -27l-66 -57q-14 -13 -25 -13t-22 13l-159 192q-9 12 -9 20q0 13 18 28l230 197q14 13 26 13t22 -13l45 -55q9 -12 9 -21q0 -11 -18 -26l-137 -118zM564 150q9 -11 9 -20q0 -12 -17 -27l-66 -57q-15 -12 -26 -12q-10 0 -21 12l-159 192 q-10 13 -10 21q0 12 19 27l230 197q16 14 26 14q11 0 22 -14l45 -55q9 -12 9 -20q0 -12 -18 -27l-137 -118z"/>
<glyph glyph-name="logicalnot" horiz-adv-x="596" unicode="¬" d="M532 424q33 0 33 -23q0 -3 -2 -15l-39 -221q-4 -22 -13.5 -30.5t-30.5 -8.5h-109q-32 0 -32 25q0 9 1 14l16 94h-291q-32 0 -32 25q0 9 1 14l15 88q4 22 14 30t31 8h438z"/>
<glyph glyph-name="registered" horiz-adv-x="456" unicode="®" d="M249 526h31q14 0 18 15q4 16 -12 16h-31zM297 610q28 0 45 -14.5t17 -39.5q0 -9 -1 -14q-7 -41 -42 -57l18 -37q4 -7 4 -13q0 -13 -24 -13h-20q-11 0 -15 2.5t-9 12.5l-17 38h-12l-6 -38q-1 -9 -5 -12t-13 -3h-28q-17 0 -13 15l27 157q4 16 19 16h75zM123 516 q-2 -9 -2 -25q0 -51 34.5 -85.5t87.5 -34.5q59 0 108 42.5t60 102.5q2 9 2 26q0 51 -33.5 84.5t-85.5 33.5q-61 0 -110.5 -42t-60.5 -102zM66 516q14 83 81.5 141.5t151.5 58.5q73 0 121.5 -48t48.5 -119q0 -17 -3 -33q-14 -83 -81.5 -141.5t-150.5 -58.5q-74 0 -122.5 47.5 t-48.5 119.5q0 17 3 33z"/>
<glyph glyph-name="macron" horiz-adv-x="352" unicode="¯" d="M379 710q32 0 32 -21q0 -3 -2 -15l-8 -42q-3 -22 -11.5 -29t-30.5 -7h-244q-18 0 -24.5 4.5t-6.5 17.5q0 9 1 14l8 42q4 21 13 28.5t29 7.5h244z"/>
<glyph glyph-name="degree" horiz-adv-x="419" unicode="°" d="M197 554q-1 -3 -1 -9q0 -21 13 -34t35 -13q23 0 43 16.5t24 39.5q1 4 1 11q0 20 -13.5 33.5t-33.5 13.5q-24 0 -44 -17.5t-24 -40.5zM444 555q-13 -78 -77.5 -134.5t-142.5 -56.5q-72 0 -117.5 44.5t-45.5 113.5q0 16 3 33q13 82 75.5 136t142.5 54q72 0 118.5 -44.5 t46.5 -113.5q0 -15 -3 -32z"/>
<glyph glyph-name="plusminus" horiz-adv-x="585" unicode="±" d="M487 221q37 0 37 -26q0 -4 -2 -16l-14 -80q-5 -23 -15.5 -32.5t-34.5 -9.5h-416q-36 0 -36 26q0 4 2 16l13 80q5 23 16 32.5t34 9.5h416zM536 503q37 0 37 -26q0 -4 -2 -16l-13 -75q-4 -24 -15 -33t-34 -9h-128l-10 -57q-4 -24 -15 -33t-35 -9h-78q-20 0 -28 6t-8 22 q0 9 1 14l11 57h-126q-38 0 -38 27q0 3 2 15l13 75q4 24 15.5 33t34.5 9h127l10 58q4 24 15 33.5t35 9.5h78q36 0 36 -27q0 -4 -2 -16l-10 -58h127z"/>
<glyph glyph-name="twosuperior" horiz-adv-x="373" unicode="²" d="M103 715q54 94 178 94q65 0 100.5 -30.5t35.5 -78.5q0 -12 -1 -18q-8 -54 -35.5 -87.5t-82.5 -48.5l-46 -12q-22 -5 -23 -10v-2h117q30 0 30 -22q0 -8 -1 -13l-8 -47q-3 -19 -11.5 -26.5t-28.5 -7.5h-247q-31 0 -31 23q0 7 1 11l6 33q10 57 35 86t83 48l56 19 q22 7 32.5 17t10.5 28t-19 18q-23 0 -38 -23q-21 -29 -35 -29q-6 0 -19 5l-47 18q-23 9 -23 24q0 11 11 31z"/>
<glyph glyph-name="threesuperior" horiz-adv-x="380" unicode="³" d="M97 721q52 93 183 93q65 0 101 -27t36 -74q0 -7 -2 -21q-5 -27 -16 -43.5t-37 -32.5q37 -24 37 -68q0 -14 -3 -29q-20 -116 -182 -116q-144 0 -158 94q-1 5 -1 13q0 25 26 33l47 16q15 5 23 5q16 0 25 -26q8 -26 49 -26q34 0 37 19q0 1 0.5 3.5t0.5 3.5q0 16 -27 16h-29 q-14 0 -19 3.5t-5 13.5q0 8 1 12l10 50q3 19 9.5 25t26.5 6h19q30 0 35 22q2 11 -4.5 16t-22.5 5q-43 0 -61 -27q-14 -25 -31 -25q-9 0 -23 6l-35 16q-17 9 -17 22q0 9 7 22z"/>
<glyph glyph-name="acute" horiz-adv-x="257" unicode="´" d="M231 734q24 13 38 13q16 0 28 -15l42 -56q10 -13 10 -21q0 -12 -22 -19l-190 -60q-19 -6 -29 -6q-11 0 -17 9l-23 33q-7 11 -7 19q0 10 16 19z"/>
<glyph glyph-name="mu" horiz-adv-x="570" unicode="µ" d="M527 520q32 0 32 -24q0 -9 -1 -14l-70 -400q-7 -33 -43 -55q-72 -42 -163 -42q-59 0 -101 23l-33 -190q-4 -21 -14 -29.5t-32 -8.5h-109q-18 0 -25.5 5.5t-7.5 18.5q0 9 1 14l117 664q4 21 14 29.5t32 8.5h109q18 0 25.5 -5.5t7.5 -18.5q0 -9 -1 -14l-48 -274 q-2 -12 -2 -17q0 -38 52 -38q20 0 40 4q7 1 9 9l56 316q4 21 13.5 29.5t31.5 8.5h110z"/>
<glyph glyph-name="paragraph" horiz-adv-x="700" unicode="¶" d="M677 710q34 0 34 -24q0 -4 -2 -14l-127 -723q-4 -21 -14 -29.5t-32 -8.5h-87q-32 0 -32 24q0 9 1 14l103 587h-50l-103 -587q-5 -21 -14.5 -29.5t-31.5 -8.5h-87q-33 0 -33 23q0 3 2 15l46 263q-93 1 -148 57.5t-55 146.5q0 23 5 53q19 111 99 176t191 65h335z"/>
<glyph glyph-name="periodcentered" horiz-adv-x="282" unicode="·" d="M178 408q36 0 52 -11.5t16 -39.5q0 -11 -3 -28l-7 -41q-8 -44 -28 -61t-65 -17h-38q-36 0 -52 11t-16 38q0 13 3 29l7 41q8 45 28 62t65 17h38z"/>
<glyph glyph-name="cedilla" horiz-adv-x="251" unicode="¸" d="M108 -50h7q35 -1 53.5 -20.5t18.5 -50.5q0 -15 -5 -33q-26 -96 -164 -96q-34 0 -75 16q-22 9 -22 24q0 1 0.5 3.5t0.5 3.5l7 42q5 21 18 21q8 0 17 -5q27 -15 53 -15q35 0 39 23v3l1 2q0 17 -40 17h-21q-16 0 -16 10q0 6 8 20l52 85h95z"/>
<glyph glyph-name="onesuperior" horiz-adv-x="294" unicode="¹" d="M295 806q43 0 43 -30q0 -4 -2 -18l-54 -307q-4 -22 -14.5 -31t-34.5 -9h-54q-36 0 -36 26q0 9 1 14l34 191l-29 -15q-15 -8 -28 -8q-18 0 -27 22l-18 40q-4 12 -4 17q0 21 29 36l116 61q22 11 49 11h29z"/>
<glyph glyph-name="ordmasculine" horiz-adv-x="352" unicode="º" d="M241 545q1 9 -4 14t-16 5q-23 0 -26 -19l-11 -64q-3 -19 19 -19q23 0 26 19zM73 549q10 61 53 93t114 32q61 0 93.5 -29t32.5 -78q0 -15 -3 -31l-11 -61q-22 -123 -168 -123q-60 0 -92.5 29t-32.5 77q0 13 3 30z"/>
<glyph glyph-name="guillemotright" horiz-adv-x="640" unicode="»" d="M324 382q-9 12 -9 20q0 13 18 27l65 54q14 13 27 13q11 0 21 -13l161 -197q9 -12 9 -21q0 -12 -17 -27l-225 -190q-14 -13 -26 -13q-11 0 -21 13l-49 56q-10 13 -10 21q0 12 18 27l134 113zM60 382q-9 12 -9 20q0 12 18 27l64 56q14 13 26 13t22 -13l162 -199 q9 -12 9 -21q0 -13 -17 -27l-226 -191q-14 -13 -26 -13t-22 13l-47 57q-9 12 -9 21q0 13 17 27l135 113z"/>
<glyph glyph-name="onequarter" horiz-adv-x="915" unicode="¼" d="M705 243l-66 -66h54zM832 177q17 0 23 -3.5t6 -13.5q0 -8 -1 -13l-8 -46q-3 -19 -10.5 -25t-28.5 -6h-10l-7 -35q-5 -34 -38 -34h-65q-26 0 -26 21q0 8 1 13l7 35h-160q-17 0 -23.5 5t-6.5 17q0 8 1 13l5 30q5 27 21 43l194 193q16 15 28 20t35 5h51q35 0 35 -24 q0 -4 -2 -16l-32 -179h11zM776 710q29 0 29 -18q0 -10 -9 -22l-465 -633q-18 -24 -31.5 -30.5t-50.5 -6.5h-67q-31 0 -31 20q0 10 9 22l466 633q17 23 30 29t48 6h72zM296 715q44 0 44 -31q0 -5 -2 -17l-54 -307q-4 -22 -14.5 -31t-34.5 -9h-54q-36 0 -36 26q0 9 1 14 l34 191l-29 -15q-18 -9 -28 -9q-18 0 -27 23l-18 40q-4 12 -4 17q0 21 29 36l116 60q20 12 49 12h28z"/>
<glyph glyph-name="onehalf" horiz-adv-x="926" unicode="½" d="M576 308q55 95 178 95q65 0 100.5 -31t35.5 -79q0 -12 -1 -18q-8 -53 -36 -86.5t-82 -48.5l-46 -13q-22 -3 -23 -10v-1h117q30 0 30 -22q0 -8 -1 -13l-8 -47q-3 -19 -11.5 -26.5t-28.5 -7.5h-247q-31 0 -31 23q0 7 1 11l6 33q10 57 35 86t83 48l56 18q22 8 32.5 17.5 t10.5 27.5t-19 18q-22 0 -38 -22q-21 -29 -35 -29q-6 0 -19 5l-47 18q-23 9 -23 24q0 11 11 30zM763 710q29 0 29 -18q0 -10 -9 -22l-465 -633q-18 -24 -32 -30.5t-51 -6.5h-67q-30 0 -30 20q0 10 9 22l466 633q16 23 29.5 29t48.5 6h72zM296 715q44 0 44 -31q0 -5 -2 -17 l-54 -307q-4 -22 -14.5 -31t-34.5 -9h-54q-36 0 -36 26q0 9 1 14l34 191l-29 -15q-18 -9 -28 -9q-18 0 -27 23l-18 40q-4 12 -4 17q0 21 29 36l116 60q20 12 49 12h28z"/>
<glyph glyph-name="threequarters" horiz-adv-x="934" unicode="¾" d="M728 242l-66 -66h54zM855 176q17 0 23 -3.5t6 -13.5q0 -8 -1 -13l-8 -46q-3 -19 -10.5 -25t-28.5 -6h-10l-7 -35q-5 -34 -38 -34h-65q-26 0 -26 21q0 8 1 13l7 35h-160q-17 0 -23.5 5t-6.5 17q0 8 1 13l5 30q5 27 21 43l194 193q16 15 28 20t35 5h51q35 0 35 -24 q0 -4 -2 -16l-32 -179h11zM811 710q29 0 29 -18q0 -10 -9 -22l-465 -633q-18 -24 -32 -30.5t-51 -6.5h-67q-30 0 -30 20q0 10 9 22l466 633q16 23 29.5 29t48.5 6h72zM89 632q52 93 182 93q65 0 101.5 -27t36.5 -74q0 -7 -2 -21q-5 -27 -16 -43.5t-37 -32.5q37 -25 37 -69 q0 -13 -3 -28q-20 -116 -182 -116q-144 0 -158 94q-1 5 -1 13q0 25 25 33l47 16q17 5 24 5q16 0 25 -26q8 -26 49 -26q35 0 36 19q1 3 1 8q0 15 -27 15h-28q-14 0 -19 3t-5 13q0 8 1 13l10 50q3 19 9 25t26 6h20q30 0 34 22q0 1 0.5 2.5t0.5 2.5q0 16 -27 16q-43 0 -61 -27 q-16 -25 -32 -25q-10 0 -23 6l-34 16q-18 9 -18 22q0 8 8 22z"/>
<glyph glyph-name="questiondown" horiz-adv-x="589" unicode="¿" d="M501 -59q-47 -81 -115.5 -121.5t-179.5 -40.5q-112 0 -176 48.5t-64 128.5q0 17 3 35q7 42 24 74t43 53.5t48 35t53 29t45 23.5q42 25 47 55q4 22 14.5 31t32.5 9h91q35 0 35 -25q0 -3 -2 -15q-11 -65 -40 -101.5t-72 -59.5q-11 -6 -32.5 -17t-33 -17.5t-25.5 -18 t-22.5 -25.5t-11.5 -33q-1 -4 -1 -12q0 -45 61 -45q40 0 66 15.5t53 57.5q19 32 37 32q11 0 21 -5l85 -36q26 -11 26 -28q0 -9 -10 -27zM301 335q-37 0 -52.5 11t-15.5 38q0 12 3 29l6 35q8 44 28 61t65 17h50q36 0 52 -11.5t16 -38.5q0 -12 -3 -28l-6 -35q-8 -45 -28 -61.5 t-65 -16.5h-50z"/>
<glyph glyph-name="Agrave" horiz-adv-x="688" unicode="À" d="M386 388q-3 27 -3 54l6 86h-9q-13 -72 -45 -139l-57 -118h124zM638 41q1 -4 1 -11q0 -30 -38 -30h-104q-37 0 -51 9t-16 33l-10 72h-217l-35 -72q-12 -24 -28 -33t-52 -9h-110q-28 0 -28 16q0 10 9 25l342 634q11 21 23 28t35 7h113q22 0 32.5 -7t14.5 -26zM379 914 q15 15 32 15q15 0 34 -12l126 -83q12 -8 12 -15q0 -8 -15 -23l-34 -34q-10 -10 -21 -10q-9 0 -26 6l-171 56q-16 6 -16 14q0 9 17 26z"/>
<glyph glyph-name="Aacute" horiz-adv-x="688" unicode="Á" d="M386 388q-3 27 -3 54l6 86h-9q-13 -72 -45 -139l-57 -118h124zM638 41q1 -4 1 -11q0 -30 -38 -30h-104q-37 0 -51 9t-16 33l-10 72h-217l-35 -72q-12 -24 -28 -33t-52 -9h-110q-28 0 -28 16q0 10 9 25l342 634q11 21 23 28t35 7h113q22 0 32.5 -7t14.5 -26zM462 914 q22 12 37 12q18 0 29 -15l40 -58q9 -12 9 -21q0 -12 -21 -19l-192 -56q-20 -5 -27 -5q-13 0 -18 10l-21 33q-8 13 -8 20q0 9 16 18z"/>
<glyph glyph-name="Acircumflex" horiz-adv-x="688" unicode="Â" d="M386 388q-3 27 -3 54l6 86h-9q-13 -72 -45 -139l-57 -118h124zM638 41q1 -4 1 -11q0 -30 -38 -30h-104q-37 0 -51 9t-16 33l-10 72h-217l-35 -72q-12 -24 -28 -33t-52 -9h-110q-28 0 -28 16q0 10 9 25l342 634q11 21 23 28t35 7h113q22 0 32.5 -7t14.5 -26zM473 920 q27 0 38.5 -5t27.5 -25l85 -102q8 -10 8 -17q0 -17 -29 -17h-82q-31 0 -43 3.5t-21 17.5l-22 36l-37 -35q-15 -15 -27.5 -18.5t-41.5 -3.5h-80q-25 0 -25 12q0 9 15 22l120 102q24 20 37.5 25t44.5 5h32z"/>
<glyph glyph-name="Atilde" horiz-adv-x="688" unicode="Ã" d="M386 388q-3 27 -3 54l6 86h-9q-13 -72 -45 -139l-57 -118h124zM638 41q1 -4 1 -11q0 -30 -38 -30h-104q-37 0 -51 9t-16 33l-10 72h-217l-35 -72q-12 -24 -28 -33t-52 -9h-110q-28 0 -28 16q0 10 9 25l342 634q11 21 23 28t35 7h113q22 0 32.5 -7t14.5 -26zM597 909 q20 0 20 -15q0 -5 -1 -8q-12 -67 -40.5 -95t-78.5 -28q-42 0 -78 21t-47 21q-15 0 -19 -22q-3 -20 -22 -20h-62q-20 0 -20 16q0 4 1 7q11 68 40.5 95.5t76.5 27.5q43 0 80.5 -20.5t48.5 -20.5q14 0 18 22q4 19 23 19h60z"/>
<glyph glyph-name="Adieresis" horiz-adv-x="688" unicode="Ä" d="M386 388q-3 27 -3 54l6 86h-9q-13 -72 -45 -139l-57 -118h124zM638 41q1 -4 1 -11q0 -30 -38 -30h-104q-37 0 -51 9t-16 33l-10 72h-217l-35 -72q-12 -24 -28 -33t-52 -9h-110q-28 0 -28 16q0 10 9 25l342 634q11 21 23 28t35 7h113q22 0 32.5 -7t14.5 -26zM562 914 q35 0 49.5 -10t14.5 -35q0 -11 -3 -26l-2 -13q-8 -40 -26 -55.5t-60 -15.5h-7q-34 0 -48.5 10.5t-14.5 35.5q0 16 2 25l3 13q7 40 25.5 55.5t59.5 15.5h7zM347 914q35 0 49.5 -10.5t14.5 -35.5q0 -15 -2 -25l-2 -13q-8 -40 -26.5 -55.5t-60.5 -15.5h-7q-34 0 -48.5 10 t-14.5 35q0 11 3 26l3 13q7 41 24.5 56t59.5 15h7z"/>
<glyph glyph-name="Aring" horiz-adv-x="688" unicode="Å" d="M386 388q-3 27 -3 54l6 86h-9q-13 -72 -45 -139l-57 -118h124zM462 745q1 4 1 10q0 33 -35 33q-21 0 -35.5 -11.5t-18.5 -31.5q0 -1 -0.5 -4t-0.5 -4q0 -35 40 -35q18 0 32 12t17 31zM262 745q12 66 62.5 104t121.5 38q60 0 95.5 -30.5t35.5 -82.5q0 -14 -3 -29 q-11 -61 -55 -97l119 -607q1 -4 1 -12q0 -29 -38 -29h-104q-37 0 -51 9t-16 33l-10 72h-217l-35 -72q-12 -24 -28 -33t-52 -9h-110q-28 0 -28 16q0 10 9 25l328 603q-27 30 -27 75q0 8 2 26z"/>
<glyph glyph-name="AE" horiz-adv-x="906" unicode="Æ" d="M494 462l-147 -206h103zM817 175q37 0 37 -26q0 -4 -2 -16l-16 -91q-5 -23 -15.5 -32.5t-34.5 -9.5h-339q-20 0 -28 6t-8 21q0 9 1 15l12 63h-202l-54 -68q-18 -22 -33 -29.5t-52 -7.5h-109q-30 0 -30 18q0 10 10 23l516 634q17 21 27.5 28t30.5 7h375q37 0 37 -26 q0 -4 -2 -16l-16 -90q-4 -24 -15 -33.5t-35 -9.5h-195l-16 -89h143q36 0 36 -26q0 -4 -2 -16l-16 -90q-4 -24 -15 -33.5t-34 -9.5h-143l-17 -96h204z"/>
<glyph glyph-name="Ccedilla" horiz-adv-x="647" unicode="Ç" d="M415 725q216 0 249 -178q2 -12 2 -16q0 -27 -36 -38l-103 -35q-12 -4 -23 -4q-20 0 -27 31q-7 34 -28 49.5t-63 15.5q-58 0 -88.5 -25.5t-39.5 -78.5l-33 -182q-3 -16 -3 -30q0 -38 22.5 -56t72.5 -18q79 0 115 65q19 32 38 32q8 0 21 -5l104 -40q26 -9 26 -27 q0 -11 -9 -27q-81 -147 -260 -169l-22 -41h7q35 -1 53.5 -21t18.5 -51q0 -15 -5 -33q-14 -51 -59.5 -73t-104.5 -22q-39 0 -75 16q-22 8 -22 24q0 1 0.5 3t0.5 4l7 41q5 22 19 22q6 0 16 -5q26 -16 53 -16q35 0 39 23q0 1 0.5 2.5t0.5 2.5q0 17 -40 17h-21q-16 0 -16 11 q0 7 6 17l47 77q-112 7 -171.5 67.5t-59.5 158.5q0 35 5 61l33 185q22 129 113.5 197.5t239.5 68.5z"/>
<glyph glyph-name="Egrave" horiz-adv-x="588" unicode="È" d="M584 710q37 0 37 -28q0 -9 -1 -14l-16 -90q-4 -24 -15.5 -33.5t-34.5 -9.5h-264l-16 -89h211q20 0 28 -6t8 -21q0 -9 -1 -15l-16 -90q-5 -24 -15.5 -33.5t-34.5 -9.5h-211l-17 -96h273q36 0 36 -26q0 -4 -2 -16l-16 -91q-4 -23 -15 -32.5t-35 -9.5h-427q-37 0 -37 26 q0 4 2 16l110 626q5 23 15.5 32.5t34.5 9.5h419zM338 914q15 15 32 15q15 0 34 -12l126 -83q12 -8 12 -15q0 -8 -15 -23l-34 -34q-9 -10 -21 -10q-10 0 -26 6l-171 56q-15 6 -15 14t16 26z"/>
<glyph glyph-name="Eacute" horiz-adv-x="588" unicode="É" d="M584 710q37 0 37 -28q0 -9 -1 -14l-16 -90q-4 -24 -15.5 -33.5t-34.5 -9.5h-264l-16 -89h211q20 0 28 -6t8 -21q0 -9 -1 -15l-16 -90q-5 -24 -15.5 -33.5t-34.5 -9.5h-211l-17 -96h273q36 0 36 -26q0 -4 -2 -16l-16 -91q-4 -23 -15 -32.5t-35 -9.5h-427q-37 0 -37 26 q0 4 2 16l110 626q5 23 15.5 32.5t34.5 9.5h419zM421 914q24 12 38 12q17 0 28 -15l40 -58q9 -12 9 -21q0 -12 -21 -19l-191 -56q-20 -5 -28 -5q-12 0 -18 10l-21 33q-8 13 -8 19q0 10 17 19z"/>
<glyph glyph-name="Ecircumflex" horiz-adv-x="588" unicode="Ê" d="M584 710q37 0 37 -28q0 -9 -1 -14l-16 -90q-4 -24 -15.5 -33.5t-34.5 -9.5h-264l-16 -89h211q20 0 28 -6t8 -21q0 -9 -1 -15l-16 -90q-5 -24 -15.5 -33.5t-34.5 -9.5h-211l-17 -96h273q36 0 36 -26q0 -4 -2 -16l-16 -91q-4 -23 -15 -32.5t-35 -9.5h-427q-37 0 -37 26 q0 4 2 16l110 626q5 23 15.5 32.5t34.5 9.5h419zM432 920q27 0 38.5 -5t27.5 -25l85 -102q8 -10 8 -18q0 -16 -29 -16h-82q-31 0 -43 3.5t-21 17.5l-22 36l-37 -35q-15 -15 -27 -18.5t-42 -3.5h-80q-24 0 -24 12q0 8 14 22l120 102q24 20 37.5 25t44.5 5h32z"/>
<glyph glyph-name="Edieresis" horiz-adv-x="588" unicode="Ë" d="M584 710q37 0 37 -28q0 -9 -1 -14l-16 -90q-4 -24 -15.5 -33.5t-34.5 -9.5h-264l-16 -89h211q20 0 28 -6t8 -21q0 -9 -1 -15l-16 -90q-5 -24 -15.5 -33.5t-34.5 -9.5h-211l-17 -96h273q36 0 36 -26q0 -4 -2 -16l-16 -91q-4 -23 -15 -32.5t-35 -9.5h-427q-37 0 -37 26 q0 4 2 16l110 626q5 23 15.5 32.5t34.5 9.5h419zM522 914q34 0 48.5 -10t14.5 -34q0 -12 -3 -27l-2 -13q-7 -40 -25.5 -55.5t-60.5 -15.5h-7q-34 0 -48.5 10t-14.5 35q0 11 3 26l2 13q7 40 25.5 55.5t60.5 15.5h7zM307 914q34 0 49 -10t15 -35q0 -11 -3 -26l-2 -13 q-7 -40 -26 -55.5t-61 -15.5h-7q-34 0 -48 9.5t-14 33.5q0 11 3 28l2 13q7 41 24.5 56t59.5 15h8z"/>
<glyph glyph-name="Igrave" horiz-adv-x="300" unicode="Ì" d="M116 670q5 23 15 31.5t32 8.5h118q35 0 35 -25q0 -3 -2 -15l-111 -630q-4 -22 -14 -31t-33 -9h-118q-19 0 -26.5 6t-7.5 20q0 9 1 14zM185 914q15 15 33 15q15 0 34 -12l126 -83q12 -8 12 -15t-16 -23l-33 -34q-10 -10 -22 -10q-10 0 -25 6l-172 56q-15 6 -15 14 q0 9 17 26z"/>
<glyph glyph-name="Iacute" horiz-adv-x="300" unicode="Í" d="M116 670q5 23 15 31.5t32 8.5h118q35 0 35 -25q0 -3 -2 -15l-111 -630q-4 -22 -14 -31t-33 -9h-118q-19 0 -26.5 6t-7.5 20q0 9 1 14zM268 914q24 12 38 12q17 0 28 -15l41 -58q9 -12 9 -21q0 -12 -22 -19l-191 -56q-20 -5 -27 -5q-13 0 -19 10l-21 33q-7 11 -7 19 q0 10 16 19z"/>
<glyph glyph-name="Icircumflex" horiz-adv-x="300" unicode="Î" d="M116 670q5 23 15 31.5t32 8.5h118q35 0 35 -25q0 -3 -2 -15l-111 -630q-4 -22 -14 -31t-33 -9h-118q-19 0 -26.5 6t-7.5 20q0 9 1 14zM280 920q27 0 38.5 -5t27.5 -25l84 -102q8 -10 8 -18q0 -16 -28 -16h-83q-31 0 -42.5 3.5t-20.5 17.5l-22 36l-38 -35 q-15 -15 -27 -18.5t-41 -3.5h-81q-24 0 -24 12q0 9 15 22l120 102q24 20 37 25t45 5h32z"/>
<glyph glyph-name="Idieresis" horiz-adv-x="300" unicode="Ï" d="M116 670q5 23 15 31.5t32 8.5h118q35 0 35 -25q0 -3 -2 -15l-111 -630q-4 -22 -14 -31t-33 -9h-118q-19 0 -26.5 6t-7.5 20q0 9 1 14zM369 914q35 0 49.5 -10t14.5 -35q0 -11 -3 -26l-3 -13q-7 -40 -25.5 -55.5t-59.5 -15.5h-7q-35 0 -49.5 10t-14.5 35q0 11 3 26l3 13 q7 41 25 56t60 15h7zM154 914q35 0 49.5 -10.5t14.5 -35.5q0 -15 -2 -25l-3 -13q-7 -40 -26 -55.5t-60 -15.5h-8q-34 0 -48 10t-14 35q0 11 3 26l3 13q7 41 24.5 56t58.5 15h8z"/>
<glyph glyph-name="Eth" horiz-adv-x="705" unicode="Ð" d="M496 427q3 16 3 31q0 39 -23.5 58t-76.5 19h-82l-19 -111h82q20 0 20 -14q0 -7 -1 -12l-13 -76q-3 -16 -9 -21t-20 -5h-82l-21 -121h81q116 0 136 108zM436 710q126 0 194 -61.5t68 -167.5q0 -31 -6 -64l-26 -150q-23 -129 -114 -198t-241 -69h-244q-20 0 -28 6t-8 21 q0 9 1 15l45 254h-46q-21 0 -21 15q0 7 1 11l13 76q5 26 30 26h46l43 244q4 23 14.5 32.5t34.5 9.5h244z"/>
<glyph glyph-name="Ntilde" horiz-adv-x="702" unicode="Ñ" d="M679 710q37 0 37 -28q0 -9 -1 -14l-111 -626q-4 -23 -15 -32.5t-35 -9.5h-110q-27 0 -37 20l-111 237q-22 48 -32.5 91.5t-19.5 114.5h-8q3 -55 3 -97q0 -76 -15 -161l-29 -163q-5 -23 -15.5 -32.5t-34.5 -9.5h-105q-37 0 -37 26q0 4 2 16l110 626q5 23 15.5 32.5 t34.5 9.5h114q29 0 39 -20l118 -256q25 -53 52 -183h8q-12 96 -12 136q0 47 12 117l29 164q4 23 14.5 32.5t34.5 9.5h105zM606 909q20 0 20 -15q0 -5 -1 -8q-12 -67 -40.5 -95t-78.5 -28q-42 0 -78 21t-48 21q-14 0 -18 -22q-3 -20 -23 -20h-61q-20 0 -20 16q0 4 1 7 q11 68 40.5 95.5t76.5 27.5q33 0 58 -10.5t41.5 -20.5t28.5 -10q15 0 19 22q4 19 22 19h61z"/>
<glyph glyph-name="Ograve" horiz-adv-x="682" unicode="Ò" d="M478 454q2 16 2 22q0 74 -94 74q-110 0 -127 -96l-35 -198q-2 -16 -2 -22q0 -74 95 -74q109 0 126 96zM61 455q23 130 113.5 200t238.5 70q127 0 196 -62t69 -168q0 -31 -6 -62l-31 -181q-23 -129 -113.5 -198t-238.5 -69q-128 0 -196.5 61.5t-68.5 167.5q0 34 5 60z M378 924q15 15 33 15q15 0 34 -12l126 -83q12 -8 12 -15q0 -8 -15 -23l-34 -34q-10 -10 -22 -10q-10 0 -25 6l-172 56q-15 6 -15 14q0 9 17 26z"/>
<glyph glyph-name="Oacute" horiz-adv-x="682" unicode="Ó" d="M478 454q2 16 2 22q0 74 -94 74q-110 0 -127 -96l-35 -198q-2 -16 -2 -22q0 -74 95 -74q109 0 126 96zM61 455q23 130 113.5 200t238.5 70q127 0 196 -62t69 -168q0 -31 -6 -62l-31 -181q-23 -129 -113.5 -198t-238.5 -69q-128 0 -196.5 61.5t-68.5 167.5q0 34 5 60z M462 924q22 12 37 12q18 0 29 -15l40 -58q9 -12 9 -21q0 -12 -22 -19l-191 -56q-20 -5 -27 -5q-13 0 -18 10l-21 33q-8 13 -8 20q0 9 16 18z"/>
<glyph glyph-name="Ocircumflex" horiz-adv-x="682" unicode="Ô" d="M478 454q2 16 2 22q0 74 -94 74q-110 0 -127 -96l-35 -198q-2 -16 -2 -22q0 -74 95 -74q109 0 126 96zM61 455q23 130 113.5 200t238.5 70q127 0 196 -62t69 -168q0 -31 -6 -62l-31 -181q-23 -129 -113.5 -198t-238.5 -69q-128 0 -196.5 61.5t-68.5 167.5q0 34 5 60z M473 930q27 0 38.5 -5t27.5 -25l85 -102q7 -10 7 -17q0 -17 -28 -17h-82q-31 0 -43 3.5t-21 17.5l-22 36l-37 -35q-15 -15 -27.5 -18.5t-41.5 -3.5h-80q-25 0 -25 12q0 9 15 22l120 102q24 20 37.5 25t44.5 5h32z"/>
<glyph glyph-name="Otilde" horiz-adv-x="682" unicode="Õ" d="M478 454q2 16 2 22q0 74 -94 74q-110 0 -127 -96l-35 -198q-2 -16 -2 -22q0 -74 95 -74q109 0 126 96zM61 455q23 130 113.5 200t238.5 70q127 0 196 -62t69 -168q0 -31 -6 -62l-31 -181q-23 -129 -113.5 -198t-238.5 -69q-128 0 -196.5 61.5t-68.5 167.5q0 34 5 60z M597 919q20 0 20 -15q0 -5 -1 -8q-12 -67 -40.5 -95t-78.5 -28q-42 0 -78 21t-48 21q-14 0 -18 -22q-3 -20 -23 -20h-61q-20 0 -20 16q0 4 1 7q11 68 40.5 95.5t76.5 27.5q44 0 80.5 -20.5t47.5 -20.5q15 0 19 22q4 19 22 19h61z"/>
<glyph glyph-name="Odieresis" horiz-adv-x="682" unicode="Ö" d="M478 454q2 16 2 22q0 74 -94 74q-110 0 -127 -96l-35 -198q-2 -16 -2 -22q0 -74 95 -74q109 0 126 96zM61 455q23 130 113.5 200t238.5 70q127 0 196 -62t69 -168q0 -31 -6 -62l-31 -181q-23 -129 -113.5 -198t-238.5 -69q-128 0 -196.5 61.5t-68.5 167.5q0 34 5 60z M562 924q35 0 49.5 -10t14.5 -35q0 -11 -3 -26l-3 -13q-7 -40 -25 -55.5t-60 -15.5h-7q-35 0 -49.5 10t-14.5 35q0 11 3 26l3 13q7 40 25.5 55.5t59.5 15.5h7zM347 924q35 0 49.5 -10.5t14.5 -35.5q0 -15 -2 -25l-3 -13q-7 -40 -25.5 -55.5t-60.5 -15.5h-8q-34 0 -48 10 t-14 35q0 11 3 26l3 13q7 41 24.5 56t59.5 15h7z"/>
<glyph glyph-name="multiply" horiz-adv-x="534" unicode="×" d="M473 219q11 -12 11 -24q0 -15 -21 -33l-68 -58q-19 -16 -31 -16t-26 16l-87 106l-123 -105q-21 -16 -32 -16q-12 0 -25 16l-49 58q-11 14 -11 24q0 14 22 33l122 105l-86 105q-11 12 -11 24q0 15 21 33l69 58q19 16 32 16q12 0 25 -16l86 -105l124 106q21 16 32 16 q12 0 25 -16l49 -58q11 -14 11 -24q0 -15 -22 -33l-124 -106z"/>
<glyph glyph-name="Oslash" horiz-adv-x="683" unicode="Ø" d="M468 403q2 6 4 24l-214 -256q25 -11 58 -11q109 0 126 96zM445 537q-24 13 -60 13q-52 0 -85.5 -24.5t-41.5 -71.5l-27 -153l-3 -25zM734 753q10 0 10 -7q0 -6 -4 -11l-96 -114q33 -54 33 -128q0 -25 -5 -60l-32 -181q-23 -129 -113.5 -198t-237.5 -69q-89 0 -149 30 l-34 -41q-9 -11 -15 -13.5t-24 -2.5h-93q-11 0 -11 7q0 6 6 12l89 108q-35 53 -35 127q0 29 6 62l31 181q23 130 114 200t238 70q92 0 152 -33l37 45q9 11 15.5 13.5t21.5 2.5h96z"/>
<glyph glyph-name="Ugrave" horiz-adv-x="692" unicode="Ù" d="M233 252q-2 -16 -2 -21q0 -71 90 -71q103 0 119 92l74 416q4 23 15 32.5t34 9.5h114q37 0 37 -27q0 -3 -2 -15l-75 -423q-23 -127 -109.5 -193.5t-233.5 -66.5q-126 0 -193 63t-67 167q0 30 6 63l69 390q5 23 15.5 32.5t34.5 9.5h113q37 0 37 -26q0 -4 -2 -16zM381 914 q15 15 32 15q15 0 34 -12l126 -83q12 -8 12 -15q0 -8 -15 -23l-34 -34q-9 -10 -21 -10q-9 0 -26 6l-171 56q-15 6 -15 14t16 26z"/>
<glyph glyph-name="Uacute" horiz-adv-x="692" unicode="Ú" d="M233 252q-2 -16 -2 -21q0 -71 90 -71q103 0 119 92l74 416q4 23 15 32.5t34 9.5h114q37 0 37 -27q0 -3 -2 -15l-75 -423q-23 -127 -109.5 -193.5t-233.5 -66.5q-126 0 -193 63t-67 167q0 30 6 63l69 390q5 23 15.5 32.5t34.5 9.5h113q37 0 37 -26q0 -4 -2 -16zM464 914 q24 12 38 12q17 0 28 -15l40 -58q9 -12 9 -21q0 -12 -21 -19l-191 -56q-20 -5 -28 -5q-12 0 -18 10l-21 33q-8 13 -8 19q0 10 17 19z"/>
<glyph glyph-name="Ucircumflex" horiz-adv-x="692" unicode="Û" d="M233 252q-2 -16 -2 -21q0 -71 90 -71q103 0 119 92l74 416q4 23 15 32.5t34 9.5h114q37 0 37 -27q0 -3 -2 -15l-75 -423q-23 -127 -109.5 -193.5t-233.5 -66.5q-126 0 -193 63t-67 167q0 30 6 63l69 390q5 23 15.5 32.5t34.5 9.5h113q37 0 37 -26q0 -4 -2 -16zM475 920 q27 0 38.5 -5t27.5 -25l85 -102q8 -10 8 -18q0 -16 -29 -16h-82q-31 0 -43 3.5t-21 17.5l-22 36l-37 -35q-15 -15 -27 -18.5t-42 -3.5h-80q-24 0 -24 12q0 8 14 22l120 102q24 20 37.5 25t44.5 5h32z"/>
<glyph glyph-name="Udieresis" horiz-adv-x="692" unicode="Ü" d="M233 252q-2 -16 -2 -21q0 -71 90 -71q103 0 119 92l74 416q4 23 15 32.5t34 9.5h114q37 0 37 -27q0 -3 -2 -15l-75 -423q-23 -127 -109.5 -193.5t-233.5 -66.5q-126 0 -193 63t-67 167q0 30 6 63l69 390q5 23 15.5 32.5t34.5 9.5h113q37 0 37 -26q0 -4 -2 -16zM565 914 q34 0 48.5 -10t14.5 -34q0 -12 -3 -27l-2 -13q-7 -40 -25.5 -55.5t-60.5 -15.5h-7q-34 0 -48.5 10t-14.5 35q0 11 3 26l2 13q7 40 25.5 55.5t60.5 15.5h7zM350 914q34 0 49 -10t15 -35q0 -11 -3 -26l-2 -13q-7 -40 -26 -55.5t-61 -15.5h-7q-34 0 -48 9.5t-14 33.5q0 11 3 28 l2 13q7 41 24.5 56t59.5 15h8z"/>
<glyph glyph-name="Yacute" horiz-adv-x="673" unicode="Ý" d="M717 710q26 0 26 -16q0 -11 -12 -26l-300 -393l-40 -233q-5 -23 -16 -32.5t-34 -9.5h-114q-36 0 -36 26q0 4 2 16l40 233l-160 393q-4 8 -4 18q0 24 32 24h116q40 0 54 -6t23 -31l71 -204l147 204q17 25 33 31t55 6h117zM459 914q22 12 37 12q18 0 29 -15l40 -58 q9 -12 9 -21q0 -12 -22 -19l-191 -56q-20 -5 -27 -5q-13 0 -18 10l-21 33q-8 13 -8 20q0 9 16 18z"/>
<glyph glyph-name="Thorn" horiz-adv-x="637" unicode="Þ" d="M325 275q39 0 67 24t34 61q2 12 2 18q0 30 -19 48.5t-53 18.5h-83l-30 -170h82zM412 620q104 0 163.5 -57.5t59.5 -154.5q0 -28 -6 -60q-21 -119 -103.5 -183.5t-205.5 -64.5h-108l-10 -58q-4 -23 -15 -32.5t-35 -9.5h-112q-37 0 -37 26q0 4 2 16l110 626q5 23 15.5 32.5 t34.5 9.5h112q37 0 37 -28q0 -9 -1 -14l-9 -48h108z"/>
<glyph glyph-name="germandbls" horiz-adv-x="588" unicode="ß" d="M83 535q18 104 89 159.5t191 55.5q109 0 164.5 -45.5t55.5 -123.5q0 -24 -4 -44q-10 -52 -32 -84t-65 -59l-1 -4q36 -18 55 -45.5t19 -77.5q0 -26 -6 -59q-18 -103 -87.5 -155.5t-179.5 -52.5h-41q-36 0 -36 26q0 4 2 16l16 91q4 24 15 33t34 9h15q56 1 66 59q2 14 2 19 q0 41 -48 41h-14q-36 0 -36 26q0 5 2 17l15 86q4 24 13.5 33t29.5 9h8q46 0 56 56q1 5 1 13q0 41 -50 41q-58 0 -67 -57l-84 -476q-4 -23 -15 -32.5t-35 -9.5h-101q-20 0 -28 6t-8 21q0 9 1 15z"/>
<glyph glyph-name="agrave" horiz-adv-x="545" unicode="à" d="M327 369q-15 4 -39 4q-33 0 -50 -12.5t-22 -42.5l-22 -122q-1 -4 -1 -11q0 -39 49 -39q32 0 52 5l37 211q2 6 -4 7zM31 324q19 109 87.5 160t192.5 51t192 -34q18 -9 24.5 -16.5t6.5 -19.5q0 -9 -3 -22l-68 -387q-4 -21 -13.5 -31t-32.5 -16q-99 -24 -217 -24 q-96 0 -144.5 46.5t-48.5 128.5q0 23 5 56zM285 732q17 15 33 15q13 0 33 -13l125 -84q10 -6 10 -14t-15 -24l-35 -33q-8 -9 -20 -9q-10 0 -26 6l-170 60q-15 6 -15 15q0 8 17 25z"/>
<glyph glyph-name="aacute" horiz-adv-x="545" unicode="á" d="M327 369q-15 4 -39 4q-33 0 -50 -12.5t-22 -42.5l-22 -122q-1 -4 -1 -11q0 -39 49 -39q32 0 52 5l37 211q2 6 -4 7zM31 324q19 109 87.5 160t192.5 51t192 -34q18 -9 24.5 -16.5t6.5 -19.5q0 -9 -3 -22l-68 -387q-4 -21 -13.5 -31t-32.5 -16q-99 -24 -217 -24 q-96 0 -144.5 46.5t-48.5 128.5q0 23 5 56zM364 734q26 13 38 13q16 0 28 -15l42 -56q10 -15 10 -21q0 -12 -22 -19l-190 -60q-18 -6 -28 -6q-12 0 -18 9l-23 33q-7 11 -7 19q0 10 16 19z"/>
<glyph glyph-name="acircumflex" horiz-adv-x="545" unicode="â" d="M327 369q-15 4 -39 4q-33 0 -50 -12.5t-22 -42.5l-22 -122q-1 -4 -1 -11q0 -39 49 -39q32 0 52 5l37 211q2 6 -4 7zM31 324q19 109 87.5 160t192.5 51t192 -34q18 -9 24.5 -16.5t6.5 -19.5q0 -9 -3 -22l-68 -387q-4 -21 -13.5 -31t-32.5 -16q-99 -24 -217 -24 q-96 0 -144.5 46.5t-48.5 128.5q0 23 5 56zM377 740q28 0 39 -4.5t28 -24.5l84 -102q8 -10 8 -18q0 -17 -29 -17h-78q-30 0 -42 4t-20 18l-23 35l-37 -35q-15 -14 -28 -18t-41 -4h-81q-23 0 -23 12q0 11 14 23l120 102q24 20 37.5 24.5t44.5 4.5h27z"/>
<glyph glyph-name="atilde" horiz-adv-x="545" unicode="ã" d="M327 369q-15 4 -39 4q-33 0 -50 -12.5t-22 -42.5l-22 -122q-1 -4 -1 -11q0 -39 49 -39q32 0 52 5l37 211q2 6 -4 7zM31 324q19 109 87.5 160t192.5 51t192 -34q18 -9 24.5 -16.5t6.5 -19.5q0 -9 -3 -22l-68 -387q-4 -21 -13.5 -31t-32.5 -16q-99 -24 -217 -24 q-96 0 -144.5 46.5t-48.5 128.5q0 23 5 56zM502 731q20 0 20 -15q0 -5 -1 -8q-12 -68 -41 -95.5t-79 -27.5q-42 0 -78 20.5t-47 20.5q-15 0 -19 -22q-3 -19 -22 -19h-62q-19 0 -19 16v7q12 67 41.5 95t76.5 28q43 0 80 -21t48 -21q15 0 19 22q3 20 22 20h61z"/>
<glyph glyph-name="adieresis" horiz-adv-x="545" unicode="ä" d="M327 369q-15 4 -39 4q-33 0 -50 -12.5t-22 -42.5l-22 -122q-1 -4 -1 -11q0 -39 49 -39q32 0 52 5l37 211q2 6 -4 7zM31 324q19 109 87.5 160t192.5 51t192 -34q18 -9 24.5 -16.5t6.5 -19.5q0 -9 -3 -22l-68 -387q-4 -21 -13.5 -31t-32.5 -16q-99 -24 -217 -24 q-96 0 -144.5 46.5t-48.5 128.5q0 23 5 56zM467 733q33 0 47.5 -9.5t14.5 -33.5q0 -12 -3 -28l-2 -13q-7 -40 -25 -56t-60 -16h-7q-34 0 -49 10.5t-15 35.5q0 11 3 26l2 13q7 40 26 55.5t61 15.5h7zM252 733q34 0 48.5 -10t14.5 -34q0 -12 -3 -27l-2 -13q-7 -40 -25.5 -56 t-60.5 -16h-7q-34 0 -48.5 10t-14.5 35q0 12 3 27l2 13q8 41 25.5 56t59.5 15h8z"/>
<glyph glyph-name="aring" horiz-adv-x="545" unicode="å" d="M327 369q-15 4 -39 4q-33 0 -50 -12.5t-22 -42.5l-22 -122q-1 -4 -1 -11q0 -39 49 -39q32 0 52 5l37 211q2 6 -4 7zM31 324q19 109 87.5 160t192.5 51t192 -34q18 -9 24.5 -16.5t6.5 -19.5q0 -9 -3 -22l-68 -387q-4 -21 -13.5 -31t-32.5 -16q-99 -24 -217 -24 q-96 0 -144.5 46.5t-48.5 128.5q0 23 5 56zM379 680v7q0 29 -29 29q-37 0 -44 -36q-1 -3 -1 -7q0 -27 33 -27q15 0 26.5 9t14.5 25zM214 680q9 54 51 85.5t100 31.5q50 0 79 -25t29 -68q0 -16 -2 -24q-9 -53 -50 -84.5t-97 -31.5q-52 0 -82 24.5t-30 68.5q0 7 2 23z"/>
<glyph glyph-name="ae" horiz-adv-x="771" unicode="æ" d="M273 192q-22 2 -44 2q-46 0 -54 -42q-1 -4 -1 -11q0 -29 38 -29q22 0 57 5q-1 7 -1 23q0 18 3 38zM582 362q1 3 1 9q0 32 -46 32q-28 0 -46.5 -16t-22.5 -44l-2 -13q40 -4 61 -4q50 0 55 36zM413 487q66 48 150 48q98 0 151 -37.5t53 -107.5q0 -17 -3 -35 q-12 -71 -70 -110.5t-147 -39.5q-47 0 -102 6l-4 -21q-2 -14 -2 -19q0 -46 50 -46q46 0 79 37q14 19 28 19q10 0 25 -9l61 -34q20 -11 20 -27q0 -14 -13 -31q-65 -95 -227 -95q-71 0 -120 28q-66 -28 -149 -28q-200 0 -200 138q0 19 3 38q14 85 74.5 121t185.5 36 q8 0 22 -0.5t18 -0.5l4 25q2 12 2 18q0 33 -42 33q-33 0 -62 -36q-15 -18 -27 -18q-11 0 -25 7l-70 30q-23 11 -23 26q0 11 12 29q38 53 90.5 78.5t133.5 25.5q79 0 124 -48z"/>
<glyph glyph-name="ccedilla" horiz-adv-x="517" unicode="ç" d="M31 324q38 211 280 211q89 0 138.5 -38.5t59.5 -101.5q1 -5 1 -15q0 -27 -35 -38l-90 -30q-15 -5 -23 -5q-21 0 -27 32q-9 40 -55 40q-53 0 -63 -55l-23 -129q-1 -5 -1 -14q0 -40 45 -40q43 0 66 41q17 30 37 30q7 0 22 -5l92 -29q26 -9 26 -27q0 -12 -10 -29 q-69 -114 -201 -133l-22 -39h7q35 -1 53.5 -20.5t18.5 -50.5q0 -15 -5 -33q-26 -96 -164 -96q-35 0 -74 16q-22 9 -22 25v6l8 42q3 21 17 21q8 0 17 -5q27 -15 53 -15q35 0 39 23v3l1 2q0 17 -40 17h-19q-18 0 -18 11q0 6 8 19l44 72q-83 8 -124 53t-41 119q0 23 5 55z"/>
<glyph glyph-name="egrave" horiz-adv-x="542" unicode="è" d="M351 362q0 1 0.5 3.5t0.5 3.5q0 34 -56 34q-63 0 -76 -62l-3 -11q37 -5 69 -5q59 0 65 37zM31 324q18 101 92 156t193 55q103 0 161 -40.5t58 -116.5q0 -8 -2 -28q-11 -69 -69 -107t-154 -38q-52 0 -113 6l-4 -21q-2 -12 -2 -17q0 -47 56 -47q53 0 87 36q16 19 31 19 q11 0 27 -9l65 -33q22 -11 22 -27q0 -14 -13 -31q-71 -96 -243 -96q-110 0 -163 48.5t-53 131.5q0 23 5 55zM282 732q16 15 33 15q13 0 33 -13l125 -84q10 -7 10 -14q0 -9 -15 -24l-34 -33q-9 -9 -21 -9q-9 0 -26 6l-170 60q-15 6 -15 15q0 8 17 25z"/>
<glyph glyph-name="eacute" horiz-adv-x="542" unicode="é" d="M351 362q0 1 0.5 3.5t0.5 3.5q0 34 -56 34q-63 0 -76 -62l-3 -11q37 -5 69 -5q59 0 65 37zM31 324q18 101 92 156t193 55q103 0 161 -40.5t58 -116.5q0 -8 -2 -28q-11 -69 -69 -107t-154 -38q-52 0 -113 6l-4 -21q-2 -12 -2 -17q0 -47 56 -47q53 0 87 36q16 19 31 19 q11 0 27 -9l65 -33q22 -11 22 -27q0 -14 -13 -31q-71 -96 -243 -96q-110 0 -163 48.5t-53 131.5q0 23 5 55zM361 734q26 13 39 13q15 0 27 -15l43 -56q9 -12 9 -21q0 -12 -21 -19l-191 -60q-18 -6 -28 -6q-12 0 -18 9l-22 33q-8 13 -8 19q0 11 17 19z"/>
<glyph glyph-name="ecircumflex" horiz-adv-x="542" unicode="ê" d="M351 362q0 1 0.5 3.5t0.5 3.5q0 34 -56 34q-63 0 -76 -62l-3 -11q37 -5 69 -5q59 0 65 37zM316 535q103 0 161 -40.5t58 -116.5q0 -8 -2 -28q-11 -69 -69 -107t-154 -38q-52 0 -113 6l-4 -21q-2 -12 -2 -17q0 -47 56 -47q53 0 87 36q16 19 31 19q11 0 27 -9l65 -33 q22 -11 22 -27q0 -14 -13 -31q-71 -96 -243 -96q-110 0 -163 48.5t-53 131.5q0 23 5 55l19 104q18 101 92 156t193 55zM154 574q-23 0 -23 12q0 11 14 23l121 102q23 20 36.5 24.5t44.5 4.5h28q27 0 38 -4.5t28 -24.5l84 -102q8 -10 8 -18q0 -17 -29 -17h-77q-31 0 -43 4 t-20 18l-23 35l-37 -35q-15 -14 -27.5 -18t-41.5 -4h-81z"/>
<glyph glyph-name="edieresis" horiz-adv-x="542" unicode="ë" d="M351 362q0 1 0.5 3.5t0.5 3.5q0 34 -56 34q-63 0 -76 -62l-3 -11q37 -5 69 -5q59 0 65 37zM31 324q18 101 92 156t193 55q103 0 161 -40.5t58 -116.5q0 -8 -2 -28q-11 -69 -69 -107t-154 -38q-52 0 -113 6l-4 -21q-2 -12 -2 -17q0 -47 56 -47q53 0 87 36q16 19 31 19 q11 0 27 -9l65 -33q22 -11 22 -27q0 -14 -13 -31q-71 -96 -243 -96q-110 0 -163 48.5t-53 131.5q0 23 5 55zM464 733q34 0 48.5 -10t14.5 -35q0 -11 -3 -26l-2 -13q-8 -40 -26 -56t-59 -16h-7q-35 0 -49.5 11t-14.5 36q0 16 2 25l2 13q7 40 26 55.5t61 15.5h7zM249 733 q34 0 48.5 -10.5t14.5 -35.5q0 -15 -2 -25l-2 -13q-8 -40 -26.5 -56t-59.5 -16h-8q-34 0 -48.5 10.5t-14.5 35.5q0 11 3 26l2 13q8 41 26 56t59 15h8z"/>
<glyph glyph-name="igrave" horiz-adv-x="269" unicode="ì" d="M228 520q18 0 25.5 -5.5t7.5 -18.5q0 -9 -1 -14l-78 -444q-4 -21 -14 -29.5t-32 -8.5h-109q-18 0 -25.5 5.5t-7.5 18.5q0 9 1 14l78 444q4 21 14 29.5t32 8.5h109zM136 732q15 14 31 14q15 0 33 -14l115 -91q10 -8 10 -14q0 -7 -17 -24l-30 -29q-9 -9 -19 -9q-11 0 -27 9 l-155 71q-14 8 -14 15q0 9 19 25z"/>
<glyph glyph-name="iacute" horiz-adv-x="269" unicode="í" d="M228 520q18 0 25.5 -5.5t7.5 -18.5q0 -9 -1 -14l-78 -444q-4 -21 -14 -29.5t-32 -8.5h-109q-18 0 -25.5 5.5t-7.5 18.5q0 9 1 14l78 444q4 21 14 29.5t32 8.5h109zM206 734q23 15 40 15q15 0 27 -13l47 -53q10 -13 10 -21q0 -11 -21 -19l-180 -69q-19 -9 -30 -9 q-10 0 -16 9l-26 31q-8 11 -8 19t15 19z"/>
<glyph glyph-name="icircumflex" horiz-adv-x="269" unicode="î" d="M228 520q18 0 25.5 -5.5t7.5 -18.5q0 -9 -1 -14l-78 -444q-4 -21 -14 -29.5t-32 -8.5h-109q-18 0 -25.5 5.5t-7.5 18.5q0 9 1 14l78 444q4 21 14 29.5t32 8.5h109zM365 607q7 -11 7 -17q0 -17 -28 -17h-75q-29 0 -40.5 4.5t-19.5 18.5l-17 30l-31 -32 q-13 -14 -25.5 -17.5t-41.5 -3.5h-80q-23 0 -23 12q0 8 14 22l112 100q21 19 34.5 23.5t45.5 4.5h26q27 0 38.5 -4.5t26.5 -23.5z"/>
<glyph glyph-name="idieresis" horiz-adv-x="269" unicode="ï" d="M228 520q18 0 25.5 -5.5t7.5 -18.5q0 -9 -1 -14l-78 -444q-4 -21 -14 -29.5t-32 -8.5h-109q-18 0 -25.5 5.5t-7.5 18.5q0 9 1 14l78 444q4 21 14 29.5t32 8.5h109zM318 733q33 0 47.5 -9.5t14.5 -33.5q0 -12 -3 -28l-2 -13q-7 -40 -25 -56t-60 -16h-7q-34 0 -49 10.5 t-15 35.5q0 11 3 26l2 13q7 40 26 55.5t61 15.5h7zM111 733q34 0 49 -10t15 -34q0 -12 -3 -27l-2 -13q-8 -40 -26.5 -56t-59.5 -16h-7q-34 0 -48.5 10t-14.5 35q0 12 3 27l2 13q8 41 25.5 56t59.5 15h7z"/>
<glyph glyph-name="eth" horiz-adv-x="559" unicode="ð" d="M335 291q1 5 1 13q0 41 -53 41q-63 0 -72 -54l-16 -92q-1 -5 -1 -14q0 -39 54 -39q60 0 71 53zM479 758q8 8 14 8t12 -7l32 -29q7 -6 7 -11q0 -7 -10 -16l-32 -30q48 -52 48 -163q0 -52 -13 -130l-32 -182q-18 -103 -91 -158t-194 -55q-105 0 -160 46t-55 129q0 22 5 50 l17 91q17 95 85 143.5t170 48.5q69 0 110 -27q0 3 0.5 8.5t0.5 7.5q0 44 -24 69l-39 -35q-9 -8 -13.5 -8t-13.5 6l-30 21q-6 5 -6 10q0 7 10 17l24 24q-29 6 -113 6q-20 0 -28 6t-8 21q0 8 1 13l13 71q4 23 14 32t33 9q151 0 224 -27z"/>
<glyph glyph-name="ntilde" d="M116 498q100 37 219 37q192 0 192 -164q0 -31 -5 -56l-49 -277q-4 -21 -14 -29.5t-31 -8.5h-110q-32 0 -32 24q0 9 1 14l48 274q2 12 2 16q0 39 -52 39q-26 0 -45 -4q-2 -1 -4 -4l-56 -321q-4 -21 -14 -29.5t-32 -8.5h-109q-18 0 -25.5 5.5t-7.5 18.5q0 9 1 14l71 400 q5 25 15 37.5t37 22.5zM496 731q20 0 20 -15q0 -5 -1 -8q-12 -68 -41 -95.5t-79 -27.5q-42 0 -78 20.5t-47 20.5q-15 0 -19 -22q-3 -19 -22 -19h-62q-19 0 -19 16v7q12 67 41.5 95t76.5 28q43 0 80 -21t48 -21q15 0 19 22q3 20 22 20h61z" unicode="ñ"/>
<glyph glyph-name="ograve" horiz-adv-x="550" unicode="ò" d="M341 321q1 5 1 14q0 40 -54 40q-61 0 -72 -54l-21 -122q-1 -5 -1 -14q0 -39 53 -39q62 0 73 53zM30 323q19 103 91.5 157.5t193.5 54.5q106 0 160.5 -47t54.5 -130q0 -21 -5 -49l-19 -112q-19 -103 -91.5 -157.5t-194.5 -54.5q-104 0 -158.5 47t-54.5 131q0 25 4 48z M280 732q16 15 33 15q13 0 33 -13l125 -84q10 -7 10 -14q0 -9 -15 -24l-34 -33q-9 -9 -21 -9q-9 0 -26 6l-170 60q-15 6 -15 15q0 8 17 25z"/>
<glyph glyph-name="oacute" horiz-adv-x="550" unicode="ó" d="M341 321q1 5 1 14q0 40 -54 40q-61 0 -72 -54l-21 -122q-1 -5 -1 -14q0 -39 53 -39q62 0 73 53zM30 323q19 103 91.5 157.5t193.5 54.5q106 0 160.5 -47t54.5 -130q0 -21 -5 -49l-19 -112q-19 -103 -91.5 -157.5t-194.5 -54.5q-104 0 -158.5 47t-54.5 131q0 25 4 48z M359 734q26 13 39 13q15 0 27 -15l43 -56q9 -12 9 -21q0 -12 -21 -19l-191 -60q-18 -6 -28 -6q-12 0 -18 9l-22 33q-8 13 -8 19q0 11 17 19z"/>
<glyph glyph-name="ocircumflex" horiz-adv-x="550" unicode="ô" d="M341 321q1 5 1 14q0 40 -54 40q-61 0 -72 -54l-21 -122q-1 -5 -1 -14q0 -39 53 -39q62 0 73 53zM315 535q106 0 160 -47t54 -130q0 -26 -4 -49l-19 -112q-19 -103 -91.5 -157.5t-194.5 -54.5q-104 0 -158.5 47t-54.5 131q0 25 4 48l19 112q19 103 91.5 157.5t193.5 54.5z M152 574q-23 0 -23 12q0 11 14 23l121 102q23 20 36.5 24.5t44.5 4.5h28q27 0 38 -4.5t28 -24.5l84 -102q8 -10 8 -18q0 -17 -29 -17h-77q-31 0 -43 4t-20 18l-23 35l-37 -35q-15 -14 -27.5 -18t-41.5 -4h-81z"/>
<glyph glyph-name="otilde" horiz-adv-x="550" unicode="õ" d="M341 321q1 5 1 14q0 40 -54 40q-61 0 -72 -54l-21 -122q-1 -5 -1 -14q0 -39 53 -39q62 0 73 53zM30 323q19 103 91.5 157.5t193.5 54.5q106 0 160.5 -47t54.5 -130q0 -21 -5 -49l-19 -112q-19 -103 -91.5 -157.5t-194.5 -54.5q-104 0 -158.5 47t-54.5 131q0 25 4 48z M497 731q20 0 20 -15q0 -5 -1 -8q-12 -68 -41 -95.5t-79 -27.5q-42 0 -78 20.5t-47 20.5q-15 0 -19 -22q-3 -19 -22 -19h-62q-19 0 -19 16v7q12 67 41.5 95t76.5 28q43 0 80 -21t48 -21q15 0 19 22q3 20 22 20h61z"/>
<glyph glyph-name="odieresis" horiz-adv-x="550" unicode="ö" d="M341 321q1 5 1 14q0 40 -54 40q-61 0 -72 -54l-21 -122q-1 -5 -1 -14q0 -39 53 -39q62 0 73 53zM30 323q19 103 91.5 157.5t193.5 54.5q106 0 160 -47t54 -130q0 -26 -4 -49l-19 -112q-19 -103 -91.5 -157.5t-194.5 -54.5q-104 0 -158.5 47t-54.5 131q0 25 4 48zM462 733 q34 0 48.5 -10t14.5 -35q0 -11 -3 -26l-2 -13q-8 -40 -26 -56t-59 -16h-7q-35 0 -49.5 11t-14.5 36q0 16 2 25l2 13q7 40 26 55.5t61 15.5h7zM247 733q34 0 48.5 -10.5t14.5 -35.5q0 -15 -2 -25l-2 -13q-8 -40 -26.5 -56t-59.5 -16h-8q-34 0 -48.5 10.5t-14.5 35.5 q0 11 3 26l2 13q8 41 26 56t59 15h8z"/>
<glyph glyph-name="divide" horiz-adv-x="554" unicode="÷" d="M286 208q35 0 50 -10t15 -35q0 -13 -3 -30l-1 -11q-8 -43 -27.5 -59.5t-61.5 -16.5h-50q-35 0 -50.5 11t-15.5 37q0 11 3 28l2 11q8 43 27 59t62 16h50zM505 411q36 0 36 -28q0 -9 -1 -15l-15 -85q-4 -24 -15.5 -33t-34.5 -9h-416q-37 0 -37 26q0 4 2 16l15 85 q4 24 15 33.5t35 9.5h416zM356 605q36 0 51 -10.5t15 -36.5q0 -12 -3 -28l-2 -11q-8 -43 -27.5 -59.5t-62.5 -16.5h-50q-36 0 -50.5 10.5t-14.5 36.5q0 12 3 29l2 11q8 43 27 59t62 16h50z"/>
<glyph glyph-name="oslash" horiz-adv-x="551" unicode="ø" d="M207 131q13 -9 36 -9q64 0 73 53l18 100q2 8 2 14zM333 386q-12 13 -40 13q-63 0 -72 -54l-19 -103q-2 -12 -2 -20zM539 552q12 0 12 -6q0 -4 -6 -12l-52 -64q37 -45 37 -111q0 -22 -5 -50l-19 -112q-18 -103 -90.5 -157.5t-194.5 -54.5q-61 0 -106 17l-19 -23 q-12 -14 -35 -14h-57q-12 0 -12 6q0 3 7 12l50 61q-41 46 -41 118q0 26 4 49l19 112q18 103 91 157.5t194 54.5q67 0 113 -20l19 23q12 14 34 14h57z"/>
<glyph glyph-name="ugrave" d="M516 520q18 0 25.5 -5.5t7.5 -18.5q0 -9 -1 -14l-71 -400q-5 -25 -15 -37.5t-37 -22.5q-100 -37 -219 -37q-96 0 -143 44t-47 124q0 33 5 58l47 271q4 21 14 29.5t32 8.5h109q18 0 25.5 -5.5t7.5 -18.5q0 -9 -1 -14l-48 -274q-2 -12 -2 -17q0 -38 51 -38q21 0 41 4 q7 1 9 9l55 316q4 21 14 29.5t32 8.5h109zM282 732q16 15 32 15q14 0 34 -13l125 -84q10 -6 10 -14t-15 -24l-35 -33q-8 -9 -20 -9q-11 0 -27 6l-169 60q-16 6 -16 15q0 7 18 25z" unicode="ù"/>
<glyph glyph-name="uacute" d="M516 520q18 0 25.5 -5.5t7.5 -18.5q0 -9 -1 -14l-71 -400q-5 -25 -15 -37.5t-37 -22.5q-100 -37 -219 -37q-96 0 -143 44t-47 124q0 33 5 58l47 271q4 21 14 29.5t32 8.5h109q18 0 25.5 -5.5t7.5 -18.5q0 -9 -1 -14l-48 -274q-2 -12 -2 -17q0 -38 51 -38q21 0 41 4 q7 1 9 9l55 316q4 21 14 29.5t32 8.5h109zM361 734q24 13 38 13q16 0 28 -15l42 -56q10 -13 10 -21q0 -12 -22 -19l-190 -60q-20 -6 -29 -6q-11 0 -17 9l-23 33q-7 11 -7 19q0 10 16 19z" unicode="ú"/>
<glyph glyph-name="ucircumflex" d="M516 520q18 0 25.5 -5.5t7.5 -18.5q0 -9 -1 -14l-71 -400q-5 -25 -15 -37.5t-37 -22.5q-100 -37 -219 -37q-96 0 -143 44t-47 124q0 33 5 58l47 271q4 21 14 29.5t32 8.5h109q18 0 25.5 -5.5t7.5 -18.5q0 -9 -1 -14l-48 -274q-2 -12 -2 -17q0 -38 51 -38q21 0 41 4 q7 1 9 9l55 316q4 21 14 29.5t32 8.5h109zM374 740q28 0 39 -4.5t27 -24.5l85 -102q7 -8 7 -18q0 -17 -29 -17h-77q-31 0 -42.5 4t-19.5 18l-23 35l-37 -35q-15 -14 -28 -18t-41 -4h-81q-23 0 -23 12q0 11 14 23l120 102q23 19 36.5 24t45.5 5h27z" unicode="û"/>
<glyph glyph-name="udieresis" d="M516 520q18 0 25.5 -5.5t7.5 -18.5q0 -9 -1 -14l-71 -400q-5 -25 -15 -37.5t-37 -22.5q-100 -37 -219 -37q-96 0 -143 44t-47 124q0 33 5 58l47 271q4 21 14 29.5t32 8.5h109q18 0 25.5 -5.5t7.5 -18.5q0 -9 -1 -14l-48 -274q-2 -12 -2 -17q0 -38 51 -38q21 0 41 4 q7 1 9 9l55 316q4 21 14 29.5t32 8.5h109zM463 733q34 0 48.5 -10t14.5 -34q0 -12 -3 -27l-2 -13q-8 -40 -26 -56t-59 -16h-7q-34 0 -49 10.5t-15 35.5q0 11 3 26l2 13q7 40 26 55.5t60 15.5h7zM248 733q34 0 49 -10t15 -34q0 -12 -3 -27l-2 -13q-8 -40 -26.5 -56t-59.5 -16 h-7q-34 0 -48.5 10t-14.5 35q0 12 3 27l2 13q8 41 25.5 56t59.5 15h7z" unicode="ü"/>
<glyph glyph-name="yacute" horiz-adv-x="558" unicode="ý" d="M516 520q32 0 32 -24q0 -9 -1 -14l-85 -487q-41 -225 -280 -225q-82 0 -129 25t-70 76q-5 10 -5 21q0 23 33 37l85 39q18 8 27 8q14 0 26 -21q19 -33 58 -33q55 0 66 58l6 39q-27 -4 -68 -4q-95 0 -142.5 45.5t-47.5 126.5q0 33 5 58l42 237q4 21 13.5 29.5t31.5 8.5h110 q32 0 32 -24q0 -9 -1 -14l-43 -244q-2 -12 -2 -16q0 -39 53 -39q27 0 47 4l52 295q4 21 14 29.5t31 8.5h110zM361 734q24 13 38 13q16 0 28 -15l42 -56q9 -12 9 -21q0 -12 -21 -19l-191 -60q-18 -6 -28 -6q-12 0 -17 9l-23 33q-8 13 -8 19q0 11 17 19z"/>
<glyph glyph-name="thorn" horiz-adv-x="550" unicode="þ" d="M339 324q1 4 1 11q0 38 -49 38q-25 0 -51 -6l-38 -216q20 -5 43 -5q62 0 72 55zM112 701q4 22 13.5 30.5t31.5 8.5h110q33 0 33 -25q0 -9 -1 -14l-30 -169q29 3 63 3q98 0 147 -44.5t49 -124.5q0 -23 -5 -56l-19 -108q-38 -217 -271 -217q-13 0 -60 5l-30 -171 q-4 -22 -13.5 -30t-31.5 -8h-110q-33 0 -33 23q0 3 2 15z"/>
<glyph glyph-name="Amacron" horiz-adv-x="688" unicode="Ā" d="M386 388q-3 27 -3 54l6 86h-9q-13 -72 -45 -139l-57 -118h124zM638 41q1 -4 1 -11q0 -30 -38 -30h-104q-37 0 -51 9t-16 33l-10 72h-217l-35 -72q-12 -24 -28 -33t-52 -9h-110q-28 0 -28 16q0 10 9 25l342 634q11 21 23 28t35 7h113q22 0 32.5 -7t14.5 -26zM569 892 q18 0 25 -4.5t7 -17.5q0 -8 -1 -14l-8 -42q-4 -22 -12.5 -29t-30.5 -7h-243q-32 0 -32 21q0 3 2 15l8 42q4 21 13 28.5t29 7.5h243z"/>
<glyph glyph-name="amacron" horiz-adv-x="545" unicode="ā" d="M327 369q-15 4 -39 4q-33 0 -50 -12.5t-22 -42.5l-22 -122q-1 -4 -1 -11q0 -39 49 -39q32 0 52 5l37 211q2 6 -4 7zM31 324q19 109 87.5 160t192.5 51t192 -34q18 -9 24.5 -16.5t6.5 -19.5q0 -9 -3 -22l-68 -387q-4 -21 -13.5 -31t-32.5 -16q-99 -24 -217 -24 q-96 0 -144.5 46.5t-48.5 128.5q0 23 5 56zM473 710q32 0 32 -21q0 -3 -2 -15l-8 -42q-3 -22 -11.5 -29t-30.5 -7h-244q-18 0 -24.5 4.5t-6.5 17.5q0 9 1 14l8 42q4 21 13 28.5t29 7.5h244z"/>
<glyph glyph-name="Abreve" horiz-adv-x="688" unicode="Ă" d="M386 388q-3 27 -3 54l6 86h-9q-13 -72 -45 -139l-57 -118h124zM638 41q1 -4 1 -11q0 -30 -38 -30h-104q-37 0 -51 9t-16 33l-10 72h-217l-35 -72q-12 -24 -28 -33t-52 -9h-110q-28 0 -28 16q0 10 9 25l342 634q11 21 23 28t35 7h113q22 0 32.5 -7t14.5 -26zM620 860 q-59 -106 -196 -106q-66 0 -106.5 27.5t-51.5 78.5q-1 3 -1 9q0 15 24 26l71 25q11 4 19 4q10 0 17 -16q12 -33 49 -33q35 0 60 33q13 16 23 16q6 0 15 -3l65 -26q17 -6 17 -18q0 -8 -5 -17z"/>
<glyph glyph-name="abreve" horiz-adv-x="545" unicode="ă" d="M327 369q-15 4 -39 4q-33 0 -50 -12.5t-22 -42.5l-22 -122q-1 -4 -1 -11q0 -39 49 -39q32 0 52 5l37 211q2 6 -4 7zM31 324q19 109 87.5 160t192.5 51t192 -34q18 -9 24.5 -16.5t6.5 -19.5q0 -9 -3 -22l-68 -387q-4 -21 -13.5 -31t-32.5 -16q-99 -24 -217 -24 q-96 0 -144.5 46.5t-48.5 128.5q0 23 5 56zM524 680q-58 -106 -195 -106q-66 0 -107 27.5t-51 78.5q-2 8 -2 10q0 16 25 25l68 24q11 4 19 4q11 0 18 -16q12 -32 50 -32q36 0 60 33q13 16 23 16q3 0 15 -4l66 -25q17 -8 17 -18q0 -7 -6 -17z"/>
<glyph glyph-name="Aogonek" horiz-adv-x="688" unicode="Ą" d="M386 388q-3 27 -3 54l6 86h-9q-13 -72 -45 -139l-57 -118h124zM472 710q22 0 32.5 -7t14.5 -26l119 -636q1 -4 1 -11q0 -15 -10 -24q-82 -70 -84 -121q0 -19 15 -19q8 0 19 6q20 11 23 -6l13 -51q2 -8 2 -10q0 -11 -13 -19q-47 -32 -118 -32q-92 0 -95 73q-1 85 107 173 q-39 1 -52.5 9.5t-15.5 32.5l-10 72h-217l-35 -72q-12 -24 -28 -33t-52 -9h-110q-28 0 -28 16q0 10 9 25l342 634q11 21 23 28t35 7h113z"/>
<glyph glyph-name="aogonek" horiz-adv-x="546" unicode="ą" d="M327 369q-15 4 -39 4q-33 0 -50 -12.5t-22 -42.5l-22 -122q-1 -4 -1 -11q0 -39 49 -39q32 0 52 5l37 211q2 6 -4 7zM31 324q19 109 87.5 160t192.5 51t192 -34q18 -9 24.5 -16.5t6.5 -19.5q0 -9 -3 -22l-68 -387q-4 -21 -15 -32q-85 -82 -88 -139q0 -19 15 -19q9 0 19 6 q18 11 23 -6l13 -51q1 -3 1 -9q0 -12 -12 -20q-47 -32 -118 -32q-40 0 -67.5 17t-27.5 56q0 82 95 163q-40 -5 -101 -5q-96 0 -144.5 46.5t-48.5 128.5q0 23 5 56z"/>
<glyph glyph-name="Cacute" horiz-adv-x="647" unicode="Ć" d="M62 459q22 129 113.5 197.5t239.5 68.5q216 0 249 -178q2 -12 2 -16q0 -27 -36 -38l-103 -35q-12 -4 -23 -4q-20 0 -27 31q-7 34 -28 49.5t-63 15.5q-58 0 -88.5 -25.5t-39.5 -78.5l-33 -182q-3 -16 -3 -30q0 -38 22.5 -56t72.5 -18q79 0 115 65q19 32 38 32q8 0 21 -5 l104 -40q26 -9 26 -27q0 -11 -9 -27q-94 -173 -323 -173q-128 0 -196.5 61.5t-68.5 167.5q0 34 5 60zM461 914q24 12 38 12q17 0 28 -15l41 -58q9 -12 9 -21q0 -12 -22 -19l-191 -56q-20 -5 -27 -5q-13 0 -19 10l-21 33q-7 11 -7 19q0 10 16 19z"/>
<glyph glyph-name="cacute" horiz-adv-x="517" unicode="ć" d="M31 324q38 211 279 211q89 0 138.5 -38.5t60.5 -101.5q1 -5 1 -14q0 -28 -36 -39l-89 -30q-15 -5 -23 -5q-21 0 -27 32q-9 40 -55 40q-53 0 -64 -55l-22 -129q-1 -5 -1 -14q0 -40 44 -40q42 0 67 41q16 30 36 30q8 0 23 -5l91 -29q26 -9 26 -27q0 -12 -10 -29 q-81 -137 -259 -137q-103 0 -153.5 45.5t-50.5 127.5q0 23 5 56zM343 734q24 13 38 13q16 0 28 -15l42 -56q10 -13 10 -21q0 -12 -22 -19l-191 -60q-18 -6 -28 -6q-12 0 -17 9l-23 33q-8 13 -8 19q0 10 17 19z"/>
<glyph glyph-name="Ccircumflex" horiz-adv-x="647" unicode="Ĉ" d="M62 459q22 129 113.5 197.5t239.5 68.5q216 0 249 -178q2 -12 2 -16q0 -27 -36 -38l-103 -35q-12 -4 -23 -4q-20 0 -27 31q-7 34 -28 49.5t-63 15.5q-58 0 -88.5 -25.5t-39.5 -78.5l-33 -182q-3 -16 -3 -30q0 -38 22.5 -56t72.5 -18q79 0 115 65q19 32 38 32q8 0 21 -5 l104 -40q26 -9 26 -27q0 -11 -9 -27q-94 -173 -323 -173q-128 0 -196.5 61.5t-68.5 167.5q0 34 5 60zM473 920q27 0 38.5 -5t27.5 -25l84 -102q8 -10 8 -18q0 -16 -28 -16h-83q-31 0 -42.5 3.5t-20.5 17.5l-22 36l-38 -35q-15 -15 -27 -18.5t-41 -3.5h-81q-24 0 -24 12 q0 9 15 22l120 102q24 20 37 25t45 5h32z"/>
<glyph glyph-name="ccircumflex" horiz-adv-x="517" unicode="ĉ" d="M310 535q89 0 138.5 -38.5t60.5 -101.5q1 -5 1 -14q0 -28 -36 -39l-89 -30q-15 -5 -23 -5q-21 0 -27 32q-9 40 -55 40q-53 0 -64 -55l-22 -129q-1 -5 -1 -14q0 -40 44 -40q42 0 67 41q16 30 36 30q8 0 23 -5l91 -29q26 -9 26 -27q0 -12 -10 -29q-81 -137 -259 -137 q-103 0 -153.5 45.5t-50.5 127.5q0 23 5 56l19 110q38 211 279 211zM507 609q7 -8 7 -18q0 -17 -29 -17h-77q-31 0 -42.5 4t-20.5 18l-22 35l-37 -35q-15 -14 -28 -18t-41 -4h-81q-24 0 -24 12q0 10 15 23l120 102q23 20 36.5 24.5t45.5 4.5h27q27 0 38 -4.5t28 -24.5z"/>
<glyph glyph-name="Cdotaccent" horiz-adv-x="647" unicode="Ċ" d="M62 459q22 129 113.5 197.5t239.5 68.5q216 0 249 -178q2 -12 2 -16q0 -27 -36 -38l-103 -35q-12 -4 -23 -4q-20 0 -27 31q-7 34 -28 49.5t-63 15.5q-58 0 -88.5 -25.5t-39.5 -78.5l-33 -182q-3 -16 -3 -30q0 -38 22.5 -56t72.5 -18q79 0 115 65q19 32 38 32q8 0 21 -5 l104 -40q26 -9 26 -27q0 -11 -9 -27q-94 -173 -323 -173q-128 0 -196.5 61.5t-68.5 167.5q0 34 5 60zM455 915q35 0 49.5 -10t14.5 -35q0 -12 -3 -30l-2 -8q-8 -44 -26 -59.5t-61 -15.5h-6q-37 0 -51.5 10t-14.5 37q0 13 3 28l2 8q8 44 26.5 59.5t62.5 15.5h6z"/>
<glyph glyph-name="cdotaccent" horiz-adv-x="517" unicode="ċ" d="M31 324q38 211 279 211q89 0 138.5 -38.5t60.5 -101.5q1 -5 1 -14q0 -28 -36 -39l-89 -30q-15 -5 -23 -5q-21 0 -27 32q-9 40 -55 40q-53 0 -64 -55l-22 -129q-1 -5 -1 -14q0 -40 44 -40q42 0 67 41q16 30 36 30q8 0 23 -5l91 -29q26 -9 26 -27q0 -12 -10 -29 q-81 -137 -259 -137q-103 0 -153.5 45.5t-50.5 127.5q0 23 5 56zM338 736q35 0 49.5 -10t14.5 -35q0 -12 -3 -30l-2 -8q-7 -43 -25 -59t-62 -16h-6q-36 0 -50.5 10t-14.5 36q0 12 3 29l2 8q7 43 25.5 59t62.5 16h6z"/>
<glyph glyph-name="Ccaron" horiz-adv-x="647" unicode="Č" d="M62 459q22 129 113.5 197.5t239.5 68.5q216 0 249 -178q2 -12 2 -16q0 -27 -36 -38l-103 -35q-12 -4 -23 -4q-20 0 -27 31q-7 34 -28 49.5t-63 15.5q-58 0 -88.5 -25.5t-39.5 -78.5l-33 -182q-3 -16 -3 -30q0 -38 22.5 -56t72.5 -18q79 0 115 65q19 32 38 32q8 0 21 -5 l104 -40q26 -9 26 -27q0 -11 -9 -27q-94 -173 -323 -173q-128 0 -196.5 61.5t-68.5 167.5q0 34 5 60zM628 920q23 0 23 -12q0 -9 -16 -23l-118 -102q-23 -20 -36.5 -24.5t-43.5 -4.5h-28q-29 0 -40.5 4.5t-26.5 24.5l-83 102q-9 13 -9 20q0 15 26 15h84q30 0 41.5 -4 t21.5 -18l24 -34l35 34q15 14 28 18t42 4h76z"/>
<glyph glyph-name="ccaron" horiz-adv-x="517" unicode="č" d="M310 535q89 0 138.5 -38.5t60.5 -101.5q1 -5 1 -14q0 -28 -36 -39l-89 -30q-15 -5 -23 -5q-21 0 -27 32q-9 40 -55 40q-53 0 -64 -55l-22 -129q-1 -5 -1 -14q0 -40 44 -40q42 0 67 41q16 30 36 30q8 0 23 -5l91 -29q26 -9 26 -27q0 -12 -10 -29q-81 -137 -259 -137 q-103 0 -153.5 45.5t-50.5 127.5q0 23 5 56l19 110q38 211 279 211zM511 739q23 0 23 -11q0 -9 -16 -23l-119 -102q-23 -20 -36 -25t-43 -5h-28q-29 0 -40 5t-28 25l-82 102q-9 11 -9 19q0 15 26 15h82q30 0 41 -4t21 -17l24 -35l36 34q15 14 28 18t42 4h78z"/>
<glyph glyph-name="Dcaron" horiz-adv-x="677" unicode="Ď" d="M468 427q3 17 3 30q0 78 -100 78h-81l-64 -360h82q115 0 135 108zM408 710q126 0 194 -62t68 -168q0 -32 -6 -65l-26 -150q-23 -130 -113 -197.5t-239 -67.5h-246q-37 0 -37 26q0 4 2 16l110 626q5 23 15.5 32.5t34.5 9.5h243zM601 920q22 0 22 -12q0 -10 -15 -23 l-118 -102q-24 -20 -37 -24.5t-44 -4.5h-27q-29 0 -40.5 4.5t-27.5 24.5l-83 102q-8 10 -8 19q0 16 26 16h84q30 0 41.5 -4t20.5 -18l25 -34l35 34q15 14 28 18t42 4h76z"/>
<glyph glyph-name="dcaron" horiz-adv-x="655" unicode="ď" d="M332 369q-23 5 -43 5q-63 0 -73 -55l-21 -123q-1 -4 -1 -12q0 -37 49 -37q28 0 48 4q2 1 4 5zM715 539q-8 -21 -18 -28t-31 -7h-48q-27 0 -27 23q0 7 1 11l36 160q5 25 14.5 33.5t32.5 8.5h72q38 0 38 -23q0 -7 -5 -19zM32 328q19 108 84 157.5t178 49.5q7 0 67 -3 l30 170q4 21 14 29.5t31 8.5h110q32 0 32 -24q0 -9 -1 -14l-110 -625q-4 -25 -14 -35.5t-37 -21.5q-95 -35 -212 -35q-98 0 -147 47.5t-49 129.5q0 32 5 57z"/>
<glyph glyph-name="Dcroat" horiz-adv-x="705" unicode="Đ" d="M496 427q3 16 3 31q0 39 -23.5 58t-76.5 19h-82l-19 -111h82q20 0 20 -14q0 -7 -1 -12l-13 -76q-3 -16 -9 -21t-20 -5h-82l-21 -121h81q116 0 136 108zM436 710q126 0 194 -61.5t68 -167.5q0 -31 -6 -64l-26 -150q-23 -129 -114 -198t-241 -69h-244q-20 0 -28 6t-8 21 q0 9 1 15l45 254h-46q-21 0 -21 15q0 7 1 11l13 76q5 26 30 26h46l43 244q4 23 14.5 32.5t34.5 9.5h244z"/>
<glyph glyph-name="dcroat" horiz-adv-x="548" unicode="đ" d="M332 369q-20 5 -43 5q-62 0 -72 -55l-22 -123q-1 -5 -1 -13q0 -36 49 -36q28 0 48 4q2 1 4 5zM617 682q21 0 21 -16q0 -6 -1 -10l-8 -47q-3 -16 -9 -21.5t-20 -5.5h-43l-90 -505q-5 -25 -14.5 -36t-36.5 -21q-95 -35 -212 -35q-99 0 -148 45.5t-49 127.5q0 23 5 56 l19 109q38 212 263 212q10 0 67 -3l9 50h-86q-21 0 -21 16q0 7 1 11l9 47q4 26 28 26h87l3 20q4 21 14 29.5t32 8.5h109q18 0 25.5 -5.5t7.5 -18.5q0 -9 -1 -14l-4 -20h43z"/>
<glyph glyph-name="Emacron" horiz-adv-x="588" unicode="Ē" d="M584 710q37 0 37 -28q0 -9 -1 -14l-16 -90q-4 -24 -15.5 -33.5t-34.5 -9.5h-264l-16 -89h211q20 0 28 -6t8 -21q0 -9 -1 -15l-16 -90q-5 -24 -15.5 -33.5t-34.5 -9.5h-211l-17 -96h273q36 0 36 -26q0 -4 -2 -16l-16 -91q-4 -23 -15 -32.5t-35 -9.5h-427q-37 0 -37 26 q0 4 2 16l110 626q5 23 15.5 32.5t34.5 9.5h419zM529 892q18 0 24.5 -4.5t6.5 -16.5q0 -9 -1 -15l-7 -42q-4 -22 -13 -29t-30 -7h-244q-17 0 -24 4t-7 16q0 4 2 16l7 42q4 21 13 28.5t29 7.5h244z"/>
<glyph glyph-name="emacron" horiz-adv-x="542" unicode="ē" d="M351 362q0 1 0.5 3.5t0.5 3.5q0 34 -56 34q-63 0 -76 -62l-3 -11q37 -5 69 -5q59 0 65 37zM316 535q103 0 161 -40.5t58 -116.5q0 -8 -2 -28q-11 -69 -69 -107t-154 -38q-52 0 -113 6l-4 -21q-2 -12 -2 -17q0 -47 56 -47q53 0 87 36q16 19 31 19q11 0 27 -9l65 -33 q22 -11 22 -27q0 -14 -13 -31q-71 -96 -243 -96q-110 0 -163 48.5t-53 131.5q0 23 5 55l19 104q18 101 92 156t193 55zM206 596q-31 0 -31 21q0 3 2 15l7 42q4 21 13.5 28.5t28.5 7.5h244q18 0 25 -4t7 -16q0 -4 -2 -16l-7 -42q-4 -22 -12.5 -29t-30.5 -7h-244z"/>
<glyph glyph-name="Ebreve" horiz-adv-x="588" unicode="Ĕ" d="M584 710q37 0 37 -28q0 -9 -1 -14l-16 -90q-4 -24 -15.5 -33.5t-34.5 -9.5h-264l-16 -89h211q20 0 28 -6t8 -21q0 -9 -1 -15l-16 -90q-5 -24 -15.5 -33.5t-34.5 -9.5h-211l-17 -96h273q36 0 36 -26q0 -4 -2 -16l-16 -91q-4 -23 -15 -32.5t-35 -9.5h-427q-37 0 -37 26 q0 4 2 16l110 626q5 23 15.5 32.5t34.5 9.5h419zM579 860q-59 -106 -196 -106q-66 0 -106.5 27.5t-50.5 78.5q-2 8 -2 10q0 16 24 25l71 25q11 4 19 4q10 0 17 -16q12 -33 49 -33q34 0 60 33q13 16 23 16q6 0 15 -3l65 -26q18 -6 18 -18q0 -7 -6 -17z"/>
<glyph glyph-name="ebreve" horiz-adv-x="542" unicode="ĕ" d="M351 362q0 1 0.5 3.5t0.5 3.5q0 34 -56 34q-63 0 -76 -62l-3 -11q37 -5 69 -5q59 0 65 37zM31 324q18 101 92 156t193 55q103 0 161 -40.5t58 -116.5q0 -8 -2 -28q-11 -69 -69 -107t-154 -38q-52 0 -113 6l-4 -21q-2 -12 -2 -17q0 -47 56 -47q53 0 87 36q16 19 31 19 q11 0 27 -9l65 -33q22 -11 22 -27q0 -14 -13 -31q-71 -96 -243 -96q-110 0 -163 48.5t-53 131.5q0 23 5 55zM521 680q-58 -106 -194 -106q-66 0 -107.5 27.5t-51.5 78.5q-1 4 -1 10q0 17 24 25l68 24q11 4 19 4q11 0 18 -16q12 -32 50 -32q37 0 60 33q13 16 23 16q3 0 15 -4 l66 -25q17 -8 17 -18q0 -7 -6 -17z"/>
<glyph glyph-name="Edotaccent" horiz-adv-x="588" unicode="Ė" d="M584 710q37 0 37 -28q0 -9 -1 -14l-16 -90q-4 -24 -15.5 -33.5t-34.5 -9.5h-264l-16 -89h211q20 0 28 -6t8 -21q0 -9 -1 -15l-16 -90q-5 -24 -15.5 -33.5t-34.5 -9.5h-211l-17 -96h273q36 0 36 -26q0 -4 -2 -16l-16 -91q-4 -23 -15 -32.5t-35 -9.5h-427q-37 0 -37 26 q0 4 2 16l110 626q5 23 15.5 32.5t34.5 9.5h419zM414 915q36 0 50.5 -10t14.5 -36q0 -13 -3 -29l-2 -8q-8 -44 -26 -59.5t-62 -15.5h-6q-36 0 -50.5 10t-14.5 36q0 13 3 29l2 8q7 43 25.5 59t62.5 16h6z"/>
<glyph glyph-name="edotaccent" horiz-adv-x="542" unicode="ė" d="M351 362q0 1 0.5 3.5t0.5 3.5q0 34 -56 34q-63 0 -76 -62l-3 -11q37 -5 69 -5q59 0 65 37zM31 324q18 101 92 156t193 55q103 0 161 -40.5t58 -116.5q0 -8 -2 -28q-11 -69 -69 -107t-154 -38q-52 0 -113 6l-4 -21q-2 -12 -2 -17q0 -47 56 -47q53 0 87 36q16 19 31 19 q11 0 27 -9l65 -33q22 -11 22 -27q0 -14 -13 -31q-71 -96 -243 -96q-110 0 -163 48.5t-53 131.5q0 23 5 55zM356 736q36 0 50.5 -10t14.5 -35q0 -13 -3 -30l-2 -8q-8 -44 -26 -59.5t-61 -15.5h-6q-36 0 -51 10t-15 36q0 12 3 29l2 8q7 43 25.5 59t62.5 16h6z"/>
<glyph glyph-name="Eogonek" horiz-adv-x="588" unicode="Ę" d="M584 710q37 0 37 -28q0 -9 -1 -14l-16 -90q-4 -24 -15.5 -33.5t-34.5 -9.5h-264l-16 -89h211q20 0 28 -6t8 -21q0 -9 -1 -15l-16 -90q-5 -24 -15.5 -33.5t-34.5 -9.5h-211l-17 -96h273q36 0 36 -26q0 -4 -2 -16l-16 -91q-4 -23 -21 -36q-81 -68 -83 -121q0 -19 15 -19 q8 0 19 6q18 11 23 -6l13 -51q1 -3 1 -9q0 -12 -12 -20q-47 -32 -118 -32q-95 0 -95 75q0 84 109 171h-328q-37 0 -37 26q0 4 2 16l110 626q5 23 15.5 32.5t34.5 9.5h419z"/>
<glyph glyph-name="eogonek" horiz-adv-x="543" unicode="ę" d="M286 325q59 0 65 37q0 1 0.5 3.5t0.5 3.5q0 34 -56 34q-63 0 -76 -62l-3 -11q37 -5 69 -5zM31 324q18 101 92 156t193 55q103 0 161 -40.5t58 -116.5q0 -8 -2 -28q-11 -69 -69 -107t-154 -38q-52 0 -113 6l-4 -21q-2 -12 -2 -17q0 -47 56 -47q53 0 87 36q16 19 31 19 q11 0 27 -9l65 -33q22 -11 22 -27q0 -14 -13 -31q-12 -15 -30 -32q-60 -59 -87 -101t-28 -63q0 -19 16 -19q9 0 19 6q18 11 23 -6l12 -51q2 -8 2 -10q0 -10 -12 -19q-47 -32 -118 -32q-93 0 -94 73q-3 79 90 160q-22 -2 -36 -2q-110 0 -163 48.5t-53 131.5q0 23 5 55z"/>
<glyph glyph-name="Ecaron" horiz-adv-x="588" unicode="Ě" d="M584 710q37 0 37 -28q0 -9 -1 -14l-16 -90q-4 -24 -15.5 -33.5t-34.5 -9.5h-264l-16 -89h211q20 0 28 -6t8 -21q0 -9 -1 -15l-16 -90q-5 -24 -15.5 -33.5t-34.5 -9.5h-211l-17 -96h273q36 0 36 -26q0 -4 -2 -16l-16 -91q-4 -23 -15 -32.5t-35 -9.5h-427q-37 0 -37 26 q0 4 2 16l110 626q5 23 15.5 32.5t34.5 9.5h419zM588 920q22 0 22 -11t-16 -24l-118 -102q-24 -20 -36.5 -24.5t-43.5 -4.5h-27q-29 0 -40.5 4.5t-27.5 24.5l-83 102q-9 13 -9 20q0 15 27 15h84q30 0 41.5 -4t20.5 -18l25 -34l35 34q15 14 28 18t42 4h76z"/>
<glyph glyph-name="ecaron" horiz-adv-x="542" unicode="ě" d="M351 362q0 1 0.5 3.5t0.5 3.5q0 34 -56 34q-63 0 -76 -62l-3 -11q37 -5 69 -5q59 0 65 37zM316 535q103 0 161 -40.5t58 -116.5q0 -8 -2 -28q-11 -69 -69 -107t-154 -38q-52 0 -113 6l-4 -21q-2 -12 -2 -17q0 -47 56 -47q53 0 87 36q16 19 31 19q11 0 27 -9l65 -33 q22 -11 22 -27q0 -14 -13 -31q-71 -96 -243 -96q-110 0 -163 48.5t-53 131.5q0 23 5 55l19 104q18 101 92 156t193 55zM530 739q22 0 22 -11q0 -10 -16 -23l-118 -102q-24 -21 -36.5 -25.5t-43.5 -4.5h-27q-29 0 -40.5 5t-27.5 25l-83 102q-8 10 -8 19q0 15 26 15h81 q30 0 41.5 -4t20.5 -17l25 -35l35 34q15 14 28 18t42 4h79z"/>
<glyph glyph-name="Gcircumflex" horiz-adv-x="675" unicode="Ĝ" d="M625 408q36 0 36 -27q0 -4 -2 -16l-25 -145q-19 -109 -109.5 -172t-236.5 -63q-127 0 -195.5 62.5t-68.5 169.5q0 31 6 62l32 181q22 130 112.5 197.5t239.5 67.5q218 0 252 -178q2 -12 2 -15q0 -28 -37 -39l-102 -31q-13 -4 -24 -4q-20 0 -26 31q-15 61 -94 61 q-58 0 -88 -25.5t-40 -78.5l-32 -182q-3 -16 -3 -30q0 -74 94 -74q51 0 83 18t38 50l3 20h-96q-20 0 -28 6t-8 21q0 9 1 15l13 75q5 24 15.5 33.5t34.5 9.5h253zM473 930q27 0 38.5 -5t26.5 -25l85 -102q8 -10 8 -18q0 -16 -29 -16h-82q-31 0 -43 3.5t-20 17.5l-23 36 l-37 -35q-15 -15 -27 -18.5t-42 -3.5h-80q-24 0 -24 12q0 9 15 22l119 102q25 20 38 25t45 5h32z"/>
<glyph glyph-name="gcircumflex" horiz-adv-x="548" unicode="ĝ" d="M331 364q2 3 -2 5q-13 4 -40 4q-63 0 -73 -55l-16 -93q-1 -5 -1 -13q0 -37 49 -37q1 0 51 5zM503 501q18 -8 24.5 -16t6.5 -21q0 -5 -2 -21l-80 -452q-38 -224 -274 -224q-158 0 -205 104q-5 10 -5 20q0 24 34 38l85 39q15 7 27 7q16 0 25 -17q21 -36 59 -36q55 0 66 58 l7 40q-42 -6 -67 -6q-96 0 -144.5 46t-48.5 126q0 28 6 58l14 82q19 108 88 158.5t193 50.5q125 0 191 -34zM157 574q-24 0 -24 12q0 10 15 23l120 102q23 20 36.5 24.5t45.5 4.5h27q27 0 38 -4.5t28 -24.5l85 -102q7 -8 7 -18q0 -17 -29 -17h-77q-31 0 -42.5 4t-20.5 18 l-22 35l-37 -35q-15 -14 -28 -18t-41 -4h-81z"/>
<glyph glyph-name="Gbreve" horiz-adv-x="675" unicode="Ğ" d="M625 408q36 0 36 -27q0 -4 -2 -16l-25 -145q-19 -109 -109.5 -172t-236.5 -63q-127 0 -195.5 62.5t-68.5 169.5q0 31 6 62l32 181q22 130 112.5 197.5t239.5 67.5q218 0 252 -178q2 -12 2 -15q0 -28 -37 -39l-102 -31q-13 -4 -24 -4q-20 0 -26 31q-15 61 -94 61 q-58 0 -88 -25.5t-40 -78.5l-32 -182q-3 -16 -3 -30q0 -74 94 -74q51 0 83 18t38 50l3 20h-96q-20 0 -28 6t-8 21q0 9 1 15l13 75q5 24 15.5 33.5t34.5 9.5h253zM619 870q-59 -106 -196 -106q-66 0 -106.5 27.5t-50.5 78.5q-1 4 -1 10q0 17 24 25l71 25q11 4 18 4 q10 0 17 -16q13 -33 49 -33t60 33q13 16 23 16q6 0 15 -3l66 -26q17 -6 17 -17q0 -8 -6 -18z"/>
<glyph glyph-name="gbreve" horiz-adv-x="548" unicode="ğ" d="M329 369q-13 4 -40 4q-63 0 -73 -55l-16 -93q-1 -5 -1 -13q0 -37 49 -37q1 0 51 5l32 184q2 3 -2 5zM31 326q19 108 88 158.5t193 50.5q125 0 191 -34q18 -8 24.5 -16t6.5 -21q0 -5 -2 -21l-80 -452q-38 -224 -274 -224q-158 0 -205 104q-5 10 -5 20q0 24 34 38l85 39 q15 7 27 7q16 0 25 -17q21 -36 59 -36q55 0 66 58l7 40q-42 -6 -67 -6q-96 0 -144.5 46t-48.5 126q0 28 6 58zM524 680q-60 -106 -195 -106q-137 0 -159 106q-1 4 -1 10q0 17 24 25l69 24q11 4 19 4q10 0 17 -16q12 -32 50 -32q37 0 61 33q12 16 22 16q3 0 15 -4l66 -25 q17 -7 17 -18q0 -8 -5 -17z"/>
<glyph glyph-name="Gdotaccent" horiz-adv-x="675" unicode="Ġ" d="M625 408q36 0 36 -27q0 -4 -2 -16l-25 -145q-19 -109 -109.5 -172t-236.5 -63q-127 0 -195.5 62.5t-68.5 169.5q0 31 6 62l32 181q22 130 112.5 197.5t239.5 67.5q218 0 252 -178q2 -12 2 -15q0 -28 -37 -39l-102 -31q-13 -4 -24 -4q-20 0 -26 31q-15 61 -94 61 q-58 0 -88 -25.5t-40 -78.5l-32 -182q-3 -16 -3 -30q0 -74 94 -74q51 0 83 18t38 50l3 20h-96q-20 0 -28 6t-8 21q0 9 1 15l13 75q5 24 15.5 33.5t34.5 9.5h253zM454 925q36 0 50.5 -10t14.5 -35q0 -14 -3 -30l-2 -8q-8 -44 -26 -59.5t-61 -15.5h-6q-36 0 -51 10t-15 36 q0 13 3 29l2 8q7 43 25.5 59t62.5 16h6z"/>
<glyph glyph-name="gdotaccent" horiz-adv-x="548" unicode="ġ" d="M329 369q-13 4 -40 4q-63 0 -73 -55l-16 -93q-1 -5 -1 -13q0 -37 49 -37q1 0 51 5l32 184q2 3 -2 5zM31 326q19 108 88 158.5t193 50.5q125 0 191 -34q18 -8 24.5 -16t6.5 -21q0 -5 -2 -21l-80 -452q-38 -224 -274 -224q-158 0 -205 104q-5 10 -5 20q0 24 34 38l85 39 q15 7 27 7q16 0 25 -17q21 -36 59 -36q55 0 66 58l7 40q-42 -6 -67 -6q-96 0 -144.5 46t-48.5 126q0 28 6 58zM359 736q35 0 49.5 -10t14.5 -35q0 -12 -3 -30l-2 -8q-7 -43 -25 -59t-62 -16h-6q-36 0 -50.5 10t-14.5 36q0 12 3 29l2 8q7 43 25.5 59t62.5 16h6z"/>
<glyph glyph-name="Gcommaaccent" horiz-adv-x="675" unicode="Ģ" d="M297 -227q-17 -33 -52 -33h-63q-24 0 -24 16q0 5 3 14l41 140q6 23 17.5 32.5t33.5 9.5h90q34 0 34 -20q0 -8 -7 -22zM625 408q36 0 36 -27q0 -4 -2 -16l-25 -145q-19 -109 -109.5 -172t-236.5 -63q-127 0 -195.5 62.5t-68.5 169.5q0 31 6 62l32 181q22 130 112.5 197.5 t239.5 67.5q218 0 252 -178q2 -12 2 -15q0 -28 -37 -39l-102 -31q-13 -4 -24 -4q-20 0 -26 31q-15 61 -94 61q-58 0 -88 -25.5t-40 -78.5l-32 -182q-3 -16 -3 -30q0 -74 94 -74q51 0 83 18t38 50l3 20h-96q-20 0 -28 6t-8 21q0 9 1 15l13 75q5 24 15.5 33.5t34.5 9.5h253z "/>
<glyph glyph-name="gcommaaccent" horiz-adv-x="548" unicode="ģ" d="M329 369q-13 4 -40 4q-63 0 -73 -55l-16 -93q-1 -5 -1 -13q0 -37 49 -37q1 0 51 5l32 184q2 3 -2 5zM31 326q19 108 88 158.5t193 50.5q125 0 191 -34q18 -8 24.5 -16t6.5 -21q0 -5 -2 -21l-80 -452q-38 -224 -274 -224q-158 0 -205 104q-5 10 -5 20q0 24 34 38l85 39 q15 7 27 7q16 0 25 -17q21 -36 59 -36q55 0 66 58l7 40q-42 -6 -67 -6q-96 0 -144.5 46t-48.5 126q0 28 6 58zM315 732q11 20 20.5 26.5t31.5 6.5h58q28 0 28 -17q0 -2 -2 -12l-35 -118q-8 -27 -17 -36t-33 -9h-84q-39 0 -39 24q0 9 6 21z"/>
<glyph glyph-name="Hcircumflex" horiz-adv-x="692" unicode="Ĥ" d="M671 711q36 0 36 -27q0 -4 -2 -16l-110 -626q-5 -23 -15.5 -32.5t-34.5 -9.5h-113q-37 0 -37 26q0 4 2 16l40 230h-193l-41 -230q-4 -23 -15 -32.5t-35 -9.5h-113q-20 0 -28 6t-8 21q0 9 1 15l111 626q5 24 15.5 33.5t34.5 9.5h113q37 0 37 -27q0 -4 -2 -16l-39 -221h193 l39 221q4 24 15.5 33.5t34.5 9.5h114zM475 920q27 0 38.5 -5t27.5 -25l85 -102q8 -10 8 -18q0 -16 -29 -16h-82q-31 0 -43 3.5t-21 17.5l-22 36l-37 -35q-15 -15 -27 -18.5t-42 -3.5h-80q-24 0 -24 12q0 8 14 22l120 102q24 20 37.5 25t44.5 5h32z"/>
<glyph glyph-name="hcircumflex" horiz-adv-x="558" unicode="ĥ" d="M337 535q192 0 192 -163q0 -31 -5 -56l-49 -278q-4 -21 -14 -29.5t-31 -8.5h-110q-32 0 -32 24q0 9 1 14l48 274q2 12 2 15q0 40 -52 40q-32 0 -48 -4l-57 -325q-4 -21 -14 -29.5t-32 -8.5h-109q-18 0 -25.5 5.5t-7.5 18.5q0 9 1 14l117 664q4 21 14 29.5t32 8.5h109 q18 0 25.5 -5.5t7.5 -18.5q0 -9 -1 -14l-31 -171q36 4 69 4zM49 783q-23 0 -23 12q0 10 14 22l120 102q24 20 37.5 25t44.5 5h27q27 0 38.5 -5t28.5 -25l84 -102q8 -10 8 -17q0 -17 -29 -17h-78q-31 0 -42.5 3.5t-19.5 17.5l-23 36l-37 -35q-14 -14 -27 -18t-42 -4h-81z"/>
<glyph glyph-name="Hbar" horiz-adv-x="720" unicode="Ħ" d="M301 523l-13 -76h193l13 76h-193zM749 629q20 0 20 -14q0 -7 -1 -12l-9 -54q-3 -16 -9 -21t-20 -5h-38l-84 -481q-5 -23 -15.5 -32.5t-34.5 -9.5h-113q-37 0 -37 26q0 4 2 16l40 230h-193l-41 -230q-4 -23 -15 -32.5t-35 -9.5h-113q-20 0 -28 6t-8 21q0 9 1 15l85 481 h-37q-20 0 -20 14q0 7 1 12l9 54q5 26 30 26h36l7 39q5 24 15.5 33.5t34.5 9.5h113q37 0 37 -27q0 -4 -2 -16l-7 -39h194l6 39q5 24 15.5 33.5t34.5 9.5h113q37 0 37 -27q0 -4 -2 -16l-6 -39h37z"/>
<glyph glyph-name="hbar" horiz-adv-x="558" unicode="ħ" d="M268 531q36 4 69 4q192 0 192 -163q0 -31 -5 -56l-49 -278q-4 -21 -14 -29.5t-31 -8.5h-110q-32 0 -32 24q0 9 1 14l48 274q2 12 2 15q0 40 -52 40q-32 0 -48 -4l-57 -325q-4 -21 -14 -29.5t-32 -8.5h-109q-18 0 -25.5 5.5t-7.5 18.5q0 9 1 14l96 543h-34q-21 0 -21 15 q0 7 1 12l8 45q4 26 29 26h34l4 23q4 21 14 29.5t32 8.5h109q18 0 25.5 -5.5t7.5 -18.5q0 -9 -1 -14l-4 -23h91q21 0 21 -15q0 -7 -1 -11l-8 -45q-3 -16 -9 -21.5t-20 -5.5h-91z"/>
<glyph glyph-name="Itilde" horiz-adv-x="300" unicode="Ĩ" d="M116 670q5 23 15 31.5t32 8.5h118q35 0 35 -25q0 -3 -2 -15l-111 -630q-4 -22 -14 -31t-33 -9h-118q-19 0 -26.5 6t-7.5 20q0 9 1 14zM404 909q20 0 20 -15q0 -5 -1 -8q-12 -67 -41 -95t-78 -28q-42 0 -78.5 21t-47.5 21q-14 0 -18 -22q-4 -20 -23 -20h-61q-20 0 -20 16 q0 4 1 7q11 68 40.5 95.5t76.5 27.5q43 0 80 -20.5t48 -20.5q15 0 19 22q4 19 22 19h61z"/>
<glyph glyph-name="itilde" horiz-adv-x="269" unicode="ĩ" d="M228 520q18 0 25.5 -5.5t7.5 -18.5q0 -9 -1 -14l-78 -444q-4 -21 -14 -29.5t-32 -8.5h-109q-18 0 -25.5 5.5t-7.5 18.5q0 9 1 14l78 444q4 21 14 29.5t32 8.5h109zM333 738q17 0 17 -15q0 -5 -1 -9q-13 -69 -40 -97t-69 -28q-33 0 -60 19.5t-37 19.5q-15 0 -19 -20 t-19 -20h-58q-16 0 -16 15q0 6 1 9q22 126 107 126q35 0 64 -21t38 -21q14 0 17 22q4 20 20 20h55z"/>
<glyph glyph-name="Imacron" horiz-adv-x="300" unicode="Ī" d="M116 670q5 23 15 31.5t32 8.5h118q35 0 35 -25q0 -3 -2 -15l-111 -630q-4 -22 -14 -31t-33 -9h-118q-19 0 -26.5 6t-7.5 20q0 9 1 14zM376 892q32 0 32 -21q0 -3 -2 -15l-7 -42q-5 -22 -13 -29t-30 -7h-244q-17 0 -24 4t-7 16q0 4 2 16l7 42q4 21 13 28.5t29 7.5h244z "/>
<glyph glyph-name="imacron" horiz-adv-x="269" unicode="ī" d="M228 520q18 0 25.5 -5.5t7.5 -18.5q0 -9 -1 -14l-78 -444q-4 -21 -14 -29.5t-32 -8.5h-109q-18 0 -25.5 5.5t-7.5 18.5q0 9 1 14l78 444q4 21 14 29.5t32 8.5h109zM304 707q22 0 22 -17q0 -11 -2 -18l-7 -42q-4 -22 -10 -29t-22 -7h-207q-22 0 -22 18q0 4 2 18l7 42 q4 20 11.5 27.5t21.5 7.5h206z"/>
<glyph glyph-name="Ibreve" horiz-adv-x="300" unicode="Ĭ" d="M116 670q5 23 15 31.5t32 8.5h118q35 0 35 -25q0 -3 -2 -15l-111 -630q-4 -22 -14 -31t-33 -9h-118q-19 0 -26.5 6t-7.5 20q0 9 1 14zM426 860q-59 -106 -196 -106q-65 0 -106 27.5t-51 78.5q-1 3 -1 9q0 15 24 26l71 25q11 4 18 4q10 0 17 -16q14 -33 50 -33q35 0 59 33 q13 16 23 16q6 0 16 -3l65 -26q17 -6 17 -18q0 -7 -6 -17z"/>
<glyph glyph-name="ibreve" horiz-adv-x="269" unicode="ĭ" d="M228 520q18 0 25.5 -5.5t7.5 -18.5q0 -9 -1 -14l-78 -444q-4 -21 -14 -29.5t-32 -8.5h-109q-18 0 -25.5 5.5t-7.5 18.5q0 9 1 14l78 444q4 21 14 29.5t32 8.5h109zM364 715q17 -8 17 -18q0 -7 -6 -17q-58 -106 -190 -106q-135 0 -155 106q-1 4 -1 10q0 17 24 25l70 25 q11 4 18 4q12 0 19 -16q6 -18 15.5 -25t28.5 -7q33 0 57 32q12 16 22 16q3 0 15 -4z"/>
<glyph glyph-name="Iogonek" horiz-adv-x="300" unicode="Į" d="M175 -181q1 -3 1 -9q0 -14 -12 -21q-51 -35 -118 -35q-92 0 -95 72q-1 85 101 174q-27 0 -37.5 6t-10.5 21q0 4 2 18l110 625q5 23 15 31.5t32 8.5h118q35 0 35 -25q0 -3 -2 -15l-111 -630q-4 -25 -19 -36q-77 -67 -79 -120q0 -18 15 -18q8 0 19 6q20 11 23 -6z"/>
<glyph glyph-name="iogonek" horiz-adv-x="269" unicode="į" d="M160 -181q2 -8 2 -10q0 -11 -12 -20q-51 -35 -116 -35q-91 0 -95 67v6q0 79 97 173q-42 0 -42 27q0 4 2 16l77 439q4 21 14 29.5t32 8.5h109q18 0 25.5 -5.5t7.5 -18.5q0 -9 -1 -14l-78 -444q-5 -23 -16 -31q-71 -69 -73 -123q0 -18 15 -18q9 0 18 5q20 12 23 -6z M156 563q-35 0 -49.5 10.5t-14.5 35.5q0 11 3 28l1 11q8 42 27 58t61 16h50q35 0 49.5 -10.5t14.5 -35.5q0 -12 -3 -28l-2 -11q-8 -42 -26 -58t-61 -16h-50z"/>
<glyph glyph-name="Idotaccent" horiz-adv-x="300" unicode="İ" d="M116 670q5 23 15 31.5t32 8.5h118q35 0 35 -25q0 -3 -2 -15l-111 -630q-4 -22 -14 -31t-33 -9h-118q-19 0 -26.5 6t-7.5 20q0 9 1 14zM262 915q35 0 49.5 -10t14.5 -35q0 -12 -3 -30l-2 -8q-8 -44 -26 -59.5t-61 -15.5h-6q-37 0 -51.5 10t-14.5 37q0 13 3 28l2 8 q8 44 26.5 59.5t62.5 15.5h6z"/>
<glyph glyph-name="dotlessi" horiz-adv-x="269" unicode="ı" d="M228 520q18 0 25.5 -5.5t7.5 -18.5q0 -9 -1 -14l-78 -444q-4 -21 -14 -29.5t-32 -8.5h-109q-18 0 -25.5 5.5t-7.5 18.5q0 9 1 14l78 444q4 21 14 29.5t32 8.5h109z"/>
<glyph glyph-name="IJ" horiz-adv-x="886" unicode="Ĳ" d="M116 670q5 23 15 31.5t32 8.5h118q35 0 35 -25q0 -3 -2 -15l-111 -630q-4 -22 -14 -31t-33 -9h-118q-19 0 -26.5 6t-7.5 20q0 9 1 14zM871 711q35 0 35 -26q0 -4 -2 -16l-77 -439q-22 -124 -97.5 -184.5t-211.5 -60.5q-101 0 -160 44t-75 126q-1 5 -1 14q0 28 37 40 l99 33q15 6 25 6q20 0 27 -30q14 -58 74 -58q73 0 88 86l74 423q5 23 15.5 32.5t33.5 9.5h116z"/>
<glyph glyph-name="ij" horiz-adv-x="540" unicode="ĳ" d="M497 520q33 0 33 -24q0 -9 -1 -14l-86 -492q-21 -113 -93.5 -166.5t-199.5 -53.5q-35 0 -35 24q0 3 2 15l15 85q4 22 14 31t32 9q69 0 80 68l85 480q4 21 14 29.5t32 8.5h108zM228 520q18 0 25.5 -5.5t7.5 -18.5q0 -9 -1 -14l-78 -444q-4 -21 -14 -29.5t-32 -8.5h-109 q-18 0 -25.5 5.5t-7.5 18.5q0 9 1 14l78 444q4 21 14 29.5t32 8.5h109zM504 722q34 0 48.5 -10t14.5 -35q0 -13 -3 -29l-1 -11q-8 -42 -26.5 -58t-61.5 -16h-50q-34 0 -49 10.5t-15 35.5q0 11 3 28l2 11q8 42 26.5 58t61.5 16h50zM234 722q35 0 49.5 -10.5t14.5 -35.5 q0 -12 -3 -28l-2 -11q-8 -42 -26 -58t-61 -16h-50q-35 0 -49.5 10.5t-14.5 35.5q0 11 3 28l1 11q8 42 27 58t61 16h50z"/>
<glyph glyph-name="Jcircumflex" horiz-adv-x="582" unicode="Ĵ" d="M567 711q36 0 36 -26q0 -4 -2 -16l-77 -439q-43 -245 -309 -245q-202 0 -235 170q-1 5 -1 14q0 28 36 40l100 33q15 6 25 6q19 0 26 -30q14 -58 74 -58q73 0 88 86l75 423q5 24 15 33t34 9h115zM567 920q27 0 38.5 -5t27.5 -25l85 -102q7 -10 7 -17q0 -17 -28 -17h-82 q-31 0 -43 3.5t-21 17.5l-22 36l-37 -35q-15 -15 -27.5 -18.5t-41.5 -3.5h-80q-25 0 -25 12q0 9 15 22l120 102q24 20 37.5 25t44.5 5h32z"/>
<glyph glyph-name="jcircumflex" horiz-adv-x="270" unicode="ĵ" d="M227 520q34 0 34 -25q0 -8 -1 -13l-87 -492q-20 -113 -92.5 -166.5t-200.5 -53.5q-34 0 -34 24q0 3 2 15l15 85q4 23 14 31.5t32 8.5q69 0 80 68l84 480q4 21 14.5 29.5t32.5 8.5h107zM226 735q27 0 38 -4.5t27 -23.5l83 -100q8 -10 8 -17q0 -17 -29 -17h-74q-30 0 -42 4 t-20 17l-22 35l-37 -35q-14 -13 -26.5 -17t-40.5 -4h-79q-23 0 -23 12q0 10 14 22l117 100q22 19 35.5 23.5t44.5 4.5h26z"/>
<glyph glyph-name="Kcommaaccent" horiz-adv-x="654" unicode="Ķ" d="M281 -227q-17 -33 -52 -33h-63q-24 0 -24 16q0 5 3 14l41 140q6 23 17.5 32.5t33.5 9.5h90q34 0 34 -20q0 -8 -7 -22zM600 49q3 -9 3 -17q0 -32 -38 -32h-108q-40 0 -56 8t-25 34l-56 179q-8 26 -20.5 38t-39.5 12h-17l-40 -229q-5 -23 -15.5 -32.5t-34.5 -9.5h-113 q-37 0 -37 26q0 4 2 16l110 626q5 23 15.5 32.5t34.5 9.5h113q37 0 37 -26q0 -4 -2 -16l-39 -222h13h9l183 227q19 24 34 30.5t52 6.5h116q28 0 28 -18q0 -12 -11 -26l-237 -294q33 -23 51 -73z"/>
<glyph glyph-name="kcommaaccent" horiz-adv-x="553" unicode="ķ" d="M241 -199q-11 -21 -23 -28t-35 -7h-57q-25 0 -25 14q0 6 3 15l31 118q7 25 19 34.5t38 9.5h85q34 0 34 -19q0 -10 -9 -25zM489 51q5 -15 5 -23q0 -28 -46 -28h-91q-35 0 -48 7t-18 31l-24 123q-7 30 -40 30h-19l-27 -152q-4 -22 -13.5 -30.5t-31.5 -8.5h-109 q-18 0 -25.5 5.5t-7.5 18.5q0 9 1 15l117 662q4 22 14 30.5t32 8.5h109q32 0 32 -24q0 -9 -1 -15l-63 -361h15h6l109 144q16 22 31 29t47 7h89q37 0 37 -19q0 -11 -14 -30l-147 -194q16 -17 24 -45z"/>
<glyph glyph-name="kgreenlandic" horiz-adv-x="561" unicode="ĸ" d="M474 49q3 -11 3 -18q0 -31 -46 -31h-91q-36 0 -48.5 6.5t-18.5 29.5l-35 127l-49 -46l-19 -77q-6 -23 -17 -31.5t-34 -8.5h-105q-33 0 -33 21q0 9 3 19l108 441q5 22 16 30.5t34 8.5h106q33 0 33 -22q0 -10 -2 -17l-31 -106l121 111q21 21 35 27.5t44 6.5h113 q31 0 31 -15q0 -12 -18 -29l-173 -164z"/>
<glyph glyph-name="Lacute" horiz-adv-x="542" unicode="Ĺ" d="M278 710q37 0 37 -28q0 -9 -1 -14l-87 -493h240q37 0 37 -26q0 -4 -2 -16l-16 -91q-5 -23 -15.5 -32.5t-34.5 -9.5h-396q-20 0 -28 6t-8 21q0 9 1 15l111 626q4 23 14.5 32.5t34.5 9.5h113zM268 914q24 12 38 12q17 0 28 -15l41 -58q9 -12 9 -21q0 -12 -22 -19l-191 -56 q-20 -5 -27 -5q-13 0 -19 10l-21 33q-7 11 -7 19q0 10 16 19z"/>
<glyph glyph-name="lacute" horiz-adv-x="272" unicode="ĺ" d="M183 38q-4 -21 -14 -29.5t-32 -8.5h-109q-18 0 -25.5 5.5t-7.5 18.5q0 9 1 14l117 664q4 21 14 29.5t32 8.5h109q18 0 25.5 -5.5t7.5 -18.5q0 -9 -1 -14zM256 947q22 12 37 12q16 0 26 -15l39 -63q9 -16 9 -22q0 -12 -21 -18l-198 -59q-18 -6 -28 -6q-12 0 -17 9l-22 38 q-7 10 -7 19q0 10 16 19z"/>
<glyph glyph-name="Lcommaaccent" horiz-adv-x="542" unicode="Ļ" d="M227 -227q-17 -33 -51 -33h-64q-23 0 -23 16q0 4 2 14l42 140q6 23 17.5 32.5t33.5 9.5h90q33 0 33 -19q0 -10 -7 -23zM278 710q37 0 37 -28q0 -9 -1 -14l-87 -493h240q37 0 37 -26q0 -4 -2 -16l-16 -91q-5 -23 -15.5 -32.5t-34.5 -9.5h-396q-20 0 -28 6t-8 21q0 9 1 15 l111 626q4 23 14.5 32.5t34.5 9.5h113z"/>
<glyph glyph-name="lcommaaccent" horiz-adv-x="272" unicode="ļ" d="M84 -206q-11 -20 -23 -27t-35 -7h-61q-24 0 -24 13q0 3 2 15l33 126q7 26 19 35t38 9h88q34 0 34 -19q0 -9 -8 -25zM182 38q-4 -21 -13.5 -29.5t-31.5 -8.5h-110q-32 0 -32 24q0 9 1 14l117 664q4 21 13.5 29.5t31.5 8.5h110q32 0 32 -24q0 -9 -1 -14z"/>
<glyph glyph-name="Lcaron" horiz-adv-x="550" unicode="Ľ" d="M490 513q-11 -20 -21 -27t-31 -7h-58q-22 0 -22 13q0 6 3 13l47 166q8 23 18.5 31t32.5 8h90q34 0 34 -17q0 -9 -7 -22zM278 710q37 0 37 -28q0 -9 -1 -14l-87 -493h240q37 0 37 -26q0 -4 -2 -16l-16 -91q-5 -23 -15.5 -32.5t-34.5 -9.5h-396q-20 0 -28 6t-8 21q0 9 1 15 l111 626q4 23 14.5 32.5t34.5 9.5h113z"/>
<glyph glyph-name="lcaron" horiz-adv-x="343" unicode="ľ" d="M183 38q-4 -21 -14 -29.5t-32 -8.5h-109q-18 0 -25.5 5.5t-7.5 18.5q0 9 1 14l117 664q4 21 14 29.5t32 8.5h109q18 0 25.5 -5.5t7.5 -18.5q0 -9 -1 -14zM443 559q-10 -21 -18 -28t-29 -7h-54q-24 0 -24 16q0 3 2 13l38 148q6 23 14 31.5t30 8.5h76q39 0 39 -22 q0 -6 -5 -18z"/>
<glyph glyph-name="Ldot" horiz-adv-x="545" unicode="Ŀ" d="M452 500q36 0 50.5 -10.5t14.5 -36.5q0 -12 -3 -27l-7 -38q-8 -42 -26.5 -58t-60.5 -16h-36q-35 0 -50 10.5t-15 35.5q0 12 3 28l7 38q8 42 26.5 58t60.5 16h36zM278 710q37 0 37 -28q0 -9 -1 -14l-87 -493h240q37 0 37 -26q0 -4 -2 -16l-16 -91q-5 -23 -15.5 -32.5 t-34.5 -9.5h-396q-20 0 -28 6t-8 21q0 9 1 15l111 626q4 23 14.5 32.5t34.5 9.5h113z"/>
<glyph glyph-name="ldot" horiz-adv-x="481" unicode="ŀ" d="M426 476q36 0 52 -11.5t16 -38.5q0 -12 -3 -28l-8 -41q-8 -44 -27.5 -61t-64.5 -17h-38q-37 0 -52.5 10.5t-15.5 37.5q0 13 3 30l7 41q7 44 27.5 61t65.5 17h38zM183 38q-4 -21 -14 -29.5t-32 -8.5h-109q-18 0 -25.5 5.5t-7.5 18.5q0 9 1 14l117 664q4 21 14 29.5t32 8.5 h109q18 0 25.5 -5.5t7.5 -18.5q0 -9 -1 -14z"/>
<glyph glyph-name="Lslash" horiz-adv-x="584" unicode="Ł" d="M510 175q37 0 37 -26q0 -4 -2 -16l-16 -91q-4 -23 -15 -32.5t-35 -9.5h-396q-36 0 -36 26q0 4 2 16l36 206l-43 -17q-12 -6 -20 -6q-12 0 -19 18l-15 51q-2 6 -2 10q0 17 20 26l100 42l53 296q4 23 15 32.5t34 9.5h114q36 0 36 -28q0 -9 -1 -14l-37 -208l121 50 q10 5 20 5q13 0 20 -18l15 -50q2 -8 2 -10q0 -16 -21 -26l-178 -74l-29 -162h240z"/>
<glyph glyph-name="lslash" horiz-adv-x="375" unicode="ł" d="M400 440q3 -6 3 -11q0 -15 -20 -26l-94 -45l-56 -320q-4 -21 -14 -29.5t-32 -8.5h-109q-18 0 -25.5 5.5t-7.5 18.5q0 9 1 14l39 220l-28 -14q-16 -7 -22 -7q-13 0 -19 17l-17 43q-2 4 -2 11q0 16 18 26l91 44l57 324q4 21 14 29.5t32 8.5h109q18 0 25.5 -5.5t7.5 -18.5 q0 -9 -1 -14l-40 -225l32 16q14 6 21 6q13 0 19 -16z"/>
<glyph glyph-name="Nacute" horiz-adv-x="702" unicode="Ń" d="M679 710q37 0 37 -28q0 -9 -1 -14l-111 -626q-4 -23 -15 -32.5t-35 -9.5h-110q-27 0 -37 20l-111 237q-22 48 -32.5 91.5t-19.5 114.5h-8q3 -55 3 -97q0 -76 -15 -161l-29 -163q-5 -23 -15.5 -32.5t-34.5 -9.5h-105q-37 0 -37 26q0 4 2 16l110 626q5 23 15.5 32.5 t34.5 9.5h114q29 0 39 -20l118 -256q25 -53 52 -183h8q-12 96 -12 136q0 47 12 117l29 164q4 23 14.5 32.5t34.5 9.5h105zM471 914q22 12 37 12q18 0 29 -15l40 -58q9 -12 9 -21q0 -12 -22 -19l-191 -56q-20 -5 -27 -5q-13 0 -18 10l-21 33q-8 13 -8 20q0 9 16 18z"/>
<glyph glyph-name="nacute" d="M116 498q100 37 219 37q192 0 192 -164q0 -31 -5 -56l-49 -277q-4 -21 -14 -29.5t-31 -8.5h-110q-32 0 -32 24q0 9 1 14l48 274q2 12 2 16q0 39 -52 39q-26 0 -45 -4q-2 -1 -4 -4l-56 -321q-4 -21 -14 -29.5t-32 -8.5h-109q-18 0 -25.5 5.5t-7.5 18.5q0 9 1 14l71 400 q5 25 15 37.5t37 22.5zM358 734q26 13 38 13q16 0 28 -15l42 -56q10 -15 10 -21q0 -12 -22 -19l-190 -60q-18 -6 -28 -6q-12 0 -18 9l-23 33q-7 11 -7 19q0 10 16 19z" unicode="ń"/>
<glyph glyph-name="Ncommaaccent" horiz-adv-x="702" unicode="Ņ" d="M307 -227q-17 -33 -51 -33h-64q-23 0 -23 16q0 4 2 14l41 140q7 23 18.5 32.5t33.5 9.5h89q34 0 34 -20q0 -9 -7 -22zM679 710q37 0 37 -28q0 -9 -1 -14l-111 -626q-4 -23 -15 -32.5t-35 -9.5h-110q-27 0 -37 20l-111 237q-22 48 -32.5 91.5t-19.5 114.5h-8q3 -55 3 -97 q0 -76 -15 -161l-29 -163q-5 -23 -15.5 -32.5t-34.5 -9.5h-105q-37 0 -37 26q0 4 2 16l110 626q5 23 15.5 32.5t34.5 9.5h114q29 0 39 -20l118 -256q25 -53 52 -183h8q-12 96 -12 136q0 47 12 117l29 164q4 23 14.5 32.5t34.5 9.5h105z"/>
<glyph glyph-name="ncommaaccent" d="M237 -193q-12 -21 -24.5 -28t-34.5 -7h-58q-23 0 -23 13q0 5 3 16l33 122q7 25 19.5 34.5t37.5 9.5h85q34 0 34 -19q0 -10 -9 -25zM116 498q100 37 219 37q192 0 192 -164q0 -31 -5 -56l-49 -277q-4 -21 -14 -29.5t-31 -8.5h-110q-32 0 -32 24q0 9 1 14l48 274q2 12 2 16 q0 39 -52 39q-26 0 -45 -4q-2 -1 -4 -4l-56 -321q-4 -21 -14 -29.5t-32 -8.5h-109q-18 0 -25.5 5.5t-7.5 18.5q0 9 1 14l71 400q5 25 15 37.5t37 22.5z" unicode="ņ"/>
<glyph glyph-name="Ncaron" horiz-adv-x="702" unicode="Ň" d="M679 710q37 0 37 -28q0 -9 -1 -14l-111 -626q-4 -23 -15 -32.5t-35 -9.5h-110q-27 0 -37 20l-111 237q-22 48 -32.5 91.5t-19.5 114.5h-8q3 -55 3 -97q0 -76 -15 -161l-29 -163q-5 -23 -15.5 -32.5t-34.5 -9.5h-105q-37 0 -37 26q0 4 2 16l110 626q5 23 15.5 32.5 t34.5 9.5h114q29 0 39 -20l118 -256q25 -53 52 -183h8q-12 96 -12 136q0 47 12 117l29 164q4 23 14.5 32.5t34.5 9.5h105zM637 920q23 0 23 -12q0 -10 -16 -23l-118 -102q-23 -20 -36.5 -24.5t-43.5 -4.5h-27q-30 0 -41 4.5t-27 24.5l-83 102q-9 13 -9 20q0 15 26 15h84 q30 0 41.5 -4t21.5 -18l24 -34l35 34q15 14 28 18t42 4h76z"/>
<glyph glyph-name="ncaron" d="M335 535q192 0 192 -164q0 -31 -5 -56l-49 -277q-4 -21 -14 -29.5t-31 -8.5h-110q-32 0 -32 24q0 9 1 14l48 274q2 12 2 16q0 39 -52 39q-26 0 -45 -4q-2 -1 -4 -4l-56 -321q-4 -21 -14 -29.5t-32 -8.5h-109q-18 0 -25.5 5.5t-7.5 18.5q0 9 1 14l71 400q5 25 15 37.5 t37 22.5q100 37 219 37zM527 739q22 0 22 -11q0 -10 -16 -23l-118 -102q-24 -21 -36.5 -25.5t-43.5 -4.5h-27q-29 0 -40.5 5t-27.5 25l-83 102q-9 13 -9 19q0 15 27 15h81q30 0 41.5 -4t20.5 -17l24 -35l36 34q15 14 28 18t42 4h79z" unicode="ň"/>
<glyph glyph-name="napostrophe" d="M116 498q100 37 219 37q192 0 192 -164q0 -31 -5 -56l-49 -277q-4 -21 -14 -29.5t-31 -8.5h-110q-32 0 -32 24q0 9 1 14l48 274q2 12 2 16q0 39 -52 39q-26 0 -45 -4q-2 -1 -4 -4l-56 -321q-4 -21 -14 -29.5t-32 -8.5h-109q-18 0 -25.5 5.5t-7.5 18.5q0 9 1 14l71 400 q5 25 15 37.5t37 22.5zM151 561q-13 -17 -22 -21.5t-29 -4.5h-73q-22 0 -22 13q0 3 4 13l66 142q10 20 18 26.5t30 6.5h107q33 0 33 -19q0 -9 -8 -20z" unicode="ŉ"/>
<glyph glyph-name="Eng" horiz-adv-x="702" unicode="Ŋ" d="M679 710q37 0 37 -28q0 -9 -1 -14l-120 -678q-20 -113 -92.5 -166.5t-200.5 -53.5q-34 0 -34 24q0 3 2 15l15 85q4 23 14 31.5t32 8.5q66 0 78 68l1 9l-114 246q-23 49 -33 91.5t-19 114.5h-8q3 -55 3 -97q0 -76 -15 -161l-29 -163q-5 -23 -15.5 -32.5t-34.5 -9.5h-105 q-37 0 -37 26q0 4 2 16l110 626q5 23 15.5 32.5t34.5 9.5h113q28 0 38 -20l119 -256q11 -24 19 -48.5t11.5 -39t10 -46t10.5 -49.5h8q-12 96 -12 136q0 47 12 117l29 164q4 23 15 32.5t34 9.5h107z"/>
<glyph glyph-name="eng" d="M116 498q100 37 219 37q192 0 192 -164q0 -31 -5 -56l-58 -329q-20 -112 -91 -164t-197 -52q-34 0 -34 24q0 3 2 15l15 84q3 21 13 29.5t32 8.5q64 0 75 67l56 314q2 12 2 16q0 39 -52 39q-26 0 -45 -4q-2 -1 -4 -4l-56 -321q-4 -21 -14 -29.5t-32 -8.5h-109 q-18 0 -25.5 5.5t-7.5 18.5q0 9 1 14l71 400q5 25 15 37.5t37 22.5z" unicode="ŋ"/>
<glyph glyph-name="Omacron" horiz-adv-x="682" unicode="Ō" d="M478 454q2 16 2 22q0 74 -94 74q-110 0 -127 -96l-35 -198q-2 -16 -2 -22q0 -74 95 -74q109 0 126 96zM61 455q23 130 113.5 200t238.5 70q127 0 196 -62t69 -168q0 -31 -6 -62l-31 -181q-23 -129 -113.5 -198t-238.5 -69q-128 0 -196.5 61.5t-68.5 167.5q0 34 5 60z M569 902q18 0 25 -4.5t7 -17.5q0 -8 -1 -14l-8 -42q-4 -22 -12.5 -29t-30.5 -7h-244q-31 0 -31 21q0 3 2 15l8 42q4 21 13 28.5t28 7.5h244z"/>
<glyph glyph-name="omacron" horiz-adv-x="550" unicode="ō" d="M341 321q1 5 1 14q0 40 -54 40q-61 0 -72 -54l-21 -122q-1 -5 -1 -14q0 -39 53 -39q62 0 73 53zM315 535q106 0 160.5 -47t54.5 -130q0 -21 -5 -49l-19 -112q-19 -103 -91.5 -157.5t-194.5 -54.5q-104 0 -158.5 47t-54.5 131q0 25 4 48l19 112q19 103 91.5 157.5 t193.5 54.5zM204 596q-31 0 -31 21q0 3 2 15l7 42q4 21 13.5 28.5t28.5 7.5h244q18 0 25 -4t7 -16q0 -4 -2 -16l-7 -42q-4 -22 -12.5 -29t-30.5 -7h-244z"/>
<glyph glyph-name="Obreve" horiz-adv-x="682" unicode="Ŏ" d="M478 454q2 16 2 22q0 74 -94 74q-110 0 -127 -96l-35 -198q-2 -16 -2 -22q0 -74 95 -74q109 0 126 96zM61 455q23 130 113.5 200t238.5 70q127 0 196 -62t69 -168q0 -31 -6 -62l-31 -181q-23 -129 -113.5 -198t-238.5 -69q-128 0 -196.5 61.5t-68.5 167.5q0 34 5 60z M620 870q-61 -106 -196 -106q-66 0 -106.5 27.5t-51.5 78.5q-1 3 -1 9q0 15 24 26l71 25q11 4 18 4q10 0 17 -16q13 -33 50 -33q35 0 59 33q13 16 24 16q6 0 15 -3l65 -26q17 -6 17 -18q0 -8 -5 -17z"/>
<glyph glyph-name="obreve" horiz-adv-x="550" unicode="ŏ" d="M341 321q1 5 1 14q0 40 -54 40q-61 0 -72 -54l-21 -122q-1 -5 -1 -14q0 -39 53 -39q62 0 73 53zM30 323q19 103 91.5 157.5t193.5 54.5q106 0 160.5 -47t54.5 -130q0 -21 -5 -49l-19 -112q-19 -103 -91.5 -157.5t-194.5 -54.5q-104 0 -158.5 47t-54.5 131q0 25 4 48z M519 680q-58 -106 -194 -106q-66 0 -107.5 27.5t-51.5 78.5q-1 4 -1 10q0 17 24 25l68 24q11 4 19 4q11 0 18 -16q12 -32 50 -32q37 0 60 33q13 16 23 16q3 0 15 -4l66 -25q17 -8 17 -18q0 -7 -6 -17z"/>
<glyph glyph-name="Ohungarumlaut" horiz-adv-x="682" unicode="Ő" d="M478 454q2 16 2 22q0 74 -94 74q-110 0 -127 -96l-35 -198q-2 -16 -2 -22q0 -74 95 -74q109 0 126 96zM413 725q127 0 196 -62t69 -168q0 -31 -6 -62l-31 -181q-23 -129 -113.5 -198t-238.5 -69q-128 0 -196.5 61.5t-68.5 167.5q0 34 5 60l32 181q23 130 113.5 200 t238.5 70zM318 772q-18 4 -18 16q0 8 12 22l92 97q25 28 52 28q6 0 18 -2l21 -5q12 6 24 6q9 0 19 -3l64 -18q20 -6 20 -19q0 -12 -17 -24l-132 -90q-23 -16 -36 -16q-7 0 -11 1l-28 7q-14 -10 -25 -10q-4 0 -12 2z"/>
<glyph glyph-name="ohungarumlaut" horiz-adv-x="550" unicode="ő" d="M341 321q1 5 1 14q0 40 -54 40q-61 0 -72 -54l-21 -122q-1 -5 -1 -14q0 -39 53 -39q62 0 73 53zM315 535q106 0 160.5 -47t54.5 -130q0 -21 -5 -49l-19 -112q-19 -103 -91.5 -157.5t-194.5 -54.5q-104 0 -158.5 47t-54.5 131q0 25 4 48l19 112q19 103 91.5 157.5 t193.5 54.5zM217 578q-18 4 -18 16q0 8 12 22l91 97q25 28 53 28q5 0 17 -2l21 -5q12 6 24 6q9 0 19 -3l66 -18q19 -6 19 -19q0 -12 -17 -24l-132 -89q-25 -17 -36 -17q-4 0 -12 2l-28 6q-17 -10 -25 -10q-3 0 -11 2z"/>
<glyph glyph-name="OE" horiz-adv-x="884" unicode="Œ" d="M223 256q-2 -16 -2 -22q0 -74 95 -74q35 0 62 12l64 366q-22 12 -57 12q-110 0 -127 -96zM794 175q37 0 37 -26q0 -4 -2 -16l-16 -91q-4 -23 -15 -32.5t-35 -9.5h-352q-50 -15 -126 -15q-126 0 -194 61.5t-68 167.5q0 30 6 63l32 180q22 130 114 199t240 69q65 0 114 -15 h351q37 0 37 -26q0 -4 -2 -16l-16 -90q-4 -24 -15 -33.5t-35 -9.5h-210l-15 -89h157q20 0 28 -6t8 -21q0 -9 -1 -15l-16 -90q-5 -24 -15.5 -33.5t-34.5 -9.5h-157l-17 -96h218z"/>
<glyph glyph-name="oe" horiz-adv-x="791" unicode="œ" d="M318 319q1 6 1 16q0 40 -43 40q-49 0 -58 -51l-23 -128q-1 -5 -1 -14q0 -36 41 -36q54 0 61 53zM605 362q1 3 1 10q0 31 -45 31q-27 0 -45.5 -16t-23.5 -44l-2 -12q33 -5 61 -5q49 0 54 36zM440 482q66 53 154 53q94 0 143 -37t49 -105q0 -12 -4 -38 q-12 -71 -68.5 -110.5t-145.5 -39.5q-46 0 -102 6l-4 -21q-2 -14 -2 -19q0 -46 50 -46q46 0 79 37q14 19 28 19q10 0 25 -9l62 -34q19 -11 19 -27q0 -14 -13 -31q-65 -95 -226 -95q-84 0 -129 45q-60 -45 -147 -45q-99 0 -149.5 47t-50.5 129q0 23 5 53l19 113 q37 208 268 208q92 0 140 -53z"/>
<glyph glyph-name="Racute" horiz-adv-x="661" unicode="Ŕ" d="M451 470q2 12 2 17q0 48 -56 48h-107l-24 -132h108q31 0 51.5 18t25.5 49zM450 710q99 0 155 -51t56 -141q0 -32 -5 -57q-24 -137 -143 -198q9 -18 19 -43l60 -171q3 -9 3 -17q0 -32 -38 -32h-108q-39 0 -57.5 11t-26.5 37l-40 137q-9 29 -20.5 40t-41.5 11h-26l-34 -194 q-5 -23 -15.5 -32.5t-34.5 -9.5h-113q-37 0 -37 26q0 4 2 16l110 626q5 23 15.5 32.5t34.5 9.5h285zM437 914q22 12 37 12q18 0 29 -15l40 -58q9 -12 9 -21q0 -12 -22 -19l-191 -56q-20 -5 -27 -5q-13 0 -18 10l-21 33q-8 13 -8 20q0 9 16 18z"/>
<glyph glyph-name="racute" horiz-adv-x="361" unicode="ŕ" d="M325 535h31q18 0 25.5 -5.5t7.5 -18.5q0 -9 -1 -14l-15 -85q-4 -22 -13.5 -30.5t-31.5 -8.5h-38q-27 0 -47 -4q-4 0 -6 -6l-57 -325q-4 -21 -14 -29.5t-32 -8.5h-109q-18 0 -25.5 5.5t-7.5 18.5q0 9 1 14l72 405q5 26 15 38.5t37 21.5q78 28 208 32zM284 734q26 13 39 13 q15 0 27 -15l43 -56q9 -12 9 -21q0 -12 -21 -19l-191 -60q-18 -6 -28 -6q-12 0 -18 9l-22 33q-8 13 -8 19q0 11 17 19z"/>
<glyph glyph-name="Rcommaaccent" horiz-adv-x="661" unicode="Ŗ" d="M286 -227q-17 -33 -51 -33h-64q-23 0 -23 16q0 4 2 14l41 140q7 23 18.5 32.5t33.5 9.5h89q34 0 34 -20q0 -9 -7 -22zM451 470q2 12 2 17q0 48 -56 48h-107l-24 -132h108q31 0 51.5 18t25.5 49zM450 710q99 0 155 -51t56 -141q0 -32 -5 -57q-24 -137 -143 -198 q9 -18 19 -43l60 -171q3 -9 3 -17q0 -32 -38 -32h-108q-39 0 -57.5 11t-26.5 37l-40 137q-9 29 -20.5 40t-41.5 11h-26l-34 -194q-5 -23 -15.5 -32.5t-34.5 -9.5h-113q-37 0 -37 26q0 4 2 16l110 626q5 23 15.5 32.5t34.5 9.5h285z"/>
<glyph glyph-name="rcommaaccent" horiz-adv-x="361" unicode="ŗ" d="M86 -197q-11 -20 -23 -27t-35 -7h-58q-24 0 -24 13q0 6 3 15l33 120q7 25 19 34.5t38 9.5h84q34 0 34 -19q0 -10 -9 -25zM324 535h32q33 0 33 -24q0 -4 -2 -14l-14 -85q-5 -22 -14.5 -30.5t-30.5 -8.5h-38q-27 0 -47 -4q-5 0 -7 -6l-57 -325q-4 -21 -13.5 -29.5 t-31.5 -8.5h-110q-32 0 -32 24q0 9 1 14l71 405q5 25 15.5 37.5t36.5 22.5q78 28 208 32z"/>
<glyph glyph-name="Rcaron" horiz-adv-x="661" unicode="Ř" d="M451 470q2 12 2 17q0 48 -56 48h-107l-24 -132h108q31 0 51.5 18t25.5 49zM450 710q99 0 155 -51t56 -141q0 -32 -5 -57q-24 -137 -143 -198q9 -18 19 -43l60 -171q3 -9 3 -17q0 -32 -38 -32h-108q-39 0 -57.5 11t-26.5 37l-40 137q-9 29 -20.5 40t-41.5 11h-26l-34 -194 q-5 -23 -15.5 -32.5t-34.5 -9.5h-113q-37 0 -37 26q0 4 2 16l110 626q5 23 15.5 32.5t34.5 9.5h285zM603 920q23 0 23 -12q0 -10 -16 -23l-118 -102q-23 -20 -36.5 -24.5t-43.5 -4.5h-27q-30 0 -41 4.5t-27 24.5l-83 102q-9 13 -9 20q0 15 26 15h84q30 0 41.5 -4t21.5 -18 l24 -34l35 34q15 14 28 18t42 4h76z"/>
<glyph glyph-name="rcaron" horiz-adv-x="361" unicode="ř" d="M356 535q18 0 25.5 -5.5t7.5 -18.5q0 -9 -1 -14l-15 -85q-4 -22 -13.5 -30.5t-31.5 -8.5h-38q-27 0 -47 -4q-4 0 -6 -6l-57 -325q-4 -21 -14 -29.5t-32 -8.5h-109q-18 0 -25.5 5.5t-7.5 18.5q0 9 1 14l72 405q5 26 15 38.5t37 21.5q78 28 208 32h31zM453 739q22 0 22 -11 q0 -10 -16 -23l-118 -102q-24 -21 -36.5 -25.5t-43.5 -4.5h-27q-29 0 -40.5 5t-27.5 25l-83 102q-8 10 -8 19q0 15 26 15h81q30 0 41.5 -4t20.5 -17l25 -35l35 34q15 14 28 18t42 4h79z"/>
<glyph glyph-name="Sacute" horiz-adv-x="642" unicode="Ś" d="M66 518q18 100 101.5 153.5t225.5 53.5q107 0 165 -37.5t82 -110.5q4 -11 4 -20q0 -11 -7.5 -17.5t-26.5 -14.5l-99 -39q-15 -6 -24 -6q-16 0 -26 27q-18 52 -92 52q-95 0 -104 -52q0 -1 -0.5 -3.5t-0.5 -3.5q0 -25 30 -36t92 -18q227 -31 227 -200q0 -21 -5 -51 q-39 -210 -337 -210q-114 0 -187 40t-88 115q-1 5 -1 13q0 29 38 42l100 34q18 5 26 5q19 0 29 -27q18 -53 103 -53q107 0 118 57q0 1 0.5 3.5t0.5 3.5q0 23 -27.5 34t-80.5 18q-37 5 -65 11.5t-63.5 21t-58 34.5t-38.5 54t-16 77q0 20 5 50zM442 924q24 12 38 12 q17 0 28 -15l41 -58q9 -12 9 -21q0 -12 -22 -19l-191 -56q-20 -5 -27 -5q-13 0 -19 10l-21 33q-7 11 -7 19q0 10 16 19z"/>
<glyph glyph-name="sacute" horiz-adv-x="516" unicode="ś" d="M39 375q28 160 250 160q91 0 139 -27.5t69 -79.5q4 -9 4 -19q0 -21 -34 -36l-76 -32q-15 -7 -25 -7q-3 0 -5 0.5t-4 1.5t-3.5 2t-3.5 3.5t-3 4t-3 5t-3 4.5q-21 27 -69 27q-36 0 -50.5 -6t-16.5 -21q0 -1 -0.5 -3t-0.5 -3q0 -12 16 -17.5t61 -9.5q101 -8 148 -39.5 t47 -92.5q0 -11 -4 -37q-14 -81 -82 -124.5t-182 -43.5q-192 0 -218 119q-2 10 -2 13q0 27 35 39l85 28q17 5 24 5q14 0 26 -20q14 -32 69 -32q72 0 78 31q0 1 0.5 3.5t0.5 3.5q0 15 -18 20.5t-72 9.5q-181 12 -181 133q0 11 4 37zM337 734q26 13 39 13q15 0 27 -15l43 -56 q9 -12 9 -21q0 -12 -21 -19l-191 -60q-18 -6 -28 -6q-12 0 -18 9l-22 33q-8 13 -8 19q0 11 17 19z"/>
<glyph glyph-name="Scircumflex" horiz-adv-x="642" unicode="Ŝ" d="M66 518q18 100 101.5 153.5t225.5 53.5q107 0 165 -37.5t82 -110.5q4 -11 4 -20q0 -11 -7.5 -17.5t-26.5 -14.5l-99 -39q-15 -6 -24 -6q-16 0 -26 27q-18 52 -92 52q-95 0 -104 -52q0 -1 -0.5 -3.5t-0.5 -3.5q0 -25 30 -36t92 -18q227 -31 227 -200q0 -21 -5 -51 q-39 -210 -337 -210q-114 0 -187 40t-88 115q-1 5 -1 13q0 29 38 42l100 34q18 5 26 5q19 0 29 -27q18 -53 103 -53q107 0 118 57q0 1 0.5 3.5t0.5 3.5q0 23 -27.5 34t-80.5 18q-37 5 -65 11.5t-63.5 21t-58 34.5t-38.5 54t-16 77q0 20 5 50zM454 930q27 0 38.5 -5t26.5 -25 l85 -102q8 -10 8 -18q0 -16 -29 -16h-82q-31 0 -43 3.5t-20 17.5l-23 36l-37 -35q-15 -15 -27 -18.5t-42 -3.5h-80q-24 0 -24 12q0 9 15 22l119 102q25 20 38 25t45 5h32z"/>
<glyph glyph-name="scircumflex" horiz-adv-x="516" unicode="ŝ" d="M289 535q91 0 139 -27.5t69 -79.5q4 -9 4 -19q0 -21 -34 -36l-76 -32q-15 -7 -25 -7q-3 0 -5 0.5t-4 1.5t-3.5 2t-3.5 3.5t-3 4t-3 5t-3 4.5q-21 27 -69 27q-36 0 -50.5 -6t-16.5 -21q0 -1 -0.5 -3t-0.5 -3q0 -12 16 -17.5t61 -9.5q101 -8 148 -39.5t47 -92.5 q0 -11 -4 -37q-14 -81 -82 -124.5t-182 -43.5q-192 0 -218 119q-2 10 -2 13q0 27 35 39l85 28q17 5 24 5q14 0 26 -20q14 -32 69 -32q72 0 78 31q0 1 0.5 3.5t0.5 3.5q0 15 -18 20.5t-72 9.5q-181 12 -181 133q0 11 4 37q28 160 250 160zM501 609q8 -10 8 -18q0 -17 -29 -17 h-77q-31 0 -43 4t-20 18l-23 35l-37 -35q-15 -14 -27.5 -18t-41.5 -4h-81q-23 0 -23 12q0 11 14 23l121 102q23 20 36.5 24.5t44.5 4.5h28q27 0 38 -4.5t28 -24.5z"/>
<glyph glyph-name="Scedilla" horiz-adv-x="642" unicode="Ş" d="M66 518q18 100 101.5 153.5t225.5 53.5q107 0 165 -37.5t82 -110.5q4 -11 4 -20q0 -11 -7.5 -17.5t-26.5 -14.5l-99 -39q-15 -6 -24 -6q-16 0 -26 27q-18 52 -92 52q-95 0 -104 -52q0 -1 -0.5 -3.5t-0.5 -3.5q0 -25 30 -36t92 -18q227 -31 227 -200q0 -21 -5 -51 q-32 -181 -262 -206l-22 -41h6q35 -1 53.5 -20.5t18.5 -50.5q0 -13 -5 -33q-14 -50 -59 -72.5t-104 -22.5q-36 0 -75 15q-22 8 -22 24q0 4 1 7l7 42q3 21 18 21q9 0 16 -5q27 -15 54 -15q34 0 39 23v3l1 2q0 17 -41 17h-20q-18 0 -18 9q0 5 8 18l46 75q-106 5 -172 44.5 t-80 110.5q-1 5 -1 13q0 29 38 42l100 34q18 5 26 5q19 0 29 -27q18 -53 103 -53q107 0 118 57q0 1 0.5 3.5t0.5 3.5q0 23 -27.5 34t-80.5 18q-37 5 -65 11.5t-63.5 21t-58 34.5t-38.5 54t-16 77q0 20 5 50z"/>
<glyph glyph-name="scedilla" horiz-adv-x="516" unicode="ş" d="M39 375q28 160 250 160q91 0 139 -27.5t69 -79.5q4 -9 4 -19q0 -21 -34 -36l-76 -32q-15 -7 -25 -7q-3 0 -5 0.5t-4 1.5t-3.5 2t-3.5 3.5t-3 4t-3 5t-3 4.5q-21 27 -69 27q-36 0 -50.5 -6t-16.5 -21q0 -1 -0.5 -3t-0.5 -3q0 -12 16 -17.5t61 -9.5q101 -8 148 -39.5 t47 -92.5q0 -11 -4 -37q-11 -67 -61 -109t-133 -54l-22 -40h6q35 -1 53.5 -20.5t18.5 -50.5q0 -13 -5 -33q-14 -51 -59 -73.5t-104 -22.5q-34 0 -75 16q-22 8 -22 23q0 5 1 8l7 42q3 21 18 21q9 0 16 -5q27 -15 54 -15q34 0 39 23v3l1 1q0 18 -41 18h-20q-17 0 -17 10 q0 5 6 17l46 74q-166 9 -189 118q-2 10 -2 13q0 27 35 39l85 28q17 5 24 5q14 0 26 -20q14 -32 69 -32q72 0 78 31q0 1 0.5 3.5t0.5 3.5q0 15 -18 20.5t-72 9.5q-181 12 -181 133q0 11 4 37z"/>
<glyph glyph-name="Scaron" horiz-adv-x="642" unicode="Š" d="M66 518q18 100 101.5 153.5t225.5 53.5q107 0 165 -37.5t82 -110.5q4 -11 4 -20q0 -11 -7.5 -17.5t-26.5 -14.5l-99 -39q-15 -6 -24 -6q-16 0 -26 27q-18 52 -92 52q-95 0 -104 -52q0 -1 -0.5 -3.5t-0.5 -3.5q0 -25 30 -36t92 -18q227 -31 227 -200q0 -21 -5 -51 q-39 -210 -337 -210q-114 0 -187 40t-88 115q-1 5 -1 13q0 29 38 42l100 34q18 5 26 5q19 0 29 -27q18 -53 103 -53q107 0 118 57q0 1 0.5 3.5t0.5 3.5q0 23 -27.5 34t-80.5 18q-37 5 -65 11.5t-63.5 21t-58 34.5t-38.5 54t-16 77q0 20 5 50zM609 930q22 0 22 -12 q0 -10 -15 -23l-118 -102q-24 -20 -37 -24.5t-44 -4.5h-27q-29 0 -40.5 4.5t-27.5 24.5l-83 102q-8 10 -8 19q0 16 26 16h84q30 0 41.5 -4t20.5 -18l25 -34l35 34q15 14 28 18t42 4h76z"/>
<glyph glyph-name="scaron" horiz-adv-x="516" unicode="š" d="M289 535q91 0 139 -27.5t69 -79.5q4 -9 4 -19q0 -21 -34 -36l-76 -32q-15 -7 -25 -7q-3 0 -5 0.5t-4 1.5t-3.5 2t-3.5 3.5t-3 4t-3 5t-3 4.5q-21 27 -69 27q-36 0 -50.5 -6t-16.5 -21q0 -1 -0.5 -3t-0.5 -3q0 -12 16 -17.5t61 -9.5q101 -8 148 -39.5t47 -92.5 q0 -11 -4 -37q-14 -81 -82 -124.5t-182 -43.5q-192 0 -218 119q-2 10 -2 13q0 27 35 39l85 28q17 5 24 5q14 0 26 -20q14 -32 69 -32q72 0 78 31q0 1 0.5 3.5t0.5 3.5q0 15 -18 20.5t-72 9.5q-181 12 -181 133q0 11 4 37q28 160 250 160zM506 739q22 0 22 -11q0 -10 -16 -23 l-118 -102q-24 -21 -36.5 -25.5t-43.5 -4.5h-27q-29 0 -40.5 5t-27.5 25l-83 102q-8 10 -8 19q0 15 26 15h81q30 0 41.5 -4t20.5 -17l25 -35l35 34q15 14 28 18t42 4h79z"/>
<glyph glyph-name="Tcaron" horiz-adv-x="602" unicode="Ť" d="M620 710q37 0 37 -26q0 -4 -2 -16l-16 -90q-4 -24 -15 -33.5t-35 -9.5h-148l-87 -493q-5 -23 -15.5 -32.5t-34.5 -9.5h-113q-37 0 -37 26q0 4 2 16l87 493h-149q-36 0 -36 28q0 9 1 15l16 90q5 23 15.5 32.5t34.5 9.5h495zM585 920q23 0 23 -12q0 -10 -16 -23l-118 -102 q-24 -20 -36.5 -24.5t-43.5 -4.5h-27q-29 0 -40.5 4.5t-27.5 24.5l-83 102q-9 13 -9 20q0 15 27 15h84q30 0 41 -4t21 -18l24 -34l35 34q15 14 28.5 18t41.5 4h76z"/>
<glyph glyph-name="tcaron" horiz-adv-x="399" unicode="ť" d="M295 640q33 0 33 -25q0 -8 -1 -13l-15 -82h70q32 0 32 -24q0 -9 -1 -14l-13 -75q-4 -22 -14 -30.5t-31 -8.5h-69l-27 -147q-2 -10 -2 -25q0 -25 13.5 -35t44.5 -10q19 0 26.5 -5.5t7.5 -19.5q0 -9 -1 -14l-16 -86q-4 -22 -13.5 -30.5t-32.5 -8.5h-13q-107 0 -158 35.5 t-51 118.5q0 23 7 67l28 160h-43q-33 0 -33 25q0 9 1 14l14 75q4 21 13.5 29.5t30.5 8.5h44l14 82q4 21 14 29.5t31 8.5h110zM487 589q-11 -20 -23 -27t-33 -7h-57q-22 0 -22 13q0 3 2 15l29 115q6 24 18 33t37 9h87q34 0 34 -18q0 -9 -9 -24z"/>
<glyph glyph-name="Tbar" horiz-adv-x="615" unicode="Ŧ" d="M626 710q37 0 37 -26q0 -4 -2 -16l-16 -90q-4 -24 -15 -33.5t-35 -9.5h-148l-29 -163h96q21 0 21 -15q0 -7 -1 -11l-12 -67q-3 -16 -9 -21.5t-21 -5.5h-95l-37 -210q-5 -23 -15.5 -32.5t-34.5 -9.5h-113q-37 0 -37 26q0 4 2 16l37 210h-95q-21 0 -21 15q0 7 1 12l11 67 q5 26 30 26h95l29 163h-149q-36 0 -36 28q0 9 1 15l16 90q5 23 15.5 32.5t34.5 9.5h495z"/>
<glyph glyph-name="tbar" horiz-adv-x="400" unicode="ŧ" d="M295 640q18 0 25.5 -5.5t7.5 -18.5q0 -9 -1 -14l-14 -82h69q18 0 25.5 -5.5t7.5 -19.5q0 -8 -1 -13l-14 -75q-4 -22 -13.5 -30t-30.5 -8h-70l-9 -53h68q20 0 20 -14q0 -7 -1 -12l-7 -46q-3 -16 -9 -21.5t-20 -5.5h-69l-1 -5q-2 -16 -2 -21q0 -24 14 -31.5t45 -7.5 q19 0 26.5 -6t7.5 -20q0 -9 -1 -14l-15 -86q-4 -22 -14 -30.5t-32 -8.5h-9q-110 0 -161.5 36t-51.5 121q0 29 6 65l2 8h-44q-12 0 -16 2.5t-4 11.5q0 8 1 13l8 46q5 26 29 26h43l10 53h-44q-18 0 -25 5t-7 18q0 9 1 15l13 75q4 22 13.5 30t31.5 8h43l15 82q4 22 13.5 30 t31.5 8h109z"/>
<glyph glyph-name="Utilde" horiz-adv-x="692" unicode="Ũ" d="M233 252q-2 -16 -2 -21q0 -71 90 -71q103 0 119 92l74 416q4 23 15 32.5t34 9.5h114q37 0 37 -27q0 -3 -2 -15l-75 -423q-23 -127 -109.5 -193.5t-233.5 -66.5q-126 0 -193 63t-67 167q0 30 6 63l69 390q5 23 15.5 32.5t34.5 9.5h113q37 0 37 -26q0 -4 -2 -16zM599 909 q20 0 20 -15q0 -5 -1 -8q-12 -67 -40.5 -95t-78.5 -28q-42 0 -78 21t-47 21q-15 0 -19 -22q-3 -20 -22 -20h-62q-20 0 -20 16q0 4 1 7q11 68 40.5 95.5t76.5 27.5q44 0 81 -20.5t48 -20.5q14 0 18 22q4 19 23 19h60z"/>
<glyph glyph-name="utilde" d="M516 520q18 0 25.5 -5.5t7.5 -18.5q0 -9 -1 -14l-71 -400q-5 -25 -15 -37.5t-37 -22.5q-100 -37 -219 -37q-96 0 -143 44t-47 124q0 33 5 58l47 271q4 21 14 29.5t32 8.5h109q18 0 25.5 -5.5t7.5 -18.5q0 -9 -1 -14l-48 -274q-2 -12 -2 -17q0 -38 51 -38q21 0 41 4 q7 1 9 9l55 316q4 21 14 29.5t32 8.5h109zM498 731q21 0 21 -15q0 -5 -1 -8q-12 -68 -41 -95.5t-79 -27.5q-42 0 -78 20.5t-48 20.5q-14 0 -18 -22q-3 -19 -23 -19h-61q-20 0 -20 15q0 5 1 8q12 67 41.5 95t75.5 28q44 0 81 -21t48 -21q15 0 18 22q4 20 23 20h60z" unicode="ũ"/>
<glyph glyph-name="Umacron" horiz-adv-x="692" unicode="Ū" d="M233 252q-2 -16 -2 -21q0 -71 90 -71q103 0 119 92l74 416q4 23 15 32.5t34 9.5h114q37 0 37 -27q0 -3 -2 -15l-75 -423q-23 -127 -109.5 -193.5t-233.5 -66.5q-126 0 -193 63t-67 167q0 30 6 63l69 390q5 23 15.5 32.5t34.5 9.5h113q37 0 37 -26q0 -4 -2 -16zM572 892 q18 0 24.5 -4.5t6.5 -16.5q0 -9 -1 -15l-7 -42q-4 -22 -13 -29t-30 -7h-244q-17 0 -24 4t-7 16q0 4 2 16l7 42q4 21 13 28.5t29 7.5h244z"/>
<glyph glyph-name="umacron" d="M516 520q18 0 25.5 -5.5t7.5 -18.5q0 -9 -1 -14l-71 -400q-5 -25 -15 -37.5t-37 -22.5q-100 -37 -219 -37q-96 0 -143 44t-47 124q0 33 5 58l47 271q4 21 14 29.5t32 8.5h109q18 0 25.5 -5.5t7.5 -18.5q0 -9 -1 -14l-48 -274q-2 -12 -2 -17q0 -38 51 -38q21 0 41 4 q7 1 9 9l55 316q4 21 14 29.5t32 8.5h109zM470 710q32 0 32 -21q0 -3 -2 -15l-8 -42q-3 -22 -11.5 -29t-30.5 -7h-244q-18 0 -24.5 4.5t-6.5 17.5q0 9 1 14l8 42q4 21 13 28.5t29 7.5h244z" unicode="ū"/>
<glyph glyph-name="Ubreve" horiz-adv-x="692" unicode="Ŭ" d="M233 252q-2 -16 -2 -21q0 -71 90 -71q103 0 119 92l74 416q4 23 15 32.5t34 9.5h114q37 0 37 -27q0 -3 -2 -15l-75 -423q-23 -127 -109.5 -193.5t-233.5 -66.5q-126 0 -193 63t-67 167q0 30 6 63l69 390q5 23 15.5 32.5t34.5 9.5h113q37 0 37 -26q0 -4 -2 -16zM622 860 q-59 -106 -196 -106q-66 0 -106.5 27.5t-50.5 78.5q-2 8 -2 10q0 16 24 25l71 25q11 4 19 4q10 0 17 -16q12 -33 49 -33q35 0 60 33q13 16 23 16q6 0 15 -3l65 -26q18 -6 18 -18q0 -7 -6 -17z"/>
<glyph glyph-name="ubreve" d="M516 520q18 0 25.5 -5.5t7.5 -18.5q0 -9 -1 -14l-71 -400q-5 -25 -15 -37.5t-37 -22.5q-100 -37 -219 -37q-96 0 -143 44t-47 124q0 33 5 58l47 271q4 21 14 29.5t32 8.5h109q18 0 25.5 -5.5t7.5 -18.5q0 -9 -1 -14l-48 -274q-2 -12 -2 -17q0 -38 51 -38q21 0 41 4 q7 1 9 9l55 316q4 21 14 29.5t32 8.5h109zM521 680q-58 -106 -195 -106t-159 106q-1 4 -1 10q0 17 25 25l68 24q11 4 19 4q10 0 17 -16q13 -32 50 -32t61 33q13 16 22 16q3 0 15 -4l67 -25q16 -7 16 -18q0 -8 -5 -17z" unicode="ŭ"/>
<glyph glyph-name="Uring" horiz-adv-x="692" unicode="Ů" d="M233 252q-2 -16 -2 -21q0 -71 90 -71q103 0 119 92l74 416q4 23 15 32.5t34 9.5h114q37 0 37 -27q0 -3 -2 -15l-75 -423q-23 -127 -109.5 -193.5t-233.5 -66.5q-126 0 -193 63t-67 167q0 30 6 63l69 390q5 23 15.5 32.5t34.5 9.5h113q37 0 37 -26q0 -4 -2 -16zM481 855 q1 3 1 8q0 13 -8 20.5t-21 7.5q-38 0 -45 -36v-6q0 -28 33 -28q15 0 26.5 9.5t13.5 24.5zM316 855q10 54 51.5 85.5t99.5 31.5q50 0 79.5 -25.5t29.5 -69.5q0 -6 -2 -22q-10 -53 -51 -84.5t-97 -31.5q-51 0 -81.5 24.5t-30.5 68.5q0 7 2 23z"/>
<glyph glyph-name="uring" d="M516 520q18 0 25.5 -5.5t7.5 -18.5q0 -9 -1 -14l-71 -400q-5 -25 -15 -37.5t-37 -22.5q-100 -37 -219 -37q-96 0 -143 44t-47 124q0 33 5 58l47 271q4 21 14 29.5t32 8.5h109q18 0 25.5 -5.5t7.5 -18.5q0 -9 -1 -14l-48 -274q-2 -12 -2 -17q0 -38 51 -38q21 0 41 4 q7 1 9 9l55 316q4 21 14 29.5t32 8.5h109zM373 651v6q0 29 -29 29q-38 0 -44 -35q-1 -3 -1 -7q0 -12 9 -20t24 -8t26.5 9.5t14.5 25.5zM208 651q9 54 51 85.5t100 31.5q50 0 79 -25t29 -68q0 -16 -2 -24q-9 -53 -50 -84.5t-97 -31.5q-52 0 -82 24.5t-30 68.5q0 7 2 23z" unicode="ů"/>
<glyph glyph-name="Uhungarumlaut" horiz-adv-x="692" unicode="Ű" d="M677 710q37 0 37 -27q0 -3 -2 -15l-75 -423q-23 -127 -109.5 -193.5t-233.5 -66.5q-126 0 -193 63t-67 167q0 30 6 63l69 390q5 23 15.5 32.5t34.5 9.5h113q37 0 37 -26q0 -4 -2 -16l-74 -416q-2 -16 -2 -21q0 -71 90 -71q103 0 119 92l74 416q4 23 15 32.5t34 9.5h114z M321 762q-18 4 -18 16q0 10 12 22l91 97q25 28 53 28q5 0 17 -2l21 -5q12 6 24 6q9 0 19 -3l65 -18q20 -6 20 -19q0 -12 -17 -24l-133 -90q-23 -16 -35 -16q-7 0 -11 1l-29 7q-14 -10 -24 -10q-4 0 -12 2z"/>
<glyph glyph-name="uhungarumlaut" d="M516 520q18 0 25.5 -5.5t7.5 -18.5q0 -9 -1 -14l-71 -400q-5 -25 -15 -37.5t-37 -22.5q-100 -37 -219 -37q-96 0 -143 44t-47 124q0 33 5 58l47 271q4 21 14 29.5t32 8.5h109q18 0 25.5 -5.5t7.5 -18.5q0 -9 -1 -14l-48 -274q-2 -12 -2 -17q0 -38 51 -38q21 0 41 4 q7 1 9 9l55 316q4 21 14 29.5t32 8.5h109zM219 578q-18 4 -18 16q0 10 12 22l91 97q25 28 53 28q5 0 17 -2l21 -4q12 5 23 5q10 0 20 -3l65 -18q20 -6 20 -19q0 -12 -17 -24l-133 -89q-25 -17 -35 -17q-4 0 -12 2l-28 6q-17 -10 -25 -10q-3 0 -11 2z" unicode="ű"/>
<glyph glyph-name="Uogonek" horiz-adv-x="692" unicode="Ų" d="M677 710q37 0 37 -27q0 -3 -2 -15l-75 -423q-21 -121 -116 -198q-65 -53 -91.5 -95.5t-27.5 -66.5q0 -19 15 -19q9 0 19 6q18 11 23 -6l13 -51q1 -3 1 -9q0 -12 -12 -20q-47 -32 -118 -32q-95 0 -95 75q0 78 93 158q-16 -2 -47 -2q-126 0 -193 63t-67 167q0 30 6 63 l69 390q5 23 15.5 32.5t34.5 9.5h113q37 0 37 -26q0 -4 -2 -16l-74 -416q-2 -16 -2 -21q0 -71 90 -71q103 0 119 92l74 416q4 23 15 32.5t34 9.5h114z"/>
<glyph glyph-name="uogonek" d="M516 520q18 0 25.5 -5.5t7.5 -18.5q0 -9 -1 -14l-71 -400q-4 -27 -17 -41q-50 -52 -74 -93t-24 -61q-2 -18 15 -18q9 0 19 6q20 11 23 -6l12 -50q1 -3 1 -9q0 -14 -12 -21q-51 -35 -118 -35q-95 0 -95 69q0 81 97 169q-49 -7 -98 -7q-96 0 -143.5 44.5t-47.5 124.5 q0 28 6 59l47 269q4 21 14 29.5t32 8.5h109q18 0 25.5 -5.5t7.5 -18.5q0 -9 -1 -14l-48 -274q-2 -12 -2 -17q0 -38 51 -38q21 0 41 4q7 1 9 9l55 316q4 21 14 29.5t32 8.5h109z" unicode="ų"/>
<glyph glyph-name="Wcircumflex" horiz-adv-x="935" unicode="Ŵ" d="M967 710q27 0 27 -16q0 -8 -7 -25l-264 -634q-9 -21 -22 -28t-36 -7h-124q-22 0 -33.5 7t-12.5 26l-12 233v27q0 82 13 153h-9q-20 -93 -53 -180l-94 -231q-9 -21 -22.5 -28t-36.5 -7h-120q-44 0 -46 33l-40 636v10q0 17 7.5 24t26.5 7h121q28 0 39 -7t12 -30l-1 -262 q-2 -85 -18 -177h7q20 100 50 177l108 262q9 23 23 30t39 7h107q26 0 37.5 -7.5t12.5 -29.5l14 -262q0 -3 0.5 -11t0.5 -12q0 -50 -12 -154h8q13 74 45 177l89 262q8 22 21.5 29.5t41.5 7.5h113zM601 920q27 0 38.5 -5t27.5 -25l85 -102q8 -10 8 -18q0 -16 -29 -16h-82 q-31 0 -43 3.5t-21 17.5l-22 36l-37 -35q-15 -15 -27 -18.5t-42 -3.5h-80q-24 0 -24 12q0 8 14 22l120 102q24 20 37.5 25t44.5 5h32z"/>
<glyph glyph-name="wcircumflex" horiz-adv-x="772" unicode="ŵ" d="M766 520q33 0 33 -16q0 -8 -9 -28l-191 -442q-16 -34 -58 -34h-103q-46 0 -47 34l-9 134v19l7 123h-7q-21 -82 -46 -142l-57 -134q-14 -34 -58 -34h-92q-44 0 -47 34l-40 442q-1 5 -1 15q0 16 9 22.5t32 6.5h92q35 0 46 -7t11 -31l1 -133q0 -23 -4 -62t-8 -67l-4 -27h8 q23 103 43 156l54 132q9 24 22.5 31.5t48.5 7.5h64q35 0 45.5 -7t10.5 -31l8 -133v-12q0 -25 -3 -61t-6 -60l-3 -23h8q20 98 40 156l47 132q8 24 22 31.5t49 7.5h92zM266 574q-24 0 -24 12q0 10 15 23l120 102q23 20 36.5 24.5t45.5 4.5h27q27 0 38 -4.5t28 -24.5l84 -102 q8 -10 8 -18q0 -17 -29 -17h-77q-31 0 -42.5 4t-20.5 18l-22 35l-37 -35q-16 -14 -28.5 -18t-41.5 -4h-80z"/>
<glyph glyph-name="Ycircumflex" horiz-adv-x="673" unicode="Ŷ" d="M717 710q26 0 26 -16q0 -11 -12 -26l-300 -393l-40 -233q-5 -23 -16 -32.5t-34 -9.5h-114q-36 0 -36 26q0 4 2 16l40 233l-160 393q-4 8 -4 18q0 24 32 24h116q40 0 54 -6t23 -31l71 -204l147 204q17 25 33 31t55 6h117zM470 920q27 0 38.5 -5t27.5 -25l85 -102 q7 -10 7 -17q0 -17 -28 -17h-82q-31 0 -43 3.5t-21 17.5l-22 36l-37 -35q-15 -15 -27.5 -18.5t-41.5 -3.5h-80q-25 0 -25 12q0 9 15 22l120 102q24 20 37.5 25t44.5 5h32z"/>
<glyph glyph-name="ycircumflex" horiz-adv-x="558" unicode="ŷ" d="M516 520q32 0 32 -24q0 -9 -1 -14l-85 -487q-41 -225 -280 -225q-82 0 -129 25t-70 76q-5 10 -5 21q0 23 33 37l85 39q18 8 27 8q14 0 26 -21q19 -33 58 -33q55 0 66 58l6 39q-27 -4 -68 -4q-95 0 -142.5 45.5t-47.5 126.5q0 33 5 58l42 237q4 21 13.5 29.5t31.5 8.5h110 q32 0 32 -24q0 -9 -1 -14l-43 -244q-2 -12 -2 -16q0 -39 53 -39q27 0 47 4l52 295q4 21 14 29.5t31 8.5h110zM154 574q-24 0 -24 12q0 10 15 23l120 102q23 20 36.5 24.5t45.5 4.5h27q27 0 38 -4.5t28 -24.5l84 -102q8 -10 8 -18q0 -17 -29 -17h-77q-31 0 -42.5 4t-20.5 18 l-22 35l-37 -35q-16 -14 -28.5 -18t-41.5 -4h-80z"/>
<glyph glyph-name="Ydieresis" horiz-adv-x="673" unicode="Ÿ" d="M717 710q26 0 26 -16q0 -11 -12 -26l-300 -393l-40 -233q-5 -23 -16 -32.5t-34 -9.5h-114q-36 0 -36 26q0 4 2 16l40 233l-160 393q-4 8 -4 18q0 24 32 24h116q40 0 54 -6t23 -31l71 -204l147 204q17 25 33 31t55 6h117zM559 914q35 0 49.5 -10t14.5 -35q0 -11 -3 -26 l-3 -13q-7 -40 -25 -55.5t-60 -15.5h-7q-35 0 -49.5 10t-14.5 35q0 11 3 26l3 13q7 40 25.5 55.5t59.5 15.5h7zM344 914q35 0 49.5 -10.5t14.5 -35.5q0 -15 -2 -25l-3 -13q-7 -40 -25.5 -55.5t-60.5 -15.5h-8q-34 0 -48 10t-14 35q0 11 3 26l3 13q7 41 24.5 56t59.5 15h7z "/>
<glyph glyph-name="Zacute" horiz-adv-x="609" unicode="Ź" d="M608 710q37 0 37 -26q0 -4 -2 -16l-10 -60q-5 -24 -22 -44l-349 -389h257q37 0 37 -26q0 -4 -2 -16l-16 -91q-5 -23 -15.5 -32.5t-34.5 -9.5h-474q-36 0 -36 26q0 4 2 16l10 61q4 24 21 42l349 390h-246q-37 0 -37 27q0 4 2 16l16 90q4 23 15 32.5t34 9.5h464zM428 914 q24 12 38 12q17 0 28 -15l41 -58q9 -12 9 -21q0 -12 -22 -19l-191 -56q-20 -5 -27 -5q-13 0 -19 10l-21 33q-7 11 -7 19q0 10 16 19z"/>
<glyph glyph-name="zacute" horiz-adv-x="492" unicode="ź" d="M404 158q32 0 32 -23q0 -9 -1 -14l-14 -83q-4 -21 -13.5 -29.5t-31.5 -8.5h-366q-18 0 -25.5 5.5t-7.5 18.5q0 9 1 14l14 78q4 24 22 40l221 206h-156q-32 0 -32 23q0 9 1 14l14 83q4 21 13.5 29.5t31.5 8.5h356q32 0 32 -24q0 -9 -1 -14l-14 -78q-4 -24 -28 -46 l-225 -200h177zM331 734q24 13 38 13q16 0 28 -15l42 -56q10 -13 10 -21q0 -12 -22 -19l-191 -60q-18 -6 -28 -6q-12 0 -17 9l-23 33q-8 13 -8 19q0 10 17 19z"/>
<glyph glyph-name="Zdotaccent" horiz-adv-x="609" unicode="Ż" d="M608 710q37 0 37 -26q0 -4 -2 -16l-10 -60q-5 -24 -22 -44l-349 -389h257q37 0 37 -26q0 -4 -2 -16l-16 -91q-5 -23 -15.5 -32.5t-34.5 -9.5h-474q-36 0 -36 26q0 4 2 16l10 61q4 24 21 42l349 390h-246q-37 0 -37 27q0 4 2 16l16 90q4 23 15 32.5t34 9.5h464zM422 915 q35 0 49.5 -10t14.5 -35q0 -12 -3 -30l-2 -8q-8 -44 -26 -59.5t-61 -15.5h-6q-37 0 -51.5 10t-14.5 37q0 13 3 28l2 8q8 44 26.5 59.5t62.5 15.5h6z"/>
<glyph glyph-name="zdotaccent" horiz-adv-x="492" unicode="ż" d="M404 158q32 0 32 -23q0 -9 -1 -14l-14 -83q-4 -21 -13.5 -29.5t-31.5 -8.5h-366q-18 0 -25.5 5.5t-7.5 18.5q0 9 1 14l14 78q4 24 22 40l221 206h-156q-32 0 -32 23q0 9 1 14l14 83q4 21 13.5 29.5t31.5 8.5h356q32 0 32 -24q0 -9 -1 -14l-14 -78q-4 -24 -28 -46 l-225 -200h177zM326 736q35 0 49.5 -10t14.5 -35q0 -12 -3 -30l-2 -8q-7 -43 -25 -59t-62 -16h-6q-36 0 -50.5 10t-14.5 36q0 12 3 29l2 8q7 43 25.5 59t62.5 16h6z"/>
<glyph glyph-name="Zcaron" horiz-adv-x="609" unicode="Ž" d="M608 710q37 0 37 -26q0 -4 -2 -16l-10 -60q-5 -24 -22 -44l-349 -389h257q37 0 37 -26q0 -4 -2 -16l-16 -91q-5 -23 -15.5 -32.5t-34.5 -9.5h-474q-36 0 -36 26q0 4 2 16l10 61q4 24 21 42l349 390h-246q-37 0 -37 27q0 4 2 16l16 90q4 23 15 32.5t34 9.5h464zM595 920 q23 0 23 -12q0 -9 -16 -23l-118 -102q-23 -20 -36.5 -24.5t-43.5 -4.5h-28q-29 0 -40.5 4.5t-26.5 24.5l-83 102q-9 13 -9 20q0 15 26 15h84q30 0 41.5 -4t21.5 -18l24 -34l35 34q15 14 28 18t42 4h76z"/>
<glyph glyph-name="zcaron" horiz-adv-x="492" unicode="ž" d="M463 520q32 0 32 -24q0 -9 -1 -14l-14 -78q-4 -24 -28 -46l-225 -200h177q32 0 32 -23q0 -9 -1 -14l-14 -83q-4 -21 -13.5 -29.5t-31.5 -8.5h-366q-18 0 -25.5 5.5t-7.5 18.5q0 9 1 14l14 78q4 24 22 40l221 206h-156q-32 0 -32 23q0 9 1 14l14 83q4 21 13.5 29.5 t31.5 8.5h356zM499 739q23 0 23 -11q0 -9 -16 -23l-119 -102q-23 -20 -36 -25t-43 -5h-28q-29 0 -40 5t-28 25l-82 102q-9 11 -9 19q0 15 26 15h82q30 0 41 -4t21 -17l24 -35l36 34q15 14 28 18t42 4h78z"/>
<glyph glyph-name="florin" horiz-adv-x="460" unicode="ƒ" d="M168 512q43 228 292 228q20 0 28 -7t8 -24v-8l-8 -85q-1 -22 -10.5 -31t-31.5 -9q-45 0 -65 -17.5t-28 -59.5l-15 -75h75q20 0 28 -6.5t8 -22.5q0 -1 -0.5 -5t-0.5 -5l-8 -87q-1 -21 -10.5 -29.5t-30.5 -8.5h-92l-47 -244q-45 -236 -293 -236q-19 0 -27 7t-8 24v8l8 85 q1 22 10.5 31t31.5 9q44 0 64.5 18.5t28.5 58.5l46 239h-66q-19 0 -27 7t-8 24v7l8 87q2 22 11 30.5t31 8.5h82z"/>
<glyph glyph-name="Aringacute" horiz-adv-x="687" unicode="Ǻ" d="M384 388q-2 16 -2 49l6 91h-10q-12 -72 -44 -139l-58 -118h124zM459 723q1 3 1 10q0 14 -9 22.5t-24 8.5q-43 0 -51 -41v-6q0 -15 10 -25t27 -10t30 11.5t16 29.5zM273 729q11 60 57 91.5t112 31.5q57 0 90.5 -28.5t33.5 -78.5q0 -17 -2 -26q-7 -43 -49 -73l122 -605 q1 -4 1 -12q0 -29 -37 -29h-105q-38 0 -52 9t-16 33l-9 72h-217l-36 -72q-11 -24 -27 -33t-53 -9h-108q-29 0 -29 17q0 9 9 24l337 605q-24 22 -24 64q0 7 2 19zM481 984q23 9 37 9q15 0 25 -10l38 -45q9 -9 9 -16q0 -9 -20 -13l-176 -42q-22 -4 -26 -4q-11 0 -17 7l-22 30 q-5 5 -5 12q0 12 21 20z"/>
<glyph glyph-name="aringacute" horiz-adv-x="545" unicode="ǻ" d="M327 369q-15 4 -39 4q-33 0 -50 -12.5t-22 -42.5l-22 -122q-1 -4 -1 -11q0 -39 49 -39q32 0 52 5l37 211q2 6 -4 7zM31 324q19 109 87.5 160t192.5 51t192 -34q18 -9 24.5 -16.5t6.5 -19.5q0 -9 -3 -22l-68 -387q-4 -21 -13.5 -31t-32.5 -16q-99 -24 -217 -24 q-96 0 -144.5 46.5t-48.5 128.5q0 23 5 56zM374 672q1 3 1 8q0 26 -29 26q-17 0 -28.5 -9t-14.5 -25v-6q0 -28 31 -28q15 0 26.5 9.5t13.5 24.5zM214 672q9 53 49.5 83t96.5 30q49 0 77.5 -24.5t28.5 -66.5q0 -6 -2 -22q-9 -52 -48.5 -82.5t-94.5 -30.5q-50 0 -79.5 24 t-29.5 66q0 7 2 23zM369 917q23 9 36 9q16 0 26 -10l39 -42q9 -9 9 -16q0 -10 -20 -14l-178 -44q-20 -5 -27 -5q-10 0 -16 7l-21 24q-8 10 -8 14q0 8 16 15z"/>
<glyph glyph-name="AEacute" horiz-adv-x="906" unicode="Ǽ" d="M494 462l-147 -206h103zM817 175q37 0 37 -26q0 -4 -2 -16l-16 -91q-5 -23 -15.5 -32.5t-34.5 -9.5h-339q-20 0 -28 6t-8 21q0 9 1 15l12 63h-202l-54 -68q-18 -22 -33 -29.5t-52 -7.5h-109q-30 0 -30 18q0 10 10 23l516 634q17 21 27.5 28t30.5 7h375q37 0 37 -26 q0 -4 -2 -16l-16 -90q-4 -24 -15 -33.5t-35 -9.5h-195l-16 -89h143q36 0 36 -26q0 -4 -2 -16l-16 -90q-4 -24 -15 -33.5t-34 -9.5h-143l-17 -96h204zM761 914q24 12 38 12q17 0 28 -15l41 -58q9 -12 9 -21q0 -12 -22 -19l-191 -56q-20 -5 -27 -5q-13 0 -19 10l-21 33 q-7 11 -7 19q0 10 16 19z"/>
<glyph glyph-name="aeacute" horiz-adv-x="771" unicode="ǽ" d="M273 192q-22 2 -44 2q-46 0 -54 -42q-1 -4 -1 -11q0 -29 38 -29q22 0 57 5q-1 7 -1 23q0 18 3 38zM582 362q1 3 1 9q0 32 -46 32q-28 0 -46.5 -16t-22.5 -44l-2 -13q40 -4 61 -4q50 0 55 36zM413 487q66 48 150 48q98 0 151 -37.5t53 -107.5q0 -17 -3 -35 q-12 -71 -70 -110.5t-147 -39.5q-47 0 -102 6l-4 -21q-2 -14 -2 -19q0 -46 50 -46q46 0 79 37q14 19 28 19q10 0 25 -9l61 -34q20 -11 20 -27q0 -14 -13 -31q-65 -95 -227 -95q-71 0 -120 28q-66 -28 -149 -28q-200 0 -200 138q0 19 3 38q14 85 74.5 121t185.5 36 q8 0 22 -0.5t18 -0.5l4 25q2 12 2 18q0 33 -42 33q-33 0 -62 -36q-15 -18 -27 -18q-11 0 -25 7l-70 30q-23 11 -23 26q0 11 12 29q38 53 90.5 78.5t133.5 25.5q79 0 124 -48zM467 734q26 13 38 13q16 0 28 -15l42 -56q10 -15 10 -21q0 -12 -22 -19l-190 -60q-18 -6 -28 -6 q-12 0 -18 9l-23 33q-7 11 -7 19q0 10 16 19z"/>
<glyph glyph-name="Oslashacute" horiz-adv-x="683" unicode="Ǿ" d="M468 403q2 6 4 24l-214 -256q25 -11 58 -11q109 0 126 96zM445 537q-24 13 -60 13q-52 0 -85.5 -24.5t-41.5 -71.5l-27 -153l-3 -25zM734 753q10 0 10 -7q0 -6 -4 -11l-96 -114q33 -54 33 -128q0 -25 -5 -60l-32 -181q-23 -129 -113.5 -198t-237.5 -69q-89 0 -149 30 l-34 -41q-9 -11 -15 -13.5t-24 -2.5h-93q-11 0 -11 7q0 6 6 12l89 108q-35 53 -35 127q0 29 6 62l31 181q23 130 114 200t238 70q92 0 152 -33l37 45q9 11 15.5 13.5t21.5 2.5h96zM461 924q24 12 38 12q17 0 28 -15l40 -58q9 -12 9 -21q0 -12 -21 -19l-191 -56 q-20 -5 -28 -5q-12 0 -18 10l-21 33q-8 13 -8 19q0 10 17 19z"/>
<glyph glyph-name="oslashacute" horiz-adv-x="551" unicode="ǿ" d="M207 131q13 -9 36 -9q64 0 73 53l18 100q2 8 2 14zM333 386q-12 13 -40 13q-63 0 -72 -54l-19 -103q-2 -12 -2 -20zM539 552q12 0 12 -6q0 -4 -6 -12l-52 -64q37 -45 37 -111q0 -22 -5 -50l-19 -112q-18 -103 -90.5 -157.5t-194.5 -54.5q-61 0 -106 17l-19 -23 q-12 -14 -35 -14h-57q-12 0 -12 6q0 3 7 12l50 61q-41 46 -41 118q0 26 4 49l19 112q18 103 91 157.5t194 54.5q67 0 113 -20l19 23q12 14 34 14h57zM362 734q24 13 38 13q16 0 28 -15l42 -56q9 -12 9 -21q0 -12 -21 -19l-191 -60q-18 -6 -28 -6q-12 0 -17 9l-23 33 q-8 13 -8 19q0 11 17 19z"/>
<glyph glyph-name="Scommaaccent" horiz-adv-x="642" unicode="Ș" d="M276 -227q-17 -33 -51 -33h-64q-24 0 -24 16q0 5 3 14l41 140q7 23 18 32.5t33 9.5h90q34 0 34 -20q0 -8 -7 -22zM66 518q18 100 101.5 153.5t225.5 53.5q107 0 165 -37.5t82 -110.5q4 -11 4 -20q0 -11 -7.5 -17.5t-26.5 -14.5l-99 -39q-15 -6 -24 -6q-16 0 -26 27 q-18 52 -92 52q-95 0 -104 -52q0 -1 -0.5 -3.5t-0.5 -3.5q0 -25 30 -36t92 -18q227 -31 227 -200q0 -21 -5 -51q-39 -210 -337 -210q-114 0 -187 40t-88 115q-1 5 -1 13q0 29 38 42l100 34q18 5 26 5q19 0 29 -27q18 -53 103 -53q107 0 118 57q0 1 0.5 3.5t0.5 3.5 q0 23 -27.5 34t-80.5 18q-37 5 -65 11.5t-63.5 21t-58 34.5t-38.5 54t-16 77q0 20 5 50z"/>
<glyph glyph-name="scommaaccent" horiz-adv-x="516" unicode="ș" d="M236 -196q-12 -21 -24.5 -28t-34.5 -7h-58q-23 0 -23 13q0 6 3 16l28 107q7 26 19 35.5t38 9.5h85q33 0 33 -19q0 -9 -9 -26zM39 375q28 160 250 160q91 0 139 -27.5t69 -79.5q4 -9 4 -19q0 -21 -34 -36l-76 -32q-15 -7 -25 -7q-3 0 -5 0.5t-4 1.5t-3.5 2t-3.5 3.5t-3 4 t-3 5t-3 4.5q-21 27 -69 27q-36 0 -50.5 -6t-16.5 -21q0 -1 -0.5 -3t-0.5 -3q0 -12 16 -17.5t61 -9.5q101 -8 148 -39.5t47 -92.5q0 -11 -4 -37q-14 -81 -82 -124.5t-182 -43.5q-192 0 -218 119q-2 10 -2 13q0 27 35 39l85 28q17 5 24 5q14 0 26 -20q14 -32 69 -32 q72 0 78 31q0 1 0.5 3.5t0.5 3.5q0 15 -18 20.5t-72 9.5q-181 12 -181 133q0 11 4 37z"/>
<glyph glyph-name="uni021A" horiz-adv-x="602" unicode="Ț" d="M246 -227q-17 -33 -51 -33h-64q-23 0 -23 16q0 4 2 14l42 140q6 23 17.5 32.5t33.5 9.5h90q33 0 33 -19q0 -10 -7 -23zM620 710q37 0 37 -26q0 -4 -2 -16l-16 -90q-4 -24 -15 -33.5t-35 -9.5h-148l-87 -493q-5 -23 -15.5 -32.5t-34.5 -9.5h-113q-37 0 -37 26q0 4 2 16 l87 493h-149q-36 0 -36 28q0 9 1 15l16 90q5 23 15.5 32.5t34.5 9.5h495z"/>
<glyph glyph-name="uni021B" horiz-adv-x="399" unicode="ț" d="M176 -227q-17 -33 -51 -33h-64q-24 0 -24 16q0 5 3 14l41 140q7 23 18 32.5t33 9.5h90q34 0 34 -20q0 -8 -7 -22zM295 640q33 0 33 -25q0 -8 -1 -13l-15 -82h70q32 0 32 -24q0 -9 -1 -14l-13 -75q-4 -22 -14 -30.5t-31 -8.5h-69l-27 -147q-2 -10 -2 -25q0 -25 13.5 -35 t44.5 -10q19 0 26.5 -5.5t7.5 -19.5q0 -9 -1 -14l-16 -86q-4 -22 -13.5 -30.5t-32.5 -8.5h-13q-107 0 -158 35.5t-51 118.5q0 23 7 67l28 160h-43q-33 0 -33 25q0 9 1 14l14 75q4 21 13.5 29.5t30.5 8.5h44l14 82q4 21 14 29.5t31 8.5h110z"/>
<glyph glyph-name="dotlessj" horiz-adv-x="271" unicode="ȷ" d="M227 520q34 0 34 -25q0 -8 -1 -13l-87 -492q-20 -113 -92.5 -166.5t-200.5 -53.5q-34 0 -34 25q0 9 1 14l15 85q4 22 14 31t33 9q67 0 80 68l84 480q4 21 14.5 29.5t32.5 8.5h107z"/>
<glyph glyph-name="Euro" horiz-adv-x="761" unicode="€" d="M181 493q20 113 110.5 172.5t228.5 59.5q189 0 240 -134q5 -13 5 -22q0 -25 -35 -38l-89 -32q-17 -6 -26 -6q-17 0 -29 18q-1 1 -5 5.5t-7.5 8t-11.5 9t-16.5 8.5t-22.5 5.5t-30 2.5q-46 0 -77 -16.5t-36 -46.5l-2 -5h165q25 0 25 -14q0 -7 -6 -19l-23 -49 q-15 -31 -49 -31h-137l-7 -37h127q24 0 24 -14q0 -9 -5 -19l-23 -49q-15 -31 -51 -31h-83l-1 -7q-1 -5 -1 -13q0 -43 76 -43q67 0 115 44q18 20 35 20q12 0 26 -7l92 -38q26 -12 26 -29q0 -13 -14 -33q-88 -128 -292 -128q-125 0 -197.5 43t-72.5 134q0 23 4 44l2 13h-99 q-24 0 -24 14q0 6 5 19l23 49q9 18 19.5 24.5t30.5 6.5h63l7 37h-53q-25 0 -25 14q0 6 5 18l24 50q8 18 18.5 24.5t30.5 6.5h20z"/>
</font>
</defs>
</svg>
