<svg xmlns="http://www.w3.org/2000/svg" viewBox="0 0 320.77 63"><defs><style>.cls-1,.cls-3{fill:#7db82a;}.cls-1{fill-rule:evenodd;}.cls-2{fill:#0095c8;}</style></defs><title>logo-de-noclaim</title><path class="cls-1" d="M261.52,34.85H245.11a1.6,1.6,0,0,0-1,.49,1.44,1.44,0,0,0-.52,1l0,12.08a2.13,2.13,0,0,0,.45.89,1.59,1.59,0,0,0,1.16.53h11.57V61.28a1.79,1.79,0,0,0,.49,1.2,1.5,1.5,0,0,0,.95.52h12.06a1.45,1.45,0,0,0,1-.49,1.55,1.55,0,0,0,.5-1.06V49.84l11.59,0a2,2,0,0,0,1.12-.5,1.53,1.53,0,0,0,.48-1.1V36.43a1.57,1.57,0,0,0-.53-1.11,1.65,1.65,0,0,0-1-.48l-11.65,0V23.17a1.78,1.78,0,0,0-.64-1.09,1.28,1.28,0,0,0-1-.44H253.77s-1.26-7.56,3.24-11.53c4.31-3.81,7.25-4.21,9.61-4.21s7.34-.24,11.47,6c3.32,5,4,9.34,6.21,9.34,2.44,0,3.64-6.19,6.69-10,1.87-2.34,4.55-5.38,10.32-5.38a14.26,14.26,0,0,1,10.48,4.45c2,2.29,3.74,5.07,3.08,10.92-.55,4.86-3.47,10-8.58,15.62-8.47,9.36-22,17.52-22,17.52l-2.76-1.51-4.24,3.61,7,4.35s15.11-8.54,24.75-18.81c6.16-6.56,10.57-13.1,11.55-20.79A18.2,18.2,0,0,0,313,3.65,20.54,20.54,0,0,0,294.49,1.2C288.1,3.43,284.28,11,284.28,11S280.83,4,274.79,1.47a20.52,20.52,0,0,0-19.91,2.69,17.93,17.93,0,0,0-6.94,12.56c-.44,6.38,1.23,9.72,1.23,9.72H267V39.62h13.18v5.46H267V58.26h-5.46V45.08H248.34V39.62h13.18Z"/><path class="cls-2" d="M52.13,23c-4.93,0-7.55,3.67-9.28,6.56h-.11a57.89,57.89,0,0,0,1.11-5.87H37.29L32.68,49.19h6.76l.37-2.1C42.32,32.73,46.05,29,48.78,29c1.67,0,2.2,1.21,1.72,4l-2.83,16.2h6.77l3-16.52c1.15-6.24-.84-9.7-5.3-9.7"/><path class="cls-2" d="M93.07,23.11c-4.36,0-7,2.83-9.13,6.19h-.1c0-3.51-1.42-6.19-5.35-6.19-4.77,0-7.29,3.57-9,6.5h-.1a43.73,43.73,0,0,0,1.1-5.82H63.91L59.3,49.33h6.76l.37-2.1c2.52-14.21,6-18.14,8.7-18.14,2,0,2.21,1.89,1.73,4.4L74,49.33h6.77l.36-2.1C83.57,33.12,87,29.09,89.87,29.09c1.94,0,2.15,1.73,1.68,4.4L88.66,49.33h6.71l2.94-16.21c1.21-6.76-.89-10-5.24-10"/><path class="cls-2" d="M112,44.45c-2.62,0-3.93-1.52-4-4.66,8.55-1,15.63-3.73,15.63-10.07,0-4.2-2.94-6.61-7.81-6.61-8.18,0-14.68,7.08-14.68,16.62,0,6,3.35,10.23,9.8,10.23,5.63,0,10.57-2.1,12.84-4l-2.09-4.68A16.44,16.44,0,0,1,112,44.45m2.62-16c1.63,0,2.42.68,2.42,2.09,0,2.73-3.41,4.25-8.71,4.93,1-4.82,3.88-7,6.29-7"/><path class="cls-2" d="M146.59,13.1l-1.82,10.33a13.32,13.32,0,0,0-3.36-.32c-8.92,0-15.47,7.29-15.47,18.2,0,5.19,2.57,8.65,6.82,8.65s6.76-3.15,8.81-6.87h.1a59.35,59.35,0,0,0-.84,6.24h6.77a85.58,85.58,0,0,1,1.62-13.11l4.3-23.12Zm-3,16.83c-1.83,9.65-5.35,14.15-8.29,14.15-1.62,0-2.3-1.57-2.3-3.93,0-7.29,3.72-11.95,8.07-11.95a10,10,0,0,1,2.73.31Z"/><path class="cls-2" d="M152.24,41.57c0,5.24,2.67,8.39,6.61,8.39,4.14,0,6.66-3.1,8.65-6.82h.1a46.65,46.65,0,0,0-.83,6.19h6.71a93,93,0,0,1,1.62-13.11l2.15-11.64a23.81,23.81,0,0,0-8.91-1.47c-9.49,0-16.1,7.5-16.1,18.46m17.31-11.64c-1.74,9.54-5.09,14.15-7.87,14.15-1.62,0-2.36-1.25-2.36-3.67,0-7.18,3.78-12.16,8-12.16a9.89,9.89,0,0,1,2.47.31Z"/><path class="cls-2" d="M20.4,12.78A16.54,16.54,0,0,0,9.7,16.09C5,19.5,0,26.89,0,37.22c0,7.6,3.46,13.05,12.48,13.05a19,19,0,0,0,8.23-1.72C28.11,45,32.77,35.07,32.77,25.89c0-8.13-4.35-13.11-12.37-13.11m-.9,29.16a7.33,7.33,0,0,1-5.92,2.73c-3.67,0-5.66-1.68-5.66-6.35,0-4.88,1.94-12.9,4.82-16.68a8.16,8.16,0,0,1,6.35-3.2c4,0,5.45,2.37,5.45,5.93,0,5-1.89,13.69-5,17.57"/><path class="cls-3" d="M182.1,41.56a4.41,4.41,0,1,0,4.51,4.35,4.45,4.45,0,0,0-4.51-4.35"/><path class="cls-3" d="M210,13.62l-1.81,10.32a13.41,13.41,0,0,0-3.36-.31c-8.91,0-15.47,7.29-15.47,18.19,0,5.19,2.57,8.66,6.82,8.66s6.77-3.15,8.81-6.87h.11a59.35,59.35,0,0,0-.84,6.24H211a86,86,0,0,1,1.63-13.11l4.2-23.12Zm-3,16.82c-1.84,9.65-5.35,14.16-8.29,14.16-1.62,0-2.31-1.57-2.31-3.93,0-7.29,3.73-12,8.08-12a10,10,0,0,1,2.73.32Z"/><path class="cls-3" d="M237.34,30.23c0-4.19-2.93-6.6-7.81-6.6-8.18,0-14.68,7.08-14.68,16.62,0,6,3.36,10.23,9.8,10.23a15.47,15.47,0,0,0,10.28-3.68l-2.67-4.5a10.25,10.25,0,0,1-6.5,2.67c-2.62,0-3.94-1.52-4-4.67,8.55-1,15.62-3.72,15.62-10.07M222.09,36c1-4.82,3.88-7,6.29-7,1.62,0,2.41.67,2.41,2.09,0,2.73-3.41,4.25-8.7,4.93"/></svg>